<svg width="1440" height="1440" viewBox="0 0 1440 1440" fill="none" xmlns="http://www.w3.org/2000/svg">
<mask id="mask0_212:248" style="mask-type:alpha" maskUnits="userSpaceOnUse" x="0" y="0" width="1440" height="1440">
<rect width="1440" height="1440" fill="white"/>
</mask>
<g mask="url(#mask0_212:248)">
<path d="M71.219 1457.19V1457.21H71.1984L-66 1242.7L71.219 1457.19Z" fill="url(#paint0_linear_212:248)"/>
<path d="M1524.55 46.2826C1507.72 51.0782 1493.68 61.5747 1480.53 74.109C1475.38 79.0281 1472.17 85.9643 1469.29 90.2042C1445.31 103.15 1422.18 115.623 1399.08 128.198C1387.5 134.517 1380.4 143.285 1384.9 157.116C1369.63 164.649 1355.06 171.708 1340.61 179.015C1324.56 187.124 1309.25 197.086 1292.51 203.24C1272.71 210.505 1272.2 209.126 1273.17 228.164C1254.64 236.726 1253.43 240.945 1267.51 256.814C1275.59 265.932 1285.49 273.424 1290.82 278.26C1293.05 291 1294.65 300.201 1296.28 309.421L1320.54 302.238C1320.54 308.207 1320.42 315.719 1320.54 323.232C1320.73 331.238 1319.02 341.755 1329.13 343.525C1334.23 344.41 1340.69 337.618 1345.2 335.066L1350.88 341.241L1158.28 530.841L1420.3 -274.959L1524.55 46.2826Z" fill="#FF6E00"/>
<path d="M1135.85 1271.5C1133.73 1269.26 1131.49 1267.13 1129.14 1265.12L1127.91 1264.07C1126.39 1262.79 1124.8 1261.52 1123.15 1260.26L1120.62 1258.41C1119.66 1257.69 1118.56 1256.99 1117.62 1256.35C1114.98 1254.55 1112.24 1252.79 1109.38 1251.06C1108.77 1250.69 1108.15 1250.32 1107.51 1249.97C1106.87 1249.62 1105.84 1248.98 1104.98 1248.51L1102.37 1247.07L1101.87 1246.78C1097.76 1244.57 1093.47 1242.42 1089.01 1240.32C1087.65 1239.68 1086.27 1239.04 1084.89 1238.42C1082.05 1237.15 1079.15 1235.89 1076.15 1234.66L1071.78 1232.91C1070.07 1232.23 1068.34 1231.55 1066.57 1230.85C1065.24 1230.33 1063.88 1229.82 1062.46 1229.33L1058.34 1227.86L1057.56 1227.6L1052.64 1225.89L1052.11 1225.7L1047.62 1224.22L1045.7 1223.6C1041.38 1222.23 1036.94 1220.86 1032.39 1219.49L1025.49 1217.53L1021.01 1216.32L1015.39 1214.84L1014.85 1214.69C1011.26 1213.77 1007.59 1212.87 1003.86 1211.98C984.268 1207.3 963.151 1203.21 940.778 1199.79C884.617 1191.42 827.905 1187.29 771.123 1187.44C752.352 1187.44 733.89 1187.75 715.84 1188.33L716.642 1186.74C724.875 1170.28 733.52 1154 743.275 1138.44C750.417 1127.03 763.322 1117.13 775.856 1111.68C790.264 1105.51 807.141 1103.18 823.194 1102.46C853.758 1101.06 884.425 1102.46 915.01 1101.8C944.648 1101.14 970.91 1091.9 984.988 1063.58L985.112 1063.77L1075.01 1187.48L1135.85 1271.5Z" fill="#41B4FF"/>
<path opacity="0.56" d="M443.975 1234.12C441.916 1235.01 440.126 1235.89 438.273 1236.8C440.098 1235.89 441.999 1235 443.975 1234.12Z" fill="#82FF64"/>
<path d="M335.412 170.287C318.124 175.989 307.977 190.581 298.365 206.182C296.163 209.784 292.705 214.415 289.186 215.114C265.455 219.354 254.794 235.923 249.38 256.834C247.322 264.531 245.264 268.524 236.784 270.83C210.028 278.074 183.683 286.369 157.483 295.24C153.888 296.447 150.416 297.819 147.068 299.356L4.84766 -274.507V-274.898H11.8249L12.1131 -274.507L335.412 170.287Z" fill="url(#paint1_linear_212:248)"/>
<path d="M443.975 1234.12C441.916 1235.01 440.126 1235.89 438.273 1236.8C440.098 1235.89 441.999 1235 443.975 1234.12Z" fill="url(#paint2_linear_212:248)"/>
<path d="M1636.37 1530.71C1636.37 1602.87 1524.98 1667.06 1352.05 1707.96C1235.23 1735.62 1090.27 1752.64 932.611 1754.31C869.589 1682.41 813.236 1618.47 809.12 1612.29C781.54 1571.13 752.582 1530.69 723.767 1490.24C707.137 1466.9 691.927 1442.9 681.266 1416.46C684.867 1416.79 688.49 1417.11 692.133 1417.4C698.994 1417.95 705.943 1418.44 712.982 1418.86L715.267 1419.01C718.622 1419.19 721.997 1419.38 725.373 1419.52L733.605 1419.87H734.387L738.174 1420.02C741.426 1420.14 744.699 1420.22 747.992 1420.3C751.285 1420.39 754.969 1420.45 758.468 1420.49H761.823H771.064H780.285C783.351 1420.49 786.459 1420.49 789.444 1420.49C797.265 1420.39 805.017 1420.21 812.701 1419.93C814.986 1419.93 817.25 1419.79 819.534 1419.69C823.136 1419.56 826.717 1419.4 830.278 1419.21C831.986 1419.21 833.674 1419.05 835.382 1418.97L843.183 1418.53C848.37 1418.22 853.522 1417.88 858.64 1417.53C863.744 1417.16 868.931 1416.74 873.85 1416.31L882.762 1415.51L891.571 1414.64C898.157 1413.97 904.654 1413.25 911.062 1412.46C919.624 1411.43 928.021 1410.3 936.254 1409.07C940.37 1408.46 944.439 1407.83 948.459 1407.17C951.978 1406.6 955.477 1406.02 958.956 1405.4C965.871 1404.21 972.663 1402.93 979.291 1401.58C982.625 1400.92 985.897 1400.22 989.149 1399.52C991.619 1399 994.089 1398.45 996.518 1397.89C998.946 1397.34 1001.37 1396.78 1003.76 1396.22L1008.17 1398.06C1011.13 1399.29 1014.16 1400.48 1017.24 1401.68L1020.72 1403.02L1024.26 1404.33L1027.84 1405.65C1037.04 1409 1046.64 1412.22 1056.66 1415.3C1060.16 1416.37 1063.72 1417.36 1067.32 1418.47L1070.69 1419.44L1074.13 1420.41C1077.34 1421.31 1080.58 1422.2 1083.85 1423.06C1085.72 1423.58 1087.59 1424.07 1089.51 1424.54L1095.23 1426.01C1099.08 1426.97 1102.97 1427.91 1106.9 1428.85L1112.83 1430.23C1116.8 1431.13 1120.83 1432.04 1124.89 1432.9L1133.76 1434.77L1134.46 1434.92L1143.47 1436.73C1148.71 1437.76 1154.02 1438.76 1159.4 1439.73L1162.63 1440.31C1166.94 1441.09 1171.3 1441.83 1175.68 1442.55C1181.28 1443.47 1186.94 1444.37 1192.66 1445.25L1202.5 1446.71C1207.05 1447.37 1211.64 1447.99 1216.25 1448.6C1220.86 1449.22 1225.51 1449.8 1230.2 1450.37C1234.9 1450.95 1239.61 1451.49 1244.36 1452.02C1253.86 1453.09 1263.46 1454.07 1273.18 1454.94C1280.51 1455.6 1287.87 1456.22 1295.32 1456.8C1299.11 1457.08 1302.94 1457.37 1306.77 1457.62L1317.86 1458.34L1320.85 1458.53C1324.84 1458.77 1328.87 1459 1332.91 1459.2L1342.83 1459.7L1352.32 1460.09C1361.36 1460.46 1370.48 1460.75 1379.67 1460.95L1386.93 1461.12C1397.66 1461.32 1408.48 1461.43 1419.39 1461.43H1430.59C1438.04 1461.43 1445.45 1461.33 1452.82 1461.14C1460.18 1460.95 1467.51 1460.75 1474.78 1460.56L1485.67 1460.17C1492.91 1459.88 1500.09 1459.55 1507.21 1459.16L1513.39 1458.81L1522.05 1458.3L1526.68 1458.01L1530.37 1457.76C1536.42 1457.37 1542.45 1456.92 1548.42 1456.45L1555.46 1455.87L1562.46 1455.27L1569.41 1454.64C1571.74 1454.41 1574.04 1454.2 1576.33 1453.96C1578.61 1453.71 1580.98 1453.5 1583.28 1453.26L1590.2 1452.54C1620.13 1476.76 1636.37 1503.15 1636.37 1530.71Z" fill="#3C87F0"/>
<path d="M936.345 1408.98C928.112 1410.22 919.714 1411.35 911.152 1412.38C919.714 1411.34 928.112 1410.21 936.345 1408.98Z" fill="#3C87F0"/>
<path d="M979.44 1401.49C972.813 1402.85 966.021 1404.13 959.105 1405.32C965.959 1404.07 972.751 1402.83 979.44 1401.49Z" fill="#3C87F0"/>
<path d="M1003.85 1396.12C1001.46 1396.68 999.051 1397.25 996.602 1397.79L1003.81 1396.1L1003.85 1396.12Z" fill="#3C87F0"/>
<path d="M1008.25 1397.89L1003.84 1396.06L1008.25 1397.89Z" fill="#3C87F0"/>
<path d="M1671.29 1326.93C1662.15 1339.97 1654.99 1350.02 1648.03 1360.19C1633.25 1381.73 1619.55 1404.11 1603.58 1424.71C1597.53 1432.66 1590.94 1440.18 1583.86 1447.23L1580.13 1444.43L1576.28 1441.67C1574.99 1440.74 1573.67 1439.84 1572.33 1438.93L1568.73 1436.52C1568.4 1436.28 1568.05 1436.05 1567.7 1435.82C1566.84 1435.25 1565.93 1434.69 1565.03 1434.12C1560.47 1431.19 1555.73 1428.32 1550.8 1425.49L1547.12 1423.43C1544.22 1421.81 1541.25 1420.18 1538.23 1418.6L1536.46 1417.67C1533.87 1416.29 1531.23 1414.95 1528.53 1413.55L1523.49 1411.08L1518.1 1408.51L1512.87 1406.08C1510.81 1405.18 1508.92 1404.29 1506.9 1403.41L1501.68 1401.12C1497.68 1399.39 1493.61 1397.69 1489.45 1396C1487.39 1395.2 1485.33 1394.37 1483.4 1393.59C1481.81 1392.95 1480.21 1392.31 1478.6 1391.72L1473.87 1389.91C1470.82 1388.73 1467.69 1387.6 1464.63 1386.47L1458.45 1384.23L1451.76 1381.9C1449.52 1381.12 1447.26 1380.36 1444.97 1379.59L1436.2 1376.71C1431.39 1375.15 1426.51 1373.6 1421.53 1372.1L1418.09 1371.05C1417.6 1370.91 1417.13 1370.74 1416.63 1370.62L1413.13 1369.57L1409.02 1368.34L1403.97 1366.87L1400.02 1365.76C1396.77 1364.83 1393.5 1363.92 1390.2 1363.05L1389.57 1362.88L1388.72 1362.63L1388.15 1362.49C1384.61 1361.54 1381.04 1360.6 1377.44 1359.67L1373.51 1358.66C1367.07 1357.02 1360.55 1355.39 1353.94 1353.83C1350.91 1353.08 1347.76 1352.38 1344.76 1351.77L1338.77 1350.41L1333.89 1349.32L1327.88 1348L1325.82 1347.55L1319.28 1346.15L1312.01 1344.63H1311.66C1306.56 1343.6 1301.41 1342.57 1296.21 1341.56L1289.11 1340.18L1288.37 1340.06C1285.73 1339.54 1283.1 1339.07 1280.44 1338.57L1276.32 1337.81L1272.21 1337.07L1266.55 1336.08L1265.29 1335.86L1262.08 1335.3L1260.87 1335.1L1254.14 1333.96C1248.55 1333.04 1242.93 1332.14 1237.26 1331.25L1234.03 1330.75H1233.86L1227.01 1329.72L1220.51 1328.76L1211.9 1327.52C1206.33 1326.74 1200.71 1325.96 1195.07 1325.22L1185.76 1324.02L1181.34 1323.47C1170.36 1322.1 1159.23 1320.81 1147.96 1319.6C1150.09 1314.76 1151.2 1309.53 1151.23 1304.24C1151.23 1292.94 1146 1282.04 1136.2 1271.75L1075.28 1187.89C1095.2 1182.34 1116.44 1177.25 1139.08 1172.71L1148.86 1170.79L1153.78 1169.87L1163.76 1168.05C1167.12 1167.46 1170.49 1166.86 1173.89 1166.3L1184.18 1164.62L1194.59 1163.01C1199.82 1162.2 1205.1 1161.44 1210.44 1160.73C1215.77 1160.01 1221.14 1159.29 1226.56 1158.67C1231.97 1158.05 1237.47 1157.35 1243.02 1156.71C1254.06 1155.46 1265.27 1154.35 1276.65 1153.32C1284.23 1152.65 1291.88 1152.02 1299.6 1151.44C1307.33 1150.87 1315.12 1150.35 1322.98 1149.9C1348.6 1148.41 1374.84 1147.5 1401.71 1147.18C1405.1 1153.23 1408.14 1159.46 1410.81 1165.85C1412.27 1169.23 1412.72 1172.95 1412.1 1176.57C1408.4 1194.58 1403.07 1212.31 1400.35 1230.42C1394.83 1267.46 1402.7 1300.07 1433.55 1324.76C1456.79 1343.29 1485.62 1348.99 1512.69 1351.89C1560.27 1356.95 1608.82 1356.67 1652.64 1330.53C1656.57 1327.58 1663.02 1328.24 1671.29 1326.93Z" fill="url(#paint3_linear_212:248)"/>
<path d="M1150.9 1304.06C1150.87 1309.35 1149.76 1314.57 1147.62 1319.41C1147.42 1319.91 1147.19 1320.4 1146.97 1320.87C1146.86 1321.11 1146.75 1321.35 1146.62 1321.57C1146.39 1322.07 1146.14 1322.56 1145.88 1323.03C1145.61 1323.51 1145.4 1323.94 1145.13 1324.39L1144.93 1324.74L1144.66 1325.2C1144.09 1326.16 1143.47 1327.11 1142.83 1328.06L1142.58 1328.41C1142.19 1329 1141.76 1329.58 1141.31 1330.18C1140.44 1331.37 1139.5 1332.52 1138.51 1333.7C1137.91 1334.4 1137.29 1335.1 1136.65 1335.75C1136.02 1336.41 1135.36 1337.15 1134.6 1337.81C1133.84 1338.47 1133.26 1339.15 1132.54 1339.87L1132.19 1340.2L1131.96 1340.41C1131.32 1341.02 1130.67 1341.62 1129.9 1342.22C1129.14 1342.81 1128.26 1343.66 1127.39 1344.28L1126.41 1345.1C1126.26 1345.23 1126.1 1345.36 1125.93 1345.47C1125.76 1345.63 1125.58 1345.78 1125.4 1345.92C1124.51 1346.62 1123.61 1347.32 1122.66 1347.98L1121.67 1348.72L1121.01 1349.19C1120.7 1349.44 1120.37 1349.67 1120.07 1349.87C1119.76 1350.08 1119.45 1350.33 1119.12 1350.55C1118.23 1351.19 1117.33 1351.81 1116.4 1352.43L1116.11 1352.61C1115.09 1353.31 1114.06 1353.99 1112.97 1354.67C1110.78 1356.05 1108.52 1357.41 1106.17 1358.79L1102.8 1360.68L1099.44 1362.49L1098.37 1363.05L1095.41 1364.55C1094.22 1365.17 1092.98 1365.76 1091.75 1366.36L1090.72 1366.85L1087.57 1368.34L1087.32 1368.46L1083.57 1370.15L1079.91 1371.73L1079.5 1371.92L1076.8 1373.05L1074.07 1374.18L1071.29 1375.29L1069.62 1375.95L1065.98 1377.35L1064.33 1377.97L1062.7 1378.56L1059.76 1379.63L1057.87 1380.31L1056.59 1380.77L1054.99 1381.32L1052.04 1382.33L1050.68 1382.78C1048.63 1383.48 1046.57 1384.16 1044.51 1384.84L1041.32 1385.85L1038.79 1386.63C1036.36 1387.37 1033.91 1388.09 1031.42 1388.81L1028.19 1389.74C1024.73 1390.71 1021.23 1391.68 1017.67 1392.6L1015.14 1393.26H1014.91L1013.23 1393.69L1010.92 1394.27L1009.5 1394.62L1008.2 1394.95L1003.78 1396.02L996.575 1397.71C994.146 1398.26 991.677 1398.82 989.207 1399.33C985.955 1400.03 982.682 1400.71 979.348 1401.39C972.721 1402.73 965.929 1404 959.013 1405.22L948.516 1406.99C944.51 1407.65 940.442 1408.28 936.312 1408.88C928.079 1410.09 919.681 1411.22 911.119 1412.28C904.725 1413.06 898.228 1413.79 891.628 1414.46L882.819 1415.32L873.907 1416.13C868.885 1416.56 863.802 1416.97 858.697 1417.34C853.593 1417.71 848.406 1418.04 843.24 1418.35L835.44 1418.78C833.732 1418.78 832.044 1418.97 830.336 1419.03C826.775 1419.21 823.194 1419.38 819.592 1419.5C817.307 1419.5 815.043 1419.69 812.759 1419.75C805.075 1420.01 797.322 1420.19 789.501 1420.3C786.455 1420.3 783.327 1420.3 780.342 1420.3H771.122H761.881H758.526C755.027 1420.3 751.528 1420.3 748.049 1420.12C744.571 1419.93 741.484 1419.95 738.232 1419.83L734.445 1419.69H733.663L725.43 1419.34C722.054 1419.19 718.679 1419.01 715.324 1418.82L713.04 1418.68C706.028 1418.27 699.078 1417.78 692.19 1417.22C688.547 1416.93 684.925 1416.6 681.323 1416.27C678.936 1410.32 676.775 1404.25 674.881 1398.03C672.061 1388.83 667.245 1380.25 663.355 1371.28C662.059 1368.31 659.918 1365.47 659.589 1362.43C657.849 1348.4 657.161 1334.26 657.53 1320.13C657.53 1319.58 657.53 1319.02 657.53 1318.47C658.021 1307 659.951 1295.64 663.273 1284.65C670.765 1260.3 688.239 1241.92 699.682 1220C705.177 1209.48 710.467 1198.82 715.839 1188.2C733.889 1187.63 752.351 1187.32 771.122 1187.32C827.904 1187.16 884.616 1191.29 940.778 1199.67C963.15 1203.08 984.267 1207.18 1003.86 1211.85C1007.58 1212.73 1011.24 1213.64 1014.85 1214.57L1015.39 1214.71L1021.01 1216.19L1025.49 1217.41L1032.39 1219.36C1036.94 1220.74 1041.38 1222.11 1045.7 1223.48L1047.62 1224.1L1052.1 1225.58L1052.64 1225.76L1057.56 1227.47L1058.34 1227.74L1062.46 1229.2C1063.84 1229.7 1065.19 1230.21 1066.57 1230.73C1068.34 1231.38 1070.07 1232.06 1071.78 1232.78L1076.14 1234.53C1079.15 1235.77 1082.05 1237.02 1084.89 1238.3C1086.29 1238.92 1087.67 1239.55 1089.01 1240.19C1093.52 1242.29 1097.81 1244.45 1101.87 1246.66L1102.37 1246.94L1104.98 1248.38C1105.84 1248.86 1106.69 1249.35 1107.51 1249.85C1108.33 1250.34 1108.77 1250.57 1109.38 1250.94C1112.29 1252.67 1115.04 1254.43 1117.62 1256.23C1118.65 1256.93 1119.67 1257.63 1120.62 1258.28L1123.15 1260.14C1124.8 1261.39 1126.38 1262.67 1127.91 1263.94L1129.14 1264.99C1131.49 1267.01 1133.73 1269.14 1135.85 1271.37C1145.67 1281.85 1150.9 1292.76 1150.9 1304.06Z" fill="url(#paint4_linear_212:248)"/>
<path d="M1009.61 1394.74L1008.34 1395.05L1009.61 1394.74Z" fill="#3C87F0"/>
<path d="M936.345 1408.98C928.112 1410.22 919.714 1411.35 911.152 1412.38C919.714 1411.34 928.112 1410.21 936.345 1408.98Z" fill="#A000FF"/>
<path d="M979.44 1401.49C972.813 1402.85 966.021 1404.13 959.105 1405.32C965.959 1404.07 972.751 1402.83 979.44 1401.49Z" fill="#A000FF"/>
<path d="M1003.85 1396.14C1001.46 1396.7 999.051 1397.27 996.602 1397.81L1003.81 1396.12L1003.85 1396.14Z" fill="#A000FF"/>
<path d="M1590.45 1452.41L1583.53 1453.13L1576.58 1453.83L1569.66 1454.51L1562.7 1455.15L1555.71 1455.75L1548.67 1456.32C1542.7 1456.8 1536.67 1457.25 1530.62 1457.64L1526.93 1457.89L1522.3 1458.18L1513.64 1458.69L1507.46 1459.04C1500.34 1459.44 1493.16 1459.77 1485.91 1460.05L1475.03 1460.44C1467.76 1460.67 1460.43 1460.87 1453.07 1461.02C1445.7 1461.16 1438.29 1461.26 1430.84 1461.3H1419.64C1408.66 1461.3 1397.84 1461.2 1387.18 1460.99L1379.92 1460.83C1370.72 1460.62 1361.61 1460.34 1352.56 1459.97L1343.08 1459.57L1333.16 1459.08C1329.12 1458.87 1325.1 1458.65 1321.09 1458.4L1318.11 1458.22L1307.02 1457.5L1295.57 1456.67C1288.12 1456.1 1280.75 1455.48 1273.43 1454.82C1263.67 1453.93 1254.07 1452.95 1244.61 1451.9L1230.45 1450.25C1225.76 1449.67 1221.11 1449.1 1216.5 1448.48L1202.75 1446.59L1192.91 1445.13C1187.19 1444.26 1181.53 1443.36 1175.93 1442.43C1171.55 1441.71 1167.18 1440.97 1162.88 1440.19L1159.65 1439.61C1154.29 1438.65 1148.98 1437.65 1143.72 1436.61L1134.71 1434.79L1134.01 1434.65L1125.14 1432.78C1121.02 1431.89 1117.05 1431.01 1113.07 1430.1L1107.04 1428.76L1095.37 1425.92L1089.65 1424.46L1083.99 1422.98C1080.73 1422.12 1077.49 1421.23 1074.28 1420.33L1070.84 1419.36L1067.46 1418.39C1063.87 1417.35 1060.32 1416.29 1056.8 1415.22C1046.75 1412.13 1037.14 1408.92 1027.99 1405.57L1024.41 1404.25L1020.87 1402.93L1017.39 1401.6C1014.3 1400.4 1011.28 1399.19 1008.31 1397.97L1003.95 1396.14L1008.37 1395.07L1009.65 1394.76L1011.09 1394.39L1013.4 1393.82L1015.08 1393.38H1015.31L1017.84 1392.72C1021.4 1391.8 1024.9 1390.83 1028.36 1389.86L1031.59 1388.94C1034.08 1388.22 1036.53 1387.5 1038.96 1386.76L1041.49 1385.97L1044.68 1384.97C1046.74 1384.31 1048.8 1383.63 1050.86 1382.91L1052.21 1382.45L1055.16 1381.45L1056.76 1380.89L1058.04 1380.44L1059.93 1379.76L1062.88 1378.69L1064.5 1378.09L1066.15 1377.47L1069.79 1376.07L1071.46 1375.42L1074.24 1374.3L1076.97 1373.17L1079.67 1372.04L1080.08 1371.85L1083.75 1370.27L1087.49 1368.58L1087.74 1368.46L1090.89 1366.98L1091.92 1366.48C1093.15 1365.89 1094.39 1365.29 1095.58 1364.67L1098.54 1363.17L1099.61 1362.61L1102.97 1360.8L1106.34 1358.91C1108.69 1357.55 1110.95 1356.19 1113.14 1354.79C1114.21 1354.11 1115.19 1353.43 1116.28 1352.73L1116.57 1352.55C1117.5 1351.93 1118.4 1351.31 1119.29 1350.68C1119.62 1350.45 1119.93 1350.24 1120.24 1350C1120.55 1349.75 1120.87 1349.56 1121.18 1349.32L1121.84 1348.84L1122.83 1348.1C1123.78 1347.4 1124.68 1346.7 1125.57 1346.05C1125.75 1345.91 1125.93 1345.75 1126.1 1345.59C1126.27 1345.48 1126.43 1345.36 1126.58 1345.22L1127.56 1344.4C1128.43 1343.7 1129.25 1342.98 1130.07 1342.34C1130.9 1341.7 1131.41 1341.15 1132.13 1340.53L1132.36 1340.32L1132.71 1339.99C1133.41 1339.34 1134.09 1338.68 1134.77 1337.94C1135.45 1337.2 1136.1 1336.56 1136.83 1335.88C1137.55 1335.2 1138.08 1334.5 1138.68 1333.82C1139.67 1332.65 1140.61 1331.49 1141.48 1330.3C1141.93 1329.7 1142.36 1329.13 1142.75 1328.53L1143 1328.18C1143.64 1327.23 1144.26 1326.29 1144.83 1325.32L1145.1 1324.87L1145.31 1324.52C1145.58 1324.06 1145.83 1323.61 1146.05 1323.16C1146.31 1322.68 1146.56 1322.19 1146.79 1321.7C1146.92 1321.47 1147.03 1321.24 1147.14 1321C1147.36 1320.52 1147.59 1320.03 1147.8 1319.54C1159.06 1320.76 1170.19 1322.05 1181.18 1323.41L1185.6 1323.96L1194.91 1325.15C1200.55 1325.9 1206.17 1326.68 1211.74 1327.46L1220.35 1328.69L1226.85 1329.66L1233.87 1330.73L1237.1 1331.23C1242.78 1332.12 1248.41 1333.02 1253.98 1333.94L1260.71 1335.08L1261.92 1335.28L1265.13 1335.84L1266.39 1336.06L1272.05 1337.05L1276.16 1337.79L1280.28 1338.55C1282.94 1339.05 1285.57 1339.52 1288.2 1340.04L1296.05 1341.54C1301.25 1342.55 1306.4 1343.58 1311.5 1344.6H1311.67L1319.12 1346.15L1325.66 1347.55L1327.72 1348L1333.73 1349.32L1338.61 1350.41L1344.6 1351.77C1347.69 1352.49 1350.77 1353.19 1353.78 1353.83C1360.39 1355.39 1366.91 1357.02 1373.35 1358.66L1377.28 1359.67C1380.89 1360.6 1384.46 1361.54 1387.99 1362.49L1389.41 1362.88L1390.04 1363.05C1393.34 1363.92 1396.61 1364.83 1399.86 1365.76L1403.81 1366.87L1408.86 1368.34L1412.97 1369.57L1416.47 1370.62C1416.96 1370.74 1417.44 1370.91 1417.93 1371.05L1421.37 1372.1C1426.35 1373.6 1431.23 1375.15 1436.04 1376.71L1444.81 1379.59C1447.1 1380.36 1449.36 1381.12 1451.6 1381.9L1458.29 1384.22L1464.47 1386.47C1467.58 1387.6 1470.64 1388.73 1473.71 1389.91L1478.44 1391.72C1480.05 1392.31 1481.65 1392.95 1483.24 1393.59L1489.29 1396C1493.41 1397.69 1497.48 1399.39 1501.51 1401.12L1506.74 1403.41C1508.8 1404.29 1510.86 1405.18 1512.71 1406.08L1517.94 1408.51L1523.33 1411.08L1528.37 1413.55C1531.07 1414.89 1533.7 1416.23 1536.3 1417.67L1538.07 1418.6C1541.09 1420.18 1544.06 1421.81 1546.96 1423.43L1550.64 1425.49C1555.58 1428.3 1560.32 1431.18 1564.87 1434.11C1565.77 1434.69 1566.68 1435.25 1567.54 1435.82C1567.89 1436.05 1568.24 1436.28 1568.57 1436.52L1572.17 1438.93C1573.51 1439.84 1574.83 1440.74 1576.12 1441.67L1579.97 1444.43L1583.7 1447.23C1586.13 1448.93 1588.33 1450.66 1590.45 1452.41Z" fill="#41B4FF"/>
<path d="M1008.25 1397.89L1003.84 1396.06L1008.25 1397.89Z" fill="#41B4FF"/>
<path d="M1233.54 1330.57L1236.94 1331.1L1233.71 1330.61L1226.69 1329.54L1233.54 1330.57Z" fill="#41B4FF"/>
<path d="M1260.5 1334.93L1261.75 1335.16L1260.54 1334.95L1253.81 1333.82L1260.5 1334.93Z" fill="#41B4FF"/>
<path d="M1267.13 1336.15L1271.88 1336.99L1266.22 1336L1267.13 1336.15Z" fill="#41B4FF"/>
<path d="M1389.42 1362.9L1388 1362.51L1388.58 1362.66L1389.42 1362.9Z" fill="#41B4FF"/>
<path d="M1401.36 1146.79C1374.55 1147.08 1348.31 1147.99 1322.64 1149.51C1314.77 1149.96 1306.98 1150.48 1299.25 1151.05C1291.53 1151.63 1283.88 1152.25 1276.31 1152.93C1264.92 1153.95 1253.67 1154.98 1242.67 1156.32C1237.19 1156.94 1231.7 1157.59 1226.21 1158.28C1220.72 1158.96 1215.35 1159.65 1210.09 1160.34C1204.77 1161.05 1199.49 1161.81 1194.25 1162.62C1190.75 1163.13 1187.29 1163.67 1183.83 1164.23L1173.54 1165.91C1170.14 1166.47 1166.77 1167.07 1163.41 1167.66L1153.43 1169.47L1148.51 1170.4L1138.74 1172.31C1116.1 1176.86 1094.81 1181.95 1074.93 1187.5L985.031 1063.79L985.505 1062.3C987.31 1058.35 988.69 1054.21 989.621 1049.95L1158.39 530.943L1351 341.343C1358.88 349.988 1367.46 359.311 1376.66 369.458C1374.6 382.692 1373.2 399.055 1369.01 414.738C1358.72 452.732 1347.19 490.356 1336.08 528.123C1325.29 564.924 1327.7 597.484 1352.54 630.765C1374.03 659.579 1374.52 696.4 1357.52 729.558C1344.68 754.606 1327.8 777.575 1313.11 801.594C1302.4 819.109 1291.35 836.583 1282.23 854.86C1271.35 876.78 1276.55 893.266 1293.16 910.04C1306.44 923.459 1322.31 930.621 1339.39 936.528C1345.56 938.587 1351.74 941.406 1359.83 944.761C1354.04 959.313 1349.1 972.382 1343.69 985.246C1337.35 1000.37 1335.91 1015.46 1346.18 1029.11C1357.03 1043.51 1369.09 1056.99 1381.42 1071.85C1379.7 1074.22 1378.25 1076.77 1377.12 1079.47C1369.58 1100.24 1369.13 1117.88 1383.78 1127.71C1391.04 1132.63 1397.06 1139.16 1401.36 1146.79Z" fill="url(#paint5_linear_212:248)"/>
<path d="M989.542 1050.06C988.611 1054.31 987.231 1058.45 985.426 1062.41L989.542 1050.06Z" fill="url(#paint6_linear_212:248)"/>
<path d="M985.468 1062.41L984.994 1063.89L984.871 1063.7C985.077 1063.31 985.283 1062.88 985.468 1062.41Z" fill="#A000FF"/>
<path d="M1922.25 1272.82C1918.56 1267.31 1914.32 1262.2 1909.59 1257.56C1908.81 1256.78 1908 1256 1907.18 1255.24C1905.53 1253.67 1903.8 1252.15 1902.01 1250.63L1899.26 1248.34L1896.97 1246.53C1895.24 1245.17 1893.45 1243.84 1891.58 1242.42C1890.96 1241.96 1890.34 1241.51 1889.71 1241.08C1888.05 1239.88 1886.32 1238.71 1884.52 1237.56C1882.75 1236.39 1880.94 1235.23 1879.07 1234.08C1876.32 1232.35 1873.43 1230.64 1870.38 1228.96C1865.89 1226.42 1861.19 1223.93 1856.26 1221.48C1852.97 1219.84 1849.59 1218.23 1846.11 1216.65C1840.91 1214.26 1835.5 1211.92 1829.87 1209.63L1826.11 1208.11L1822.53 1206.69L1819.95 1205.7L1818.88 1205.29L1815.2 1203.91L1811.45 1202.53C1809.79 1201.91 1808.1 1201.31 1806.39 1200.72L1801.25 1198.93C1797.77 1197.73 1794.25 1196.58 1790.67 1195.43L1785.25 1193.72C1779.44 1191.91 1773.48 1190.14 1767.39 1188.41C1762.82 1187.12 1758.17 1185.85 1753.43 1184.6L1748.7 1183.37C1743.93 1182.13 1739.07 1180.93 1734.15 1179.77C1730.88 1178.98 1727.56 1178.2 1724.23 1177.46C1717.55 1175.94 1710.74 1174.47 1703.81 1173.06C1683.48 1168.94 1662.11 1165.17 1639.88 1161.92L1633.61 1161.01C1629.49 1160.42 1625.17 1159.84 1620.91 1159.29L1614.49 1158.46C1608.76 1157.74 1602.99 1157.05 1597.18 1156.4C1538.23 1149.85 1478.95 1146.61 1419.64 1146.71C1413.5 1146.71 1407.39 1146.71 1401.3 1146.71C1397.02 1138.97 1390.98 1132.35 1383.68 1127.36C1369.03 1117.53 1369.48 1099.89 1377.01 1079.12C1378.15 1076.42 1379.59 1073.87 1381.31 1071.5C1368.97 1056.64 1356.93 1043.16 1346.08 1028.76C1335.79 1015.11 1337.25 999.941 1343.59 984.896C1349 972.032 1353.88 958.963 1359.72 944.412C1351.49 941.16 1345.54 938.443 1339.29 936.179C1322.2 930.252 1306.36 923.11 1293.06 909.69C1276.45 892.916 1271.24 876.43 1282.13 854.51C1291.23 836.172 1302.28 818.76 1313 801.245C1327.7 777.123 1344.58 754.153 1357.42 729.208C1374.42 696.092 1373.88 659.23 1352.44 630.415C1327.74 597.134 1325.27 564.553 1335.97 527.774C1347.05 490.006 1358.61 452.383 1368.9 414.389C1373.02 398.808 1374.4 382.446 1376.56 369.108C1367.28 358.962 1358.78 349.638 1350.89 340.994L1555.03 140.053L1772.25 809.971L1922.25 1272.82Z" fill="url(#paint7_linear_212:248)"/>
<path d="M1555.05 140.341L1350.92 341.282L1345.24 335.107C1340.73 337.659 1334.27 344.451 1329.16 343.566C1319.06 341.796 1320.77 331.217 1320.58 323.273C1320.42 315.76 1320.58 308.248 1320.58 302.279L1296.31 309.462C1294.69 300.242 1293.08 290.939 1290.86 278.301C1285.53 273.465 1275.63 265.952 1267.54 256.855C1253.46 240.987 1254.7 236.767 1273.2 228.205C1272.23 209.167 1272.75 210.546 1292.55 203.281C1309.28 197.106 1324.59 187.165 1340.65 179.056C1355.05 171.749 1369.67 164.649 1384.94 157.157C1380.43 143.326 1387.53 134.517 1399.12 128.239C1422.21 115.664 1445.35 103.191 1469.32 90.2453C1472.21 86.0054 1475.5 79.0692 1480.56 74.1502C1493.69 61.6158 1507.75 51.1191 1524.59 46.3235L1555.05 140.341Z" fill="#A000FF"/>
<path d="M444.001 1234.1L448.303 1229.84L444.001 1234.1ZM438.238 1236.84C440.091 1235.93 441.984 1235.05 443.939 1234.16C441.991 1235.01 440.091 1235.91 438.238 1236.84ZM449.723 1228.46L831.392 852.699L449.723 1228.46ZM985.612 1062.41C987.417 1058.45 988.797 1054.31 989.728 1050.06L985.612 1062.41Z" fill="white"/>
<path d="M242.191 1325.3C242.191 1377.54 178.614 1425.2 73.9345 1461.45L71.2383 1457.33C75.8692 1427.73 79.3063 1408.49 80.8706 1405.16C101.988 1359.69 117.095 1311.3 151.034 1271.64C160.687 1260.38 170.36 1249.41 180.569 1239.25C220.107 1265.3 242.191 1294.51 242.191 1325.3Z" fill="#41B4FF"/>
<path d="M991.781 1028.43C992.008 1004.65 990.443 981.089 999.047 958.037C1004.32 943.877 999.047 934.018 981.758 917.326C986.883 914.012 992.049 911.151 996.741 907.591C1011.68 896.662 1013.8 886.515 1004.73 870.708C1003.84 869.144 1002.9 867.6 1002.07 865.995C990.67 843.89 995.465 833.27 1019.46 827.918C1035.81 824.255 1050.56 819.254 1055.3 800.051C1060.48 779.078 1053.77 763.003 1038.32 748.905C1020.82 732.872 1003.55 716.571 986.306 700.249L1031.59 655.752L1050.11 637.619L1158.51 530.902L989.744 1049.91C991.151 1042.84 991.834 1035.64 991.781 1028.43Z" fill="#3C87F0"/>
<path d="M1055.28 800.051C1050.55 819.254 1035.79 824.255 1019.45 827.919C995.452 833.27 990.636 843.89 1002.06 865.995C1002.88 867.6 1003.83 869.144 1004.71 870.708C1013.79 886.515 1011.67 896.662 996.729 907.591C991.995 911.049 986.87 914.012 981.745 917.326C999.137 934.018 1004.38 943.877 999.034 958.037C990.43 981.109 991.995 1004.65 991.768 1028.43C991.76 1035.65 991.016 1042.85 989.546 1049.91L985.429 1062.26C985.244 1062.7 985.038 1063.13 984.832 1063.56L831.395 852.514L986.252 700.064C1003.5 716.386 1020.77 732.686 1038.26 748.72C1053.76 763.065 1060.47 779.078 1055.28 800.051Z" fill="#A000FF"/>
<path d="M984.873 1063.75C970.878 1092.07 944.615 1101.31 914.895 1101.97C884.31 1102.64 853.644 1101.22 823.08 1102.62C807.129 1103.34 790.293 1105.65 775.741 1111.84C763.207 1117.22 750.302 1127.12 743.16 1138.6C733.404 1154.16 724.842 1170.46 716.527 1186.91L715.725 1188.49C599.911 1192.32 501.036 1208.21 443.859 1234.16L448.161 1229.9L449.581 1228.5L831.251 852.74L984.873 1063.75Z" fill="url(#paint8_linear_212:248)"/>
<path d="M932.607 1754.31C924.086 1754.42 915.517 1754.46 906.9 1754.45C504.011 1754.45 177.418 1654.28 177.418 1530.71C177.418 1506.48 189.952 1483.16 213.148 1461.34L213.272 1461.22C257.728 1419.44 341.167 1383.01 450.436 1356.25L453.626 1357.96C459.019 1360.83 464.713 1363.62 470.709 1366.34C473.097 1367.43 475.546 1368.52 478.036 1369.59C486.736 1373.34 495.984 1376.93 505.781 1380.38C507.839 1381.12 510 1381.86 512.14 1382.58L518.644 1384.64C524.51 1386.53 530.561 1388.38 536.736 1390.15L541.264 1391.43L545.956 1392.73C549.105 1393.57 552.296 1394.41 555.506 1395.24L560.384 1396.45L565.303 1397.64C567.958 1398.3 570.654 1398.92 573.351 1399.52C579.086 1400.89 584.924 1402.14 590.866 1403.28L595.867 1404.27L601.136 1405.28L606.446 1406.27L611.798 1407.21C615.914 1407.93 619.996 1408.61 624.044 1409.27L630.939 1410.32C633.758 1410.75 636.619 1411.17 639.459 1411.56C642.3 1411.95 644.914 1412.32 647.692 1412.67C650.471 1413.02 653.208 1413.39 655.925 1413.72H656.254C658.93 1414.03 661.606 1414.36 664.302 1414.64C669.928 1415.28 675.594 1415.86 681.302 1416.39C691.964 1442.86 707.174 1466.84 723.804 1490.18C752.619 1530.62 781.577 1570.96 809.157 1612.23C813.273 1618.36 869.585 1682.41 932.607 1754.31Z" fill="url(#paint9_linear_212:248)"/>
<path d="M242.197 1742.76C241.976 1729.64 237.872 1716.88 230.403 1706.08L229.951 1705.4L73.9403 1461.47C178.619 1425.22 242.197 1377.56 242.197 1325.32C242.197 1294.45 220.113 1265.32 180.451 1239.12C199.49 1220.15 220.421 1203.95 246.684 1193.84C271.258 1184.33 288.053 1167.54 296.595 1142.12C305.424 1115.9 315.756 1090.19 324.73 1064.03C326.788 1058.17 328.023 1050.45 325.862 1045.14C320.511 1032.05 314.645 1018.53 305.939 1007.62C291.14 989.095 274.016 972.814 264.898 949.866C261.976 942.497 252.097 937.043 244.317 932.659C233.223 926.485 220.606 922.862 209.574 916.544C199.284 910.678 190.186 902.857 180.76 895.551C159.19 878.797 136.262 863.608 120.064 840.762C112.613 830.224 103.599 820.818 96.0864 810.321C85.425 795.44 75.5045 780.086 65.3371 764.835C62.1881 760.04 60.2122 754.359 56.6104 749.975C43.3763 733.839 39.5686 715.336 38.5395 694.836C37.5824 679.233 34.0423 663.897 28.0634 649.453C18.9457 627.143 7.7903 605.758 5.64979 581.142C2.54194 545.68 4.4561 512.337 39.1571 490.871C40.6371 489.891 41.901 488.618 42.8708 487.132C43.8407 485.645 44.496 483.976 44.7965 482.226C46.3607 460.224 58.7097 444.417 72.7671 428.899C78.1595 422.93 81.2057 414.306 83.6961 406.403C85.7542 399.672 85.7542 392.222 86.3923 385.08C90.5086 343.772 110.658 314.999 146.923 299.315L388.966 1275.84L391.415 1285.74C391.274 1287 391.205 1288.26 391.209 1289.53C391.209 1311.92 411.791 1334.62 447.521 1354.67L450.279 1356.19C341.01 1383.11 257.571 1419.48 213.115 1461.16L212.991 1461.28C189.795 1483.1 177.261 1506.42 177.261 1530.64C177.261 1654.13 503.854 1754.39 906.743 1754.39C915.346 1754.39 923.915 1754.34 932.45 1754.24C997.962 1829 1070.72 1912.27 1099.49 1947.71H3.63281C5.87623 1930.32 8.81944 1907.76 12.2566 1881.71C148.982 1855.53 242.197 1803.11 242.197 1742.76Z" fill="url(#paint10_linear_212:248)"/>
<path d="M831.435 852.699L449.724 1228.46L448.304 1229.86L444.002 1234.1C442.026 1234.98 440.112 1235.88 438.26 1236.82C436.387 1237.74 434.576 1238.67 432.806 1239.6C430.151 1241.02 427.619 1242.44 425.211 1243.9C423.606 1244.87 422.041 1245.96 420.539 1246.86C419.798 1247.36 419.057 1247.85 418.337 1248.36C416.155 1249.87 414.22 1251.41 412.162 1252.97L411.38 1253.63L410.619 1254.27C409.933 1254.82 409.246 1255.4 408.56 1256L406.687 1257.75C406.132 1258.28 405.576 1258.82 405.062 1259.38C404.074 1260.38 403.127 1261.43 402.242 1262.46C401.933 1262.81 401.645 1263.16 401.357 1263.53L400.513 1264.6L399.443 1266.02C399.031 1266.58 398.64 1267.16 398.249 1267.73C397.858 1268.31 397.776 1268.45 397.549 1268.8L396.643 1270.3C396.149 1271.17 395.676 1272.05 395.244 1272.94C394.97 1273.47 394.723 1274.01 394.503 1274.54C394.215 1275.18 393.947 1275.84 393.7 1276.6C393.453 1277.36 393.268 1277.8 393.062 1278.41C392.856 1279.03 392.815 1279.2 392.713 1279.61C392.61 1280.02 392.527 1280.27 392.445 1280.57C392.363 1280.88 392.26 1281.25 392.198 1281.6C392.188 1281.75 392.188 1281.91 392.198 1282.06L392.074 1282.63C391.869 1283.68 391.704 1284.69 391.601 1285.78L389.152 1275.88L147.109 299.357C150.444 297.888 153.915 296.516 157.524 295.24C183.725 286.37 210.151 278.075 236.826 270.83C245.388 268.525 247.425 264.532 249.422 256.835C254.835 235.923 265.496 219.355 289.227 215.115C292.747 214.498 296.204 209.784 298.406 206.183C307.998 190.582 318.144 175.989 335.454 170.288L831.435 852.699Z" fill="#41B4FF"/>
<path d="M1049.91 637.618L1031.38 655.751C1027.86 655.751 986.102 700.249 986.102 700.249L831.245 852.699L335.223 170.288C338.982 169.036 342.88 168.249 346.831 167.941C350.947 167.591 355.063 165.41 359.344 164.833C367.577 163.742 372.579 159.605 375.563 151.599C380.935 137.192 392.502 130.009 407.218 129.412C427.635 128.589 448.135 129.206 466.905 129.206C472.565 113.008 475.426 98.4569 482.465 86.3548C490.261 72.5494 500.354 60.1739 512.309 49.7603C534.496 31.2366 560.552 24.4034 589.079 34.5296C619.499 45.3351 644.814 64.0234 668.01 85.9842C671.448 89.0072 675.489 91.2663 679.865 92.6118C690.712 96.1724 701.95 98.5805 712.796 102.347C722.408 105.722 731.546 108.522 742.064 105.99C748.455 104.862 754.999 104.918 761.369 106.155C788.496 110.086 811.63 123.587 833.591 138.756C856.231 154.316 878.542 169.629 905.483 177.079C911.822 178.808 917.153 183.974 923.287 186.897C929.423 190.114 935.908 192.621 942.613 194.368C960.992 198.34 979.351 199.658 995.529 212.604C1026.07 237.055 1035.73 294.252 1019.73 323.149C1016.05 330.154 1012.86 337.402 1010.16 344.842C1001.35 367.688 988.552 390.019 999.872 415.829C1000.19 417.233 1000.31 418.673 1000.24 420.11C1005.74 460.1 995.59 498.938 991.165 538.147C986.596 578.631 1001.04 609.01 1036.82 628.974C1040.58 631.032 1045.58 632.02 1048.09 635.149C1048.77 635.919 1049.37 636.745 1049.91 637.618Z" fill="url(#paint11_linear_212:248)"/>
<path d="M657.472 1320.38C657.102 1334.51 657.79 1348.65 659.53 1362.68C659.859 1365.72 662 1368.56 663.297 1371.53C667.187 1380.4 672.003 1388.98 674.822 1398.28C676.716 1404.46 678.939 1410.63 681.265 1416.52C675.543 1415.98 669.876 1415.4 664.264 1414.77C661.568 1414.48 658.892 1414.15 656.216 1413.84H655.887C653.109 1413.51 650.351 1413.16 647.655 1412.79C644.958 1412.42 642.18 1412.07 639.422 1411.68C636.664 1411.29 633.721 1410.88 630.901 1410.45L624.006 1409.4C619.89 1408.74 615.807 1408.05 611.76 1407.34L606.408 1406.39L601.098 1405.4L595.829 1404.4L590.828 1403.41C584.9 1402.21 579.062 1400.96 573.313 1399.64C570.596 1399.04 567.92 1398.41 565.265 1397.77L560.346 1396.57L555.468 1395.36C552.258 1394.54 549.067 1393.69 545.918 1392.85L541.226 1391.55L536.698 1390.28C530.523 1388.51 524.472 1386.65 518.606 1384.76L512.102 1382.7C510.044 1381.98 507.842 1381.24 505.743 1380.5C495.973 1377.06 486.725 1373.46 477.998 1369.71C475.508 1368.64 473.059 1367.66 470.671 1366.46C464.689 1363.72 458.994 1360.93 453.588 1358.09L450.398 1356.38L447.64 1354.85C411.931 1334.81 391.328 1312.11 391.328 1289.71C391.324 1288.45 391.393 1287.18 391.534 1285.93C391.534 1284.88 391.802 1283.87 392.007 1282.78L392.131 1282.2C392.121 1282.05 392.121 1281.9 392.131 1281.75C392.131 1281.4 392.296 1281.09 392.378 1280.72C392.46 1280.35 392.543 1280.08 392.646 1279.75C392.748 1279.42 392.872 1278.95 392.995 1278.56C393.119 1278.17 393.407 1277.34 393.633 1276.75C393.86 1276.15 394.148 1275.43 394.436 1274.69C394.724 1273.95 394.91 1273.62 395.177 1273.08C395.609 1272.2 396.083 1271.31 396.577 1270.45L397.482 1268.95C397.709 1268.6 397.935 1268.23 398.182 1267.88C398.429 1267.53 398.964 1266.72 399.376 1266.17L400.446 1264.75L401.29 1263.68C401.578 1263.31 401.866 1262.96 402.175 1262.61C403.06 1261.56 404.007 1260.55 404.995 1259.52L406.62 1257.89L408.493 1256.14C409.125 1255.55 409.811 1254.98 410.552 1254.42L411.313 1253.78L412.095 1253.12C414.03 1251.55 416.068 1250.01 418.27 1248.51C418.99 1247.99 419.731 1247.5 420.472 1247.01C421.975 1246 423.539 1244.95 425.144 1244.04C427.552 1242.58 430.084 1241.16 432.739 1239.74C434.509 1238.81 436.32 1237.89 438.193 1236.96C440.066 1236.04 441.939 1235.17 443.894 1234.29C501.071 1208.33 599.946 1192.44 715.76 1188.61C710.388 1199.24 705.098 1209.9 699.603 1220.41C688.16 1242.33 670.788 1260.71 663.194 1285.06C659.871 1296.05 657.942 1307.41 657.451 1318.88C657.534 1319.27 657.513 1319.82 657.472 1320.38Z" fill="#FF6E00"/>
<path d="M1932.38 1304.06C1932.38 1365.19 1818.7 1418.16 1652.69 1444.2C1632.67 1447.36 1611.93 1450.1 1590.45 1452.43C1588.39 1450.68 1586.13 1448.95 1583.87 1447.25C1590.95 1440.2 1597.54 1432.68 1603.58 1424.73C1619.55 1404.15 1633.26 1381.76 1648.04 1360.21C1655 1350.04 1662.16 1339.99 1671.3 1326.95C1663.06 1328.26 1656.62 1327.6 1652.2 1330.24C1608.42 1356.38 1559.87 1356.67 1512.24 1351.6C1485.18 1348.7 1456.34 1343.06 1433.1 1324.48C1402.23 1299.78 1394.39 1267.09 1399.9 1230.13C1402.62 1212.02 1407.95 1194.3 1411.66 1176.29C1412.27 1172.66 1411.82 1168.94 1410.36 1165.56C1407.73 1159.14 1404.72 1152.87 1401.37 1146.79C1407.46 1146.79 1413.57 1146.79 1419.7 1146.79C1479.02 1146.7 1538.29 1149.93 1597.24 1156.49C1603.06 1157.15 1608.83 1157.83 1614.55 1158.55L1620.97 1159.37L1633.67 1161.1L1639.95 1162C1662.18 1165.25 1683.54 1168.98 1703.88 1173.14C1710.81 1174.51 1717.61 1175.98 1724.3 1177.54C1727.63 1178.3 1730.94 1179.07 1734.22 1179.85C1739.13 1181.03 1743.98 1182.23 1748.77 1183.45L1753.5 1184.68C1758.23 1185.92 1762.89 1187.19 1767.46 1188.49C1773.55 1190.22 1779.5 1191.99 1785.32 1193.8L1790.73 1195.51C1794.31 1196.66 1797.84 1197.83 1801.31 1199.01L1806.46 1200.8C1808.17 1201.4 1809.85 1201.99 1811.52 1202.61L1815.27 1203.99L1818.95 1205.39L1822.59 1206.79L1826.18 1208.19L1829.94 1209.71C1835.57 1212 1840.98 1214.34 1846.18 1216.73C1849.66 1218.31 1853.03 1219.94 1856.33 1221.57C1861.25 1224.02 1865.96 1226.51 1870.45 1229.04C1873.42 1230.73 1876.32 1232.43 1879.13 1234.16C1881.01 1235.32 1882.82 1236.49 1884.59 1237.64C1886.36 1238.79 1888.11 1239.99 1889.77 1241.16C1890.41 1241.59 1891.03 1242.05 1891.65 1242.5C1893.52 1243.84 1895.31 1245.17 1897.04 1246.61L1899.32 1248.43L1902.08 1250.71C1903.87 1252.23 1905.6 1253.78 1907.25 1255.32C1908.07 1256.08 1908.87 1256.86 1909.65 1257.65C1914.39 1262.28 1918.63 1267.39 1922.31 1272.9C1928.68 1282.06 1932.18 1292.9 1932.38 1304.06Z" fill="#41B4FF"/>
<path d="M1975.45 -59.1381V1947.84H1297.28C1308.5 1874.26 1341.96 1730.62 1345.79 1719.26C1347.14 1715.4 1348.71 1711.63 1350.51 1707.96C1523.39 1667.06 1634.82 1602.87 1634.82 1530.71C1634.82 1503.15 1618.58 1476.76 1588.91 1452.49C1610.35 1450.16 1631.1 1447.42 1651.14 1444.26C1817.16 1418.23 1930.83 1365.25 1930.83 1304.12C1930.63 1292.94 1927.1 1282.07 1920.7 1272.9L1770.72 810.362L1934.84 -59.6936C1939.5 -57.6003 1944.47 -56.3195 1949.56 -55.9066C1958.31 -55.5841 1967.05 -56.6754 1975.45 -59.1381Z" fill="url(#paint12_linear_212:248)"/>
</g>
<defs>
<linearGradient id="paint0_linear_212:248" x1="127188" y1="170596" x2="136337" y2="170596" gradientUnits="userSpaceOnUse">
<stop stop-color="#3C87F0"/>
<stop offset="0.99" stop-color="#0A0528"/>
</linearGradient>
<linearGradient id="paint1_linear_212:248" x1="62.8868" y1="74.8909" x2="343.189" y2="-15.7695" gradientUnits="userSpaceOnUse">
<stop stop-color="#3C87F0"/>
<stop offset="0.99" stop-color="#0A0528"/>
</linearGradient>
<linearGradient id="paint2_linear_212:248" x1="7205.89" y1="-1799.64" x2="7221.8" y2="-1799.64" gradientUnits="userSpaceOnUse">
<stop stop-color="#3C87F0"/>
<stop offset="0.99" stop-color="#0A0528"/>
</linearGradient>
<linearGradient id="paint3_linear_212:248" x1="985.975" y1="1147.2" x2="1722.8" y2="1447.7" gradientUnits="userSpaceOnUse">
<stop stop-color="#82FF64"/>
<stop offset="0.99" stop-color="#41B4FF"/>
</linearGradient>
<linearGradient id="paint4_linear_212:248" x1="545.528" y1="1303.63" x2="786.384" y2="1007.01" gradientUnits="userSpaceOnUse">
<stop stop-color="#3C87F0"/>
<stop offset="0.99" stop-color="#0A0528"/>
</linearGradient>
<linearGradient id="paint5_linear_212:248" x1="899.536" y1="988.724" x2="1359.77" y2="1168.59" gradientUnits="userSpaceOnUse">
<stop stop-color="#3C87F0"/>
<stop offset="0.99" stop-color="#0A0528"/>
</linearGradient>
<linearGradient id="paint6_linear_212:248" x1="6966.3" y1="-14028.6" x2="6974.37" y2="-14028.6" gradientUnits="userSpaceOnUse">
<stop stop-color="#FF6E00"/>
<stop offset="0.99" stop-color="#A000FF"/>
</linearGradient>
<linearGradient id="paint7_linear_212:248" x1="1322.49" y1="574" x2="2083.2" y2="1064.65" gradientUnits="userSpaceOnUse">
<stop stop-color="#FF6E00"/>
<stop offset="0.99" stop-color="#A000FF"/>
</linearGradient>
<linearGradient id="paint8_linear_212:248" x1="74.2065" y1="1007.25" x2="586.984" y2="392.123" gradientUnits="userSpaceOnUse">
<stop stop-color="#FF6E00"/>
<stop offset="0.99" stop-color="#A000FF"/>
</linearGradient>
<linearGradient id="paint9_linear_212:248" x1="58.767" y1="1403.45" x2="847.051" y2="1797.59" gradientUnits="userSpaceOnUse">
<stop stop-color="#82FF64"/>
<stop offset="0.99" stop-color="#41B4FF"/>
</linearGradient>
<linearGradient id="paint10_linear_212:248" x1="3.19867" y1="1183.22" x2="1107.72" y2="1873.66" gradientUnits="userSpaceOnUse">
<stop stop-color="#3C87F0"/>
<stop offset="0.99" stop-color="#0A0528"/>
</linearGradient>
<linearGradient id="paint11_linear_212:248" x1="334.563" y1="852.884" x2="1050.81" y2="133.549" gradientUnits="userSpaceOnUse">
<stop stop-color="#82FF64"/>
<stop offset="0.99" stop-color="#41B4FF"/>
</linearGradient>
<linearGradient id="paint12_linear_212:248" x1="1297.8" y1="1707.03" x2="1964.33" y2="1725.51" gradientUnits="userSpaceOnUse">
<stop stop-color="#3C87F0"/>
<stop offset="0.99" stop-color="#0A0528"/>
</linearGradient>
</defs>
</svg>
