<svg width="168" height="56" viewBox="0 0 168 56" fill="none" xmlns="http://www.w3.org/2000/svg">
<rect x="0.5" y="0.5" width="167" height="55" rx="6.5" fill="#0C0D10"/>
<path d="M114.136 26.8805V30.0879H112.126V32.1914H114.136V39.3383C114.136 41.7788 115.24 42.7549 118.018 42.7549C118.506 42.7549 118.971 42.6968 119.377 42.6271V40.5469C119.029 40.5818 118.808 40.605 118.425 40.605C117.181 40.605 116.635 40.024 116.635 38.6992V32.1914H119.377V30.0879H116.635V26.8805H114.136Z" fill="white"/>
<path d="M126.453 42.9292C130.148 42.9292 132.414 40.454 132.414 36.3517C132.414 32.2727 130.137 29.7858 126.453 29.7858C122.757 29.7858 120.48 32.2727 120.48 36.3517C120.48 40.454 122.746 42.9292 126.453 42.9292ZM126.453 40.7096C124.28 40.7096 123.06 39.1175 123.06 36.3517C123.06 33.6091 124.28 32.0054 126.453 32.0054C128.614 32.0054 129.846 33.6091 129.846 36.3517C129.846 39.1059 128.614 40.7096 126.453 40.7096Z" fill="white"/>
<path d="M134.353 42.6852H136.852V35.2128C136.852 33.4348 138.188 32.2378 140.083 32.2378C140.524 32.2378 141.268 32.3192 141.477 32.3889V29.9252C141.21 29.8555 140.733 29.8207 140.361 29.8207C138.711 29.8207 137.305 30.7271 136.945 31.9706H136.759V30.0298H134.353V42.6852Z" fill="white"/>
<path d="M147.681 31.9125C149.529 31.9125 150.737 33.2024 150.795 35.1896H144.404C144.543 33.214 145.833 31.9125 147.681 31.9125ZM150.784 39.2686C150.319 40.2564 149.285 40.8026 147.774 40.8026C145.775 40.8026 144.485 39.3964 144.404 37.1768V37.0374H153.34V36.1658C153.34 32.1914 151.214 29.7858 147.693 29.7858C144.125 29.7858 141.859 32.3541 141.859 36.3982C141.859 40.4423 144.078 42.9292 147.704 42.9292C150.598 42.9292 152.62 41.5347 153.189 39.2686H150.784Z" fill="white"/>
<path d="M97.7513 38.0118C97.9441 41.1194 100.534 43.1068 104.388 43.1068C108.507 43.1068 111.085 41.023 111.085 37.6986C111.085 35.0849 109.616 33.6395 106.05 32.8084L104.135 32.3386C101.871 31.8086 100.955 31.098 100.955 29.8574C100.955 28.2915 102.377 27.2677 104.509 27.2677C106.532 27.2677 107.929 28.2674 108.182 29.8694H110.808C110.651 26.9425 108.074 24.8828 104.545 24.8828C100.751 24.8828 98.2211 26.9425 98.2211 30.038C98.2211 32.5916 99.6544 34.1092 102.798 34.844L105.039 35.386C107.339 35.928 108.351 36.723 108.351 38.0479C108.351 39.5897 106.761 40.7098 104.593 40.7098C102.268 40.7098 100.654 39.6619 100.425 38.0118H97.7513Z" fill="white"/>
<path d="M71.8691 29.8207C70.1491 29.8207 68.6616 30.6806 67.8947 32.1216H67.7087V30.0298H65.3031V46.892H67.8017V40.7677H67.9992C68.6616 42.1042 70.091 42.8944 71.8923 42.8944C75.0881 42.8944 77.1218 40.3726 77.1218 36.3517C77.1218 32.3308 75.0881 29.8207 71.8691 29.8207ZM71.1602 40.6515C69.0684 40.6515 67.7552 39.0013 67.7552 36.3633C67.7552 33.7137 69.0684 32.0635 71.1718 32.0635C73.2868 32.0635 74.5535 33.6789 74.5535 36.3517C74.5535 39.0362 73.2868 40.6515 71.1602 40.6515Z" fill="white"/>
<path d="M85.8646 29.8207C84.1447 29.8207 82.6572 30.6806 81.8902 32.1216H81.7042V30.0298H79.2987V46.892H81.7972V40.7677H81.9948C82.6572 42.1042 84.0866 42.8944 85.8878 42.8944C89.0836 42.8944 91.1173 40.3726 91.1173 36.3517C91.1173 32.3308 89.0836 29.8207 85.8646 29.8207ZM85.1557 40.6515C83.0639 40.6515 81.7507 39.0013 81.7507 36.3633C81.7507 33.7137 83.0639 32.0635 85.1673 32.0635C87.2824 32.0635 88.5491 33.6789 88.5491 36.3517C88.5491 39.0362 87.2824 40.6515 85.1557 40.6515Z" fill="white"/>
<path d="M60.8203 42.6852H63.687L57.4116 25.3044H54.5088L48.2334 42.6852H51.0037L52.6057 38.072H59.2304L60.8203 42.6852ZM55.8217 28.4602H56.0265L58.5439 35.8076H53.2923L55.8217 28.4602Z" fill="white"/>
<path d="M49.9115 12.1958V20.5804H52.9388C55.4373 20.5804 56.8842 19.0406 56.8842 16.3619C56.8842 13.7239 55.4257 12.1958 52.9388 12.1958H49.9115ZM51.2131 13.3811H52.7935C54.5309 13.3811 55.5594 14.4851 55.5594 16.3793C55.5594 18.3026 54.5483 19.395 52.7935 19.395H51.2131V13.3811Z" fill="white"/>
<path d="M61.3153 20.7024C63.163 20.7024 64.2961 19.4647 64.2961 17.4136C64.2961 15.3741 63.1572 14.1307 61.3153 14.1307C59.4675 14.1307 58.3287 15.3741 58.3287 17.4136C58.3287 19.4647 59.4617 20.7024 61.3153 20.7024ZM61.3153 19.5926C60.2287 19.5926 59.6186 18.7965 59.6186 17.4136C59.6186 16.0423 60.2287 15.2405 61.3153 15.2405C62.396 15.2405 63.012 16.0423 63.012 17.4136C63.012 18.7907 62.396 19.5926 61.3153 19.5926Z" fill="white"/>
<path d="M73.9451 14.2527H72.6958L71.5686 19.0813H71.4698L70.1682 14.2527H68.9713L67.6697 19.0813H67.5767L66.4437 14.2527H65.177L66.9201 20.5804H68.2043L69.5058 15.9203H69.6046L70.912 20.5804H72.2077L73.9451 14.2527Z" fill="white"/>
<path d="M75.3838 20.5804H76.633V16.8791C76.633 15.8913 77.2199 15.2753 78.1438 15.2753C79.0677 15.2753 79.5093 15.7809 79.5093 16.7977V20.5804H80.7585V16.4839C80.7585 14.979 79.9799 14.1307 78.568 14.1307C77.615 14.1307 76.9875 14.5548 76.6795 15.2579H76.5866V14.2527H75.3838V20.5804Z" fill="white"/>
<path d="M82.726 20.5804H83.9752V11.7832H82.726V20.5804Z" fill="white"/>
<path d="M88.6737 20.7024C90.5214 20.7024 91.6545 19.4647 91.6545 17.4136C91.6545 15.3741 90.5156 14.1307 88.6737 14.1307C86.8259 14.1307 85.687 15.3741 85.687 17.4136C85.687 19.4647 86.8201 20.7024 88.6737 20.7024ZM88.6737 19.5926C87.5871 19.5926 86.977 18.7965 86.977 17.4136C86.977 16.0423 87.5871 15.2405 88.6737 15.2405C89.7544 15.2405 90.3703 16.0423 90.3703 17.4136C90.3703 18.7907 89.7544 19.5926 88.6737 19.5926Z" fill="white"/>
<path d="M95.3767 19.6333C94.6969 19.6333 94.203 19.3021 94.203 18.7326C94.203 18.1748 94.5981 17.8785 95.4697 17.8204L97.0153 17.7216V18.2503C97.0153 19.0348 96.318 19.6333 95.3767 19.6333ZM95.0571 20.685C95.888 20.685 96.5795 20.3247 96.9572 19.6914H97.0559V20.5804H98.2587V16.2573C98.2587 14.9209 97.3639 14.1307 95.7776 14.1307C94.3424 14.1307 93.3198 14.8279 93.1919 15.9145H94.4005C94.54 15.4671 95.0223 15.2114 95.7195 15.2114C96.5737 15.2114 97.0153 15.5891 97.0153 16.2573V16.8035L95.3012 16.9023C93.7962 16.9953 92.9479 17.6519 92.9479 18.7907C92.9479 19.947 93.8369 20.685 95.0571 20.685Z" fill="white"/>
<path d="M102.498 20.685C103.37 20.685 104.108 20.2724 104.485 19.581H104.584V20.5804H105.781V11.7832H104.532V15.2579H104.439C104.096 14.5606 103.364 14.1481 102.498 14.1481C100.9 14.1481 99.8717 15.4148 99.8717 17.4136C99.8717 19.4183 100.889 20.685 102.498 20.685ZM102.853 15.2695C103.898 15.2695 104.555 16.1004 104.555 17.4194C104.555 18.7442 103.904 19.5635 102.853 19.5635C101.795 19.5635 101.162 18.7559 101.162 17.4136C101.162 16.083 101.801 15.2695 102.853 15.2695Z" fill="white"/>
<path d="M113.882 20.7024C115.73 20.7024 116.863 19.4647 116.863 17.4136C116.863 15.3741 115.724 14.1307 113.882 14.1307C112.034 14.1307 110.896 15.3741 110.896 17.4136C110.896 19.4647 112.029 20.7024 113.882 20.7024ZM113.882 19.5926C112.796 19.5926 112.185 18.7965 112.185 17.4136C112.185 16.0423 112.796 15.2405 113.882 15.2405C114.963 15.2405 115.579 16.0423 115.579 17.4136C115.579 18.7907 114.963 19.5926 113.882 19.5926Z" fill="white"/>
<path d="M118.517 20.5804H119.766V16.8791C119.766 15.8913 120.353 15.2753 121.277 15.2753C122.201 15.2753 122.642 15.7809 122.642 16.7977V20.5804H123.891V16.4839C123.891 14.979 123.113 14.1307 121.701 14.1307C120.748 14.1307 120.12 14.5548 119.812 15.2579H119.719V14.2527H118.517V20.5804Z" fill="white"/>
<path d="M129.645 12.678V14.2817H128.64V15.3334H129.645V18.9069C129.645 20.1272 130.197 20.6152 131.586 20.6152C131.83 20.6152 132.062 20.5862 132.266 20.5513V19.5112C132.091 19.5287 131.981 19.5403 131.789 19.5403C131.167 19.5403 130.894 19.2498 130.894 18.5874V15.3334H132.266V14.2817H130.894V12.678H129.645Z" fill="white"/>
<path d="M133.942 20.5804H135.192V16.8849C135.192 15.9261 135.761 15.2812 136.784 15.2812C137.667 15.2812 138.138 15.7925 138.138 16.8035V20.5804H139.387V16.4956C139.387 14.9906 138.556 14.1365 137.208 14.1365C136.255 14.1365 135.587 14.5606 135.279 15.2695H135.18V11.7832H133.942V20.5804Z" fill="white"/>
<path d="M143.894 15.194C144.817 15.194 145.422 15.839 145.451 16.8326H142.255C142.325 15.8448 142.97 15.194 143.894 15.194ZM145.445 18.8721C145.213 19.366 144.695 19.6391 143.94 19.6391C142.941 19.6391 142.296 18.936 142.255 17.8262V17.7564H146.723V17.3207C146.723 15.3334 145.66 14.1307 143.899 14.1307C142.116 14.1307 140.983 15.4148 140.983 17.4369C140.983 19.4589 142.092 20.7024 143.905 20.7024C145.352 20.7024 146.363 20.0051 146.648 18.8721H145.445Z" fill="white"/>
<path d="M34.6767 28.4215C34.707 26.0681 35.9709 23.8413 37.9759 22.6086C36.711 20.8022 34.5924 19.6568 32.3882 19.5879C30.0373 19.3411 27.7582 20.9946 26.5602 20.9946C25.339 20.9946 23.4945 19.6124 21.5083 19.6532C18.9193 19.7369 16.5058 21.2088 15.2462 23.4722C12.5386 28.16 14.5582 35.0495 17.1519 38.8387C18.4495 40.6942 19.9661 42.7669 21.9506 42.6934C23.8924 42.6128 24.6177 41.4551 26.9617 41.4551C29.284 41.4551 29.9644 42.6934 31.9891 42.6466C34.0729 42.6128 35.3857 40.7829 36.6378 38.9098C37.5702 37.5877 38.2877 36.1265 38.7636 34.5803C36.3149 33.5446 34.6795 31.0803 34.6767 28.4215Z" fill="white"/>
<path d="M30.8524 17.0959C31.9885 15.732 32.5482 13.9789 32.4127 12.209C30.6769 12.3913 29.0736 13.2209 27.9221 14.5324C26.7961 15.8139 26.2101 17.5361 26.3209 19.2384C28.0573 19.2563 29.7643 18.4492 30.8524 17.0959Z" fill="white"/>
<rect x="0.5" y="0.5" width="167" height="55" rx="6.5" stroke="#A6A6A6"/>
</svg>
