<svg width="206" height="26" viewBox="0 0 206 26" fill="none" xmlns="http://www.w3.org/2000/svg">
    <path d="M12.0185 25.0239C5.23 25.0239 0.5 19.563 0.5 12.7646C0.5 5.96628 5.23 0.5 12.0185 0.5H22.3208V6.86847H12.0185C8.54449 6.86847 6.60564 9.49548 6.60564 12.7646C6.60564 16.0338 8.52953 18.6555 12.0185 18.6555H22.3208V25.0239H12.0185Z"
          fill="#FAFAFA"/>
    <path d="M79.2204 19.632C80.0279 19.632 80.3518 19.287 80.3518 18.5122L80.3768 6.0512H85.8594V18.5706C85.8594 22.9595 83.472 25.3265 79.2304 25.3265C75.4723 25.3265 72.8456 22.9595 72.8456 18.5706V12.4197C72.8456 11.7298 72.6812 11.0823 71.7541 11.0823C70.8819 11.0823 70.7573 11.7298 70.7573 12.4197V25.0239H65.2248V12.287C65.2248 7.51064 68.0658 5.38782 71.7042 5.38782C75.0586 5.38782 78.1289 7.46818 78.1289 12.287V18.5122C78.1289 19.287 78.413 19.632 79.2204 19.632Z"
          fill="#FAFAFA"/>
    <path fill-rule="evenodd" clip-rule="evenodd"
          d="M42.5866 25.0239H24.7481V6.0512H42.5866V25.0239ZM37.9612 15.519C37.9612 12.9345 36.3464 11.1301 33.6798 11.1301C30.9684 11.1301 29.3535 12.9398 29.3535 15.519C29.3535 18.0982 31.0133 19.9079 33.6798 19.9079C36.3464 19.9079 37.9612 18.1035 37.9612 15.519Z"
          fill="#FAFAFA"/>
    <path d="M53.8409 6.0512H44.9939V25.0239H50.3669V15.328C50.3669 12.7063 51.8622 11.1991 53.9206 11.1991C56.1037 11.1991 57.4395 12.7063 57.4395 15.328V25.008H62.8125V16.2036C62.8125 10.8966 60.5895 6.0512 53.8409 6.0512Z"
          fill="#FAFAFA"/>
    <path fill-rule="evenodd" clip-rule="evenodd"
          d="M173.536 5.66379C167.919 5.66379 164.041 9.66532 164.041 15.5137C164.041 21.3621 167.919 25.3689 173.536 25.3689C179.154 25.3689 183.006 21.3674 183.006 15.5137C183.006 9.66001 179.169 5.66379 173.536 5.66379ZM173.536 19.9026C172.723 19.8943 171.93 19.6297 171.257 19.1424C170.585 18.6551 170.063 17.9667 169.757 17.1641C169.451 16.3614 169.375 15.4803 169.538 14.6317C169.702 13.7832 170.098 13.0051 170.676 12.3956C171.254 11.786 171.988 11.3722 172.787 11.2062C173.585 11.0403 174.412 11.1297 175.163 11.4631C175.914 11.7965 176.555 12.359 177.006 13.0798C177.457 13.8006 177.698 14.6475 177.698 15.5137C177.717 16.0992 177.622 16.6825 177.419 17.227C177.217 17.7715 176.91 18.2655 176.519 18.6777C176.128 19.0899 175.661 19.4116 175.148 19.6224C174.635 19.8332 174.086 19.9286 173.536 19.9026Z"
          fill="#FAFAFA"/>
    <path fill-rule="evenodd" clip-rule="evenodd"
          d="M87.6487 15.4978C87.6487 9.64938 91.5064 5.64786 97.1187 5.64786C102.781 5.64786 106.658 9.66 106.539 15.4978V17.1376H92.902C93.4703 18.9951 95.0652 19.8867 97.1187 19.8867H106.539V25.008H97.1187C91.5314 25.008 87.6487 21.3461 87.6487 15.4978ZM101.106 13.2051C100.448 11.4697 98.9778 10.5516 97.1187 10.5516C95.2346 10.5516 93.7344 11.4538 93.0615 13.2051H101.106Z"
          fill="#FAFAFA"/>
    <path d="M200.002 6.0512V18.5122C200.002 19.9345 198.672 20.0194 198.427 18.5122L196.568 6.07774H184.89V25.0505H190.428V12.4197C190.428 11.0823 191.719 10.87 191.923 12.4197L193.702 25.0239H205.5V6.0512H200.002Z"
          fill="#FAFAFA"/>
    <path d="M120.286 11.7932C119.571 11.1518 118.663 10.8086 117.728 10.8276C115.142 10.8276 113.447 12.7699 113.447 15.519C113.447 18.2681 115.142 20.2051 117.728 20.2051C118.664 20.2335 119.577 19.8944 120.293 19.2523C121.009 18.6103 121.478 17.7103 121.611 16.7237H126.864C126.5 21.7973 122.498 25.3689 117.728 25.3689C112.141 25.3689 108.258 21.4151 108.258 15.519C108.258 9.62285 112.156 5.66379 117.728 5.66379C122.498 5.66379 126.461 9.2779 126.864 14.3143H121.611C121.471 13.3306 121 12.4347 120.286 11.7932Z"
          fill="#FAFAFA"/>
    <path d="M134.017 0.5H128.639V25.0239H139.469V19.5205H134.017V11.5599H139.469V6.05118H134.017V0.5Z" fill="#FAFAFA"/>
    <path d="M152.239 25.0239C145.45 25.0239 140.725 19.563 140.725 12.7646C140.725 5.96628 145.45 0.5 152.239 0.5H162.546V6.86847H152.239C148.75 6.86847 146.826 9.49548 146.826 12.7646C146.826 16.0338 148.75 18.6555 152.239 18.6555H162.546V25.0239H152.239Z"
          fill="#FAFAFA"/>
</svg>
