<svg width="96" height="96" viewBox="0 0 96 96" fill="none" xmlns="http://www.w3.org/2000/svg">
<path fill-rule="evenodd" clip-rule="evenodd" d="M48 96C74.5097 96 96 74.5097 96 48C96 21.4903 74.5097 0 48 0C21.4903 0 0 21.4903 0 48C0 74.5097 21.4903 96 48 96ZM66.7134 30.4105C66.7437 30.4229 66.7686 30.4457 66.7836 30.4748C72.8818 39.4408 75.8937 49.5547 74.7674 61.1981C74.7652 61.2226 74.7578 61.2463 74.7457 61.2677C74.7335 61.2891 74.717 61.3077 74.6971 61.3222C70.6156 64.3451 66.0481 66.6491 61.1914 68.1352C61.157 68.1458 61.1203 68.1452 61.0863 68.1337C61.0523 68.1221 61.0228 68.1002 61.0019 68.071C59.9747 66.646 59.0534 65.1477 58.2455 63.5879C58.2344 63.5664 58.228 63.5427 58.2267 63.5185C58.2253 63.4943 58.2291 63.4701 58.2378 63.4475C58.2465 63.4249 58.2598 63.4043 58.277 63.3872C58.2941 63.3701 58.3147 63.3568 58.3374 63.3481C59.7961 62.7997 61.2059 62.1291 62.5518 61.3433C62.5761 61.3288 62.5966 61.3084 62.6112 61.2841C62.6259 61.2597 62.6343 61.2322 62.6358 61.2038C62.6373 61.1754 62.6317 61.1471 62.6197 61.1214C62.6076 61.0956 62.5894 61.0733 62.5666 61.0563C62.2815 60.8442 61.9983 60.6215 61.728 60.3987C61.7036 60.3788 61.674 60.3662 61.6427 60.3624C61.6115 60.3586 61.5797 60.3638 61.5513 60.3773C52.8185 64.4105 43.2508 64.4105 34.4134 60.3773C34.385 60.3646 34.3537 60.3601 34.3228 60.3642C34.292 60.3684 34.263 60.381 34.2389 60.4008C33.9687 60.6236 33.6854 60.8442 33.4024 61.0563C33.3798 61.0735 33.3617 61.096 33.3498 61.1218C33.338 61.1476 33.3326 61.176 33.3343 61.2043C33.336 61.2327 33.3446 61.2602 33.3595 61.2845C33.3743 61.3087 33.3949 61.3289 33.4194 61.3433C34.7683 62.1225 36.1768 62.7936 37.6318 63.3503C37.6544 63.3586 37.6751 63.3716 37.6923 63.3884C37.7096 63.4053 37.7231 63.4256 37.732 63.4481C37.7408 63.4705 37.7448 63.4946 37.7436 63.5187C37.7425 63.5428 37.7363 63.5664 37.7254 63.5879C36.9307 65.1564 36.0081 66.6566 34.9668 68.0734C34.9454 68.1019 34.9157 68.1231 34.8819 68.1342C34.848 68.1453 34.8115 68.1458 34.7774 68.1355C29.9293 66.6444 25.3698 64.3405 21.2934 61.3222C21.2738 61.307 21.2575 61.2879 21.2455 61.2662C21.2334 61.2445 21.2258 61.2206 21.2232 61.1959C20.2824 51.1247 22.2001 40.9272 29.2008 30.4727C29.2179 30.445 29.2432 30.4233 29.2731 30.4106C32.7738 28.8029 36.4687 27.6573 40.2649 27.0028C40.2994 26.9974 40.3346 27.0025 40.3661 27.0174C40.3977 27.0323 40.424 27.0563 40.4416 27.0864C40.9563 27.9968 41.4203 28.935 41.8316 29.8966C45.9232 29.2755 50.0852 29.2755 54.1769 29.8966C54.5854 28.9374 55.0421 27.9995 55.5452 27.0864C55.5621 27.0556 55.5883 27.031 55.62 27.016C55.6517 27.001 55.6873 26.9964 55.7218 27.0028C59.5176 27.6587 63.2123 28.8042 66.7134 30.4105ZM34.1921 49.6233C34.1921 52.6219 36.3844 55.0636 39.0451 55.0636C41.7482 55.0636 43.8981 52.6219 43.8981 49.6231C43.9406 46.6458 41.7695 44.1828 39.0451 44.1828C36.3419 44.1828 34.1921 46.6246 34.1921 49.6233ZM52.1353 49.6233C52.1353 52.6219 54.3277 55.0636 56.9883 55.0636C59.7128 55.0636 61.8413 52.6219 61.8413 49.6231C61.8838 46.6458 59.7128 44.1828 56.9883 44.1828C54.2851 44.1828 52.1353 46.6246 52.1353 49.6233Z" fill="#5A68EA"/>
</svg>
