<svg width="40" height="40" viewBox="0 0 40 40" fill="none" xmlns="http://www.w3.org/2000/svg">
    <path d="M20 0C8.9543 0 0 8.9543 0 20C0 31.0457 8.9543 40 20 40C31.0457 40 40 31.0457 40 20C40 8.9543 31.0457 0 20 0ZM26.1138 11.9866C26.1138 11.9866 24.0674 11.8253 23.2612 12.123C21.9287 12.6152 21.897 13.7662 21.897 14.8639V17.1056H25.9711L25.3758 21.3937H21.897V31.9791H17.2954V21.3937H13.4696V17.1056H17.2957V13.4687C17.2957 9.61781 20.2599 8.22258 22.0272 8.05516C23.7944 7.88773 26.1138 8.39 26.1138 8.39V11.9866Z" fill="url(#paint0_linear)"/>
    <defs>
        <linearGradient id="paint0_linear" x1="20.0028" y1="40" x2="20.0028" y2="-8.38825e-09" gradientUnits="userSpaceOnUse">
            <stop stop-color="#2961D8"/>
            <stop offset="1" stop-color="#52ACF8"/>
        </linearGradient>
    </defs>
</svg>
