<svg viewBox="0 0 172 16" fill="none" xmlns="http://www.w3.org/2000/svg">
    <path d="M27.4011 4.1618C28.0456 5.27309 28.3981 6.51785 28.4282 7.7887L28.4251 7.78572C28.4413 8.62166 28.3295 9.45536 28.0941 10.2604C27.7244 11.5227 26.8093 12.989 25.7944 13.8447C23.3768 15.8805 21.6138 15.998 18.4098 15.998C18.3155 15.998 18.2232 15.9985 18.1326 15.999C17.1617 16.0042 16.4045 16.0084 15.8435 15.38C15.3315 14.8076 15.1429 13.8008 15.6764 13.058C16.1762 12.3608 16.8186 12.1994 17.9943 12.214L18.0172 12.2145C18.5877 12.225 19.8842 12.2489 20.4119 12.214C22.6556 12.0566 24.4151 10.3067 24.4944 8.15416C24.4882 6.64822 23.8214 5.54301 23.055 4.8869C21.6682 3.7008 20.0817 3.75927 18.6933 3.81044C17.3343 3.86052 16.1651 3.90361 15.5584 2.76596C14.8578 1.43906 15.8819 0.128347 17.1573 0.0344002C18.1661 -0.0389968 20.9087 -0.000830013 21.8562 0.206118C24.2752 0.747754 26.2391 2.1436 27.4011 4.1618Z"
          fill="url(#paint0_linear)"/>
    <path d="M6.57419 0.206214C4.15363 0.74785 2.19004 2.1437 1.0327 4.16176C0.386522 5.27269 0.0324466 6.51753 0.00104638 7.7888C-0.0121977 8.62379 0.100343 9.45628 0.335194 10.2605C0.704661 11.5228 1.6198 12.9891 2.63446 13.8448C5.05186 15.8806 6.8147 15.9981 10.0185 15.9981C10.1129 15.9981 10.2054 15.9986 10.296 15.9991C11.268 16.0043 12.0237 16.0084 12.5846 15.3801C13.098 14.8077 13.2851 13.8009 12.7517 13.0581C12.252 12.3609 11.6096 12.1995 10.4355 12.2141C10.2091 12.217 9.99997 12.22 9.80605 12.2229C8.99412 12.2347 8.44847 12.2427 8.01665 12.2141C5.77326 12.0567 4.01375 10.3068 3.93449 8.15426C3.9406 6.64832 4.60734 5.5431 5.37386 4.887C6.76054 3.7009 8.34687 3.75937 9.73519 3.81053C11.094 3.86061 12.2632 3.9037 12.8698 2.76606C13.5703 1.43916 12.5464 0.128443 11.271 0.0344962C10.2624 -0.0389008 7.51999 -0.000734041 6.57419 0.206214Z"
          fill="url(#paint1_linear)"/>
    <path d="M47.6908 5.05449C47.5753 4.62637 47.4166 4.2328 47.2143 3.87372C47.0122 3.51465 46.7523 3.20392 46.4347 2.94154C46.1171 2.67914 45.7416 2.4789 45.3083 2.34081C44.8896 2.18888 44.3987 2.11294 43.8356 2.11294C43.0126 2.11294 42.2977 2.27174 41.6913 2.58939C41.0992 2.90703 40.6156 3.33513 40.2401 3.87372C39.8647 4.39848 39.583 4.99923 39.3956 5.67594C39.2222 6.35261 39.1357 7.04313 39.1357 7.74744C39.1357 8.45176 39.2222 9.14226 39.3956 9.81895C39.583 10.4956 39.8647 11.1033 40.2401 11.6419C40.6156 12.1667 41.0992 12.5879 41.6913 12.9055C42.2977 13.2231 43.0126 13.382 43.8356 13.382C44.442 13.382 44.9762 13.2853 45.4384 13.0919C45.9004 12.8848 46.2975 12.6086 46.6296 12.2633C46.9618 11.9043 47.2217 11.49 47.4094 11.0204C47.597 10.5509 47.7198 10.0468 47.7776 9.50822H50.42C50.3622 10.3921 50.1601 11.1999 49.8134 11.9319C49.4812 12.6638 49.0264 13.2991 48.449 13.8377C47.8714 14.3625 47.1927 14.7699 46.413 15.0598C45.6333 15.3498 44.7742 15.4949 43.8356 15.4949C42.6804 15.4949 41.6408 15.2946 40.7167 14.8941C39.8071 14.4799 39.0346 13.9205 38.3992 13.2162C37.7638 12.5119 37.273 11.6902 36.9263 10.7511C36.5941 9.81204 36.4282 8.81083 36.4282 7.74744C36.4282 6.69789 36.5941 5.70353 36.9263 4.76448C37.273 3.82539 37.7638 3.0037 38.3992 2.29937C39.0346 1.59507 39.8071 1.03576 40.7167 0.621447C41.6408 0.207155 42.6804 0 43.8356 0C44.7019 0 45.5177 0.117384 46.283 0.352153C47.0484 0.573115 47.7198 0.904549 48.2974 1.34649C48.8895 1.77459 49.3659 2.29937 49.7268 2.92084C50.0876 3.54228 50.3117 4.2535 50.3983 5.05449H47.6908ZM57.6037 15.4327C56.7086 15.4327 55.9071 15.2946 55.1995 15.0185C54.5065 14.7284 53.9146 14.3348 53.4234 13.8377C52.947 13.3405 52.5788 12.7467 52.3189 12.0562C52.0737 11.3657 51.9507 10.6061 51.9507 9.77753C51.9507 8.96272 52.0737 8.2101 52.3189 7.51958C52.5788 6.82906 52.947 6.23525 53.4234 5.73808C53.9146 5.24093 54.5065 4.85425 55.1995 4.57804C55.9071 4.28803 56.7086 4.14301 57.6037 4.14301C58.499 4.14301 59.2931 4.28803 59.9862 4.57804C60.6939 4.85425 61.286 5.24093 61.7625 5.73808C62.2533 6.23525 62.6216 6.82906 62.8672 7.51958C63.1269 8.2101 63.2569 8.96272 63.2569 9.77753C63.2569 10.6061 63.1269 11.3657 62.8672 12.0562C62.6216 12.7467 62.2533 13.3405 61.7625 13.8377C61.286 14.3348 60.6939 14.7284 59.9862 15.0185C59.2931 15.2946 58.499 15.4327 57.6037 15.4327ZM57.6037 13.5684C58.1525 13.5684 58.6289 13.4579 59.0331 13.2369C59.4376 13.016 59.7698 12.726 60.0295 12.3669C60.2894 12.0078 60.4772 11.6074 60.5928 11.1654C60.7228 10.7097 60.7879 10.2471 60.7879 9.77753C60.7879 9.32178 60.7228 8.86605 60.5928 8.41032C60.4772 7.95459 60.2894 7.55409 60.0295 7.20885C59.7698 6.84978 59.4376 6.55977 59.0331 6.33882C58.6289 6.11786 58.1525 6.00737 57.6037 6.00737C57.0551 6.00737 56.5787 6.11786 56.1741 6.33882C55.77 6.55977 55.4378 6.84978 55.1779 7.20885C54.918 7.55409 54.723 7.95459 54.5931 8.41032C54.4777 8.86605 54.4198 9.32178 54.4198 9.77753C54.4198 10.2471 54.4777 10.7097 54.5931 11.1654C54.723 11.6074 54.918 12.0078 55.1779 12.3669C55.4378 12.726 55.77 13.016 56.1741 13.2369C56.5787 13.4579 57.0551 13.5684 57.6037 13.5684ZM65.2444 4.43303H67.5836V6.00737L67.6269 6.04881C68.0024 5.45498 68.4932 4.99233 69.0998 4.6609C69.7062 4.31566 70.3776 4.14301 71.1141 4.14301C72.3416 4.14301 73.3089 4.44683 74.0164 5.05449C74.7241 5.66213 75.0776 6.57359 75.0776 7.78888V15.1428H72.6085V8.41032C72.5797 7.56793 72.3919 6.96027 72.0454 6.5874C71.6987 6.20072 71.1574 6.00737 70.4209 6.00737C70.0023 6.00737 69.6269 6.08332 69.2947 6.23525C68.9627 6.37333 68.6812 6.57359 68.4499 6.83598C68.219 7.08457 68.0384 7.38149 67.9086 7.72674C67.7785 8.07198 67.7135 8.43795 67.7135 8.82463V15.1428H65.2444V4.43303ZM77.6166 4.43303H79.9558V6.00737L79.9991 6.04881C80.3746 5.45498 80.8654 4.99233 81.4718 4.6609C82.0784 4.31566 82.7498 4.14301 83.4863 4.14301C84.7134 4.14301 85.6811 4.44683 86.3884 5.05449C87.0959 5.66213 87.4498 6.57359 87.4498 7.78888V15.1428H84.9807V8.41032C84.9517 7.56793 84.7641 6.96027 84.4176 6.5874C84.0709 6.20072 83.5295 6.00737 82.7931 6.00737C82.3743 6.00737 81.9991 6.08332 81.6669 6.23525C81.3347 6.37333 81.0531 6.57359 80.8221 6.83598C80.5912 7.08457 80.4106 7.38149 80.2807 7.72674C80.1507 8.07198 80.0857 8.43795 80.0857 8.82463V15.1428H77.6166V4.43303ZM97.6775 8.84535C97.6487 8.47248 97.5621 8.1134 97.4175 7.76816C97.2875 7.42292 97.0999 7.12599 96.8544 6.87741C96.6235 6.61503 96.3346 6.40788 95.9879 6.25597C95.6561 6.09023 95.2807 6.00737 94.8617 6.00737C94.4287 6.00737 94.0316 6.08332 93.6705 6.23525C93.324 6.37333 93.0208 6.57359 92.7609 6.83598C92.5156 7.08457 92.3133 7.38149 92.1545 7.72674C92.0101 8.07198 91.9308 8.44485 91.9161 8.84535H97.6775ZM91.9161 10.399C91.9161 10.8133 91.9741 11.2138 92.0894 11.6005C92.2193 11.9871 92.4073 12.3255 92.6526 12.6155C92.8982 12.9055 93.2086 13.1403 93.5839 13.3198C93.9594 13.4855 94.4069 13.5684 94.9267 13.5684C95.6489 13.5684 96.2263 13.4234 96.6594 13.1334C97.1073 12.8296 97.4391 12.3807 97.6557 11.7869H99.9949C99.8651 12.3669 99.6414 12.8848 99.3235 13.3405C99.006 13.7962 98.6235 14.1829 98.1755 14.5005C97.728 14.8044 97.2227 15.0322 96.6594 15.1841C96.1109 15.3498 95.5331 15.4327 94.9267 15.4327C94.0461 15.4327 93.2664 15.2946 92.5875 15.0185C91.909 14.7421 91.3313 14.3556 90.8549 13.8584C90.393 13.3612 90.0391 12.7674 89.7935 12.0769C89.5626 11.3864 89.447 10.6268 89.447 9.79823C89.447 9.0387 89.5698 8.32055 89.8153 7.64388C90.0752 6.95336 90.4363 6.35261 90.8982 5.84166C91.3747 5.31687 91.9451 4.90256 92.6093 4.59874C93.2736 4.29494 94.0244 4.14301 94.8617 4.14301C95.7427 4.14301 96.5295 4.32254 97.2227 4.68162C97.9303 5.02686 98.5152 5.4895 98.977 6.06953C99.4391 6.64954 99.7713 7.31934 99.9732 8.07889C100.19 8.82463 100.248 9.59801 100.147 10.399H91.9161ZM109.518 8.01675C109.417 7.35386 109.135 6.85669 108.673 6.52526C108.225 6.18002 107.655 6.00737 106.962 6.00737C106.644 6.00737 106.305 6.06262 105.944 6.17309C105.583 6.26975 105.251 6.4631 104.948 6.75312C104.645 7.02932 104.392 7.42291 104.19 7.93387C103.987 8.43104 103.887 9.08702 103.887 9.90181C103.887 10.3438 103.937 10.7856 104.038 11.2276C104.154 11.6695 104.327 12.0631 104.558 12.4083C104.803 12.7536 105.114 13.0367 105.489 13.2577C105.865 13.4648 106.319 13.5684 106.854 13.5684C107.576 13.5684 108.168 13.3543 108.63 12.9262C109.106 12.4981 109.402 11.8974 109.518 11.124H111.987C111.756 12.5188 111.2 13.5891 110.319 14.3348C109.453 15.0668 108.298 15.4327 106.854 15.4327C105.973 15.4327 105.193 15.2946 104.515 15.0185C103.85 14.7284 103.287 14.3417 102.825 13.8584C102.363 13.3612 102.009 12.7743 101.764 12.0976C101.533 11.4209 101.417 10.689 101.417 9.90181C101.417 9.10084 101.533 8.34818 101.764 7.64388C101.995 6.93955 102.341 6.33191 102.804 5.82094C103.265 5.29615 103.836 4.88876 104.515 4.59874C105.208 4.29494 106.016 4.14301 106.94 4.14301C107.59 4.14301 108.204 4.22587 108.781 4.39161C109.373 4.54352 109.893 4.77827 110.341 5.09591C110.803 5.41356 111.178 5.81402 111.467 6.29739C111.756 6.78075 111.929 7.35386 111.987 8.01675H109.518ZM112.803 4.43303H114.665V1.22219H117.134V4.43303H119.365V6.19381H117.134V11.9112C117.134 12.1598 117.142 12.3738 117.156 12.5534C117.185 12.7329 117.236 12.8848 117.308 13.0091C117.394 13.1334 117.517 13.23 117.676 13.2991C117.835 13.3543 118.051 13.382 118.326 13.382C118.499 13.382 118.672 13.382 118.846 13.382C119.019 13.3681 119.192 13.3405 119.365 13.2991V15.1221C119.091 15.1497 118.824 15.1773 118.564 15.2049C118.304 15.2325 118.037 15.2462 117.763 15.2462C117.113 15.2462 116.586 15.191 116.182 15.0805C115.792 14.9564 115.481 14.7837 115.25 14.5627C115.034 14.3279 114.882 14.0379 114.795 13.6927C114.723 13.3474 114.68 12.9538 114.665 12.5119V6.19381H112.803V4.43303ZM121.271 12.3462H124.282V15.1428H121.271V12.3462ZM137.826 5.05449C137.71 4.62637 137.552 4.2328 137.349 3.87372C137.147 3.51465 136.887 3.20392 136.57 2.94154C136.252 2.67914 135.877 2.4789 135.444 2.34081C135.025 2.18888 134.534 2.11294 133.971 2.11294C133.148 2.11294 132.433 2.27174 131.826 2.58939C131.234 2.90703 130.751 3.33513 130.375 3.87372C130 4.39848 129.718 4.99923 129.531 5.67594C129.357 6.35261 129.271 7.04313 129.271 7.74744C129.271 8.45176 129.357 9.14226 129.531 9.81895C129.718 10.4956 130 11.1033 130.375 11.6419C130.751 12.1667 131.234 12.5879 131.826 12.9055C132.433 13.2231 133.148 13.382 133.971 13.382C134.577 13.382 135.111 13.2853 135.573 13.0919C136.036 12.8848 136.432 12.6086 136.765 12.2633C137.097 11.9043 137.357 11.49 137.544 11.0204C137.732 10.5509 137.855 10.0468 137.913 9.50822H140.555C140.497 10.3921 140.295 11.1999 139.949 11.9319C139.616 12.6638 139.161 13.2991 138.584 13.8377C138.007 14.3625 137.328 14.7699 136.548 15.0598C135.768 15.3498 134.909 15.4949 133.971 15.4949C132.815 15.4949 131.776 15.2946 130.852 14.8941C129.942 14.4799 129.17 13.9205 128.534 13.2162C127.899 12.5119 127.408 11.6902 127.061 10.7511C126.729 9.81204 126.563 8.81083 126.563 7.74744C126.563 6.69789 126.729 5.70353 127.061 4.76448C127.408 3.82539 127.899 3.0037 128.534 2.29937C129.17 1.59507 129.942 1.03576 130.852 0.621447C131.776 0.207155 132.815 0 133.971 0C134.837 0 135.653 0.117384 136.418 0.352153C137.183 0.573115 137.855 0.904549 138.432 1.34649C139.025 1.77459 139.501 2.29937 139.862 2.92084C140.223 3.54228 140.447 4.2535 140.533 5.05449H137.826ZM142.671 0.352153H145.14V15.1428H142.671V0.352153ZM157.598 15.1428H155.172V13.6513H155.129C154.826 14.1898 154.371 14.6248 153.765 14.9564C153.172 15.274 152.566 15.4327 151.945 15.4327C150.472 15.4327 149.404 15.0876 148.74 14.397C148.09 13.6927 147.765 12.6362 147.765 11.2276V4.43303H150.234V10.9997C150.234 11.9388 150.422 12.6017 150.797 12.9884C151.173 13.375 151.7 13.5684 152.378 13.5684C152.898 13.5684 153.331 13.4924 153.678 13.3405C154.024 13.1886 154.306 12.9884 154.523 12.7398C154.739 12.4774 154.891 12.1667 154.977 11.8076C155.078 11.4485 155.129 11.0619 155.129 10.6476V4.43303H157.598V15.1428ZM160.202 0.352153H162.671V5.82094H162.715C162.888 5.55856 163.097 5.32379 163.343 5.11663C163.588 4.90948 163.855 4.73685 164.144 4.59874C164.447 4.44683 164.758 4.33634 165.075 4.26731C165.407 4.18445 165.732 4.14301 166.05 4.14301C166.931 4.14301 167.696 4.29494 168.346 4.59874C169.01 4.88876 169.559 5.29615 169.992 5.82094C170.425 6.33191 170.75 6.93264 170.967 7.62316C171.183 8.31366 171.291 9.05249 171.291 9.83967C171.291 10.5578 171.19 11.2552 170.988 11.9319C170.8 12.6086 170.504 13.2093 170.1 13.7341C169.71 14.2451 169.212 14.6593 168.606 14.9769C167.999 15.2809 167.285 15.4327 166.462 15.4327C166.086 15.4327 165.703 15.405 165.314 15.3498C164.938 15.3085 164.577 15.2186 164.231 15.0805C163.884 14.9425 163.566 14.7629 163.278 14.542C163.003 14.321 162.772 14.031 162.585 13.672H162.541V15.1428H160.202V0.352153ZM168.822 9.79823C168.822 9.31487 168.757 8.84535 168.628 8.38962C168.497 7.93387 168.303 7.53339 168.043 7.18813C167.783 6.82906 167.458 6.54596 167.068 6.33882C166.678 6.11786 166.23 6.00737 165.725 6.00737C164.686 6.00737 163.899 6.35261 163.364 7.04313C162.845 7.73365 162.585 8.652 162.585 9.79823C162.585 10.3368 162.65 10.8409 162.78 11.3104C162.924 11.7662 163.133 12.1598 163.408 12.4912C163.682 12.8226 164.007 13.085 164.382 13.2784C164.772 13.4717 165.22 13.5684 165.725 13.5684C166.288 13.5684 166.765 13.4579 167.155 13.2369C167.545 13.016 167.862 12.7329 168.108 12.3876C168.368 12.0286 168.548 11.6281 168.649 11.1861C168.764 10.7304 168.822 10.2678 168.822 9.79823Z"
          fill="#212121"/>
    <defs>
        <linearGradient id="paint0_linear" x1="0" y1="9.55318e-05" x2="0" y2="16" gradientUnits="userSpaceOnUse">
            <stop stop-color="#53BCFF"/>
            <stop offset="1" stop-color="#1CA2F7"/>
        </linearGradient>
        <linearGradient id="paint1_linear" x1="0" y1="9.55318e-05" x2="0" y2="16" gradientUnits="userSpaceOnUse">
            <stop stop-color="#53BCFF"/>
            <stop offset="1" stop-color="#1CA2F7"/>
        </linearGradient>
    </defs>
</svg>
