<svg width="189" height="56" viewBox="0 0 189 56" fill="none" xmlns="http://www.w3.org/2000/svg">
<rect x="0.5" y="0.5" width="188" height="55" rx="4.5" fill="black"/>
<path d="M95.3905 30.4508C92.0977 30.4508 89.4139 32.9554 89.4139 36.405C89.4139 39.8336 92.0977 42.3592 95.3905 42.3592C98.6847 42.3592 101.369 39.8336 101.369 36.405C101.367 32.9554 98.6833 30.4508 95.3905 30.4508ZM95.3905 40.0156C93.5859 40.0156 92.0305 38.5274 92.0305 36.4064C92.0305 34.263 93.5873 32.7972 95.3905 32.7972C97.1951 32.7972 98.7505 34.263 98.7505 36.4064C98.7505 38.526 97.1951 40.0156 95.3905 40.0156ZM82.3509 30.4508C79.0581 30.4508 76.3743 32.9554 76.3743 36.405C76.3743 39.8336 79.0581 42.3592 82.3509 42.3592C85.6451 42.3592 88.3289 39.8336 88.3289 36.405C88.3289 32.9554 85.6451 30.4508 82.3509 30.4508ZM82.3509 40.0156C80.5463 40.0156 78.9909 38.5274 78.9909 36.4064C78.9909 34.263 80.5477 32.7972 82.3509 32.7972C84.1555 32.7972 85.7109 34.263 85.7109 36.4064C85.7123 38.526 84.1555 40.0156 82.3509 40.0156ZM66.8417 32.2792V34.8048H72.8869C72.7063 36.2258 72.2331 37.2632 71.5107 37.9842C70.6315 38.8634 69.2553 39.8336 66.8417 39.8336C63.1205 39.8336 60.2113 36.8334 60.2113 33.1122C60.2113 29.391 63.1205 26.3908 66.8417 26.3908C68.8493 26.3908 70.3151 27.1804 71.3973 28.1954L73.1795 26.4132C71.6675 24.9698 69.6613 23.8652 66.8417 23.8652C61.7443 23.8652 57.4589 28.0148 57.4589 33.1122C57.4589 38.2096 61.7443 42.3592 66.8417 42.3592C69.5927 42.3592 71.6689 41.4562 73.2915 39.765C74.9603 38.0962 75.4797 35.7498 75.4797 33.8556C75.4797 33.2704 75.4349 32.7286 75.3439 32.2778H66.8417V32.2792ZM130.273 34.2406C129.777 32.9106 128.265 30.4508 125.176 30.4508C122.108 30.4508 119.559 32.8644 119.559 36.405C119.559 39.7426 122.086 42.3592 125.468 42.3592C128.197 42.3592 129.776 40.6904 130.431 39.7202L128.401 38.3664C127.725 39.359 126.8 40.0128 125.468 40.0128C124.138 40.0128 123.19 39.4038 122.581 38.2082L130.543 34.9154L130.273 34.2406ZM122.153 36.2258C122.086 33.9242 123.935 32.7524 125.267 32.7524C126.304 32.7524 127.183 33.2718 127.477 34.0152L122.153 36.2258ZM115.681 41.9994H118.296V24.498H115.681V41.9994ZM111.394 31.7822H111.304C110.718 31.0822 109.589 30.4508 108.17 30.4508C105.192 30.4508 102.463 33.0674 102.463 36.4288C102.463 39.7664 105.192 42.3606 108.17 42.3606C109.591 42.3606 110.718 41.7292 111.304 41.0082H111.394V41.865C111.394 44.1428 110.176 45.3608 108.215 45.3608C106.613 45.3608 105.62 44.2114 105.214 43.2412L102.937 44.189C103.59 45.7668 105.326 47.7072 108.215 47.7072C111.282 47.7072 113.876 45.9026 113.876 41.5038V30.8134H111.395V31.7822H111.394ZM108.395 40.0156C106.591 40.0156 105.08 38.5036 105.08 36.4288C105.08 34.3302 106.591 32.7972 108.395 32.7972C110.176 32.7972 111.575 34.3302 111.575 36.4288C111.575 38.5036 110.176 40.0156 108.395 40.0156ZM142.529 24.498H136.269V41.9994H138.88V35.369H142.527C145.422 35.369 148.27 33.2732 148.27 29.9342C148.27 26.5952 145.424 24.498 142.529 24.498ZM142.596 32.933H138.88V26.934H142.596C144.549 26.934 145.658 28.551 145.658 29.9342C145.658 31.2894 144.549 32.933 142.596 32.933ZM158.741 30.42C156.849 30.42 154.891 31.253 154.08 33.0996L156.398 34.067C156.894 33.0996 157.818 32.7832 158.785 32.7832C160.136 32.7832 161.51 33.5938 161.532 35.0344V35.215C161.059 34.9448 160.045 34.5402 158.808 34.5402C156.309 34.5402 153.764 35.9136 153.764 38.4798C153.764 40.822 155.813 42.3298 158.109 42.3298C159.865 42.3298 160.834 41.5416 161.441 40.6176H161.531V41.9686H164.054V35.2584C164.055 32.1532 161.734 30.42 158.741 30.42ZM158.424 40.0114C157.57 40.0114 156.376 39.583 156.376 38.5246C156.376 37.1736 157.863 36.6556 159.147 36.6556C160.293 36.6556 160.835 36.9034 161.532 37.2408C161.329 38.8634 159.933 40.0114 158.424 40.0114ZM173.24 30.8022L170.246 38.3902H170.156L167.048 30.8022H164.234L168.895 41.4072L166.238 47.3068H168.962L176.145 30.8022H173.24ZM149.712 41.9994H152.323V24.498H149.712V41.9994Z" fill="white"/>
<path d="M66.3852 14.3405C66.3852 15.5137 66.038 16.4475 65.3422 17.1447C64.5526 17.9735 63.5222 18.3879 62.2566 18.3879C61.0442 18.3879 60.0124 17.9679 59.1654 17.1279C58.317 16.2865 57.8928 15.2449 57.8928 14.0017C57.8928 12.7571 58.317 11.7155 59.1654 10.8755C60.0124 10.0341 61.0442 9.61406 62.2566 9.61406C62.8586 9.61406 63.434 9.73166 63.98 9.96546C64.5274 10.2007 64.9656 10.5129 65.2932 10.9035L64.5554 11.6427C63.9996 10.9777 63.2338 10.6459 62.2552 10.6459C61.3704 10.6459 60.606 10.9567 59.9606 11.5783C59.3152 12.1999 58.9932 13.0077 58.9932 14.0003C58.9932 14.9929 59.3152 15.8007 59.9606 16.4223C60.606 17.0439 61.3704 17.3547 62.2552 17.3547C63.1932 17.3547 63.9758 17.0425 64.6016 16.4167C65.0076 16.0093 65.2428 15.4423 65.3058 14.7157H62.2552V13.7063H66.325C66.367 13.9261 66.3852 14.1375 66.3852 14.3405Z" fill="white"/>
<path d="M72.8394 10.8321H69.0146V13.4949H72.4642V14.5043H69.0146V17.1671H72.8394V18.2003H67.9352V9.80034H72.8394V10.8321Z" fill="white"/>
<path d="M77.3906 18.2003H76.3112V10.8321H73.9648V9.80034H79.737V10.8321H77.3906V18.2003Z" fill="white"/>
<path d="M83.9131 18.2003V9.80034H84.9925V18.2003H83.9131Z" fill="white"/>
<path d="M89.7794 18.2003H88.7V10.8321H86.3536V9.80034H92.1258V10.8321H89.7794V18.2003Z" fill="white"/>
<path d="M103.052 17.1153C102.226 17.9637 101.2 18.3879 99.9725 18.3879C98.7447 18.3879 97.7185 17.9637 96.8939 17.1153C96.0679 16.2669 95.6562 15.2281 95.6562 14.0003C95.6562 12.7725 96.0679 11.7337 96.8939 10.8853C97.7185 10.0369 98.7447 9.61133 99.9725 9.61133C101.193 9.61133 102.218 10.0383 103.047 10.8909C103.876 11.7435 104.29 12.7795 104.29 14.0003C104.29 15.2281 103.877 16.2669 103.052 17.1153ZM97.6905 16.4111C98.3121 17.0411 99.0723 17.3547 99.9725 17.3547C100.873 17.3547 101.634 17.0397 102.254 16.4111C102.876 15.7811 103.188 14.9775 103.188 14.0003C103.188 13.0231 102.876 12.2195 102.254 11.5895C101.634 10.9595 100.873 10.6459 99.9725 10.6459C99.0723 10.6459 98.3121 10.9609 97.6905 11.5895C97.0703 12.2195 96.7581 13.0231 96.7581 14.0003C96.7581 14.9775 97.0703 15.7811 97.6905 16.4111Z" fill="white"/>
<path d="M105.805 18.2003V9.80034H107.118L111.2 16.3341H111.247L111.2 14.7157V9.80034H112.28V18.2003H111.153L106.881 11.3487H106.835L106.881 12.9671V18.2003H105.805Z" fill="white"/>
<path d="M66.3852 14.3405C66.3852 15.5137 66.038 16.4475 65.3422 17.1447C64.5526 17.9735 63.5222 18.3879 62.2566 18.3879C61.0442 18.3879 60.0124 17.9679 59.1654 17.1279C58.317 16.2865 57.8928 15.2449 57.8928 14.0017C57.8928 12.7571 58.317 11.7155 59.1654 10.8755C60.0124 10.0341 61.0442 9.61406 62.2566 9.61406C62.8586 9.61406 63.434 9.73166 63.98 9.96546C64.5274 10.2007 64.9656 10.5129 65.2932 10.9035L64.5554 11.6427C63.9996 10.9777 63.2338 10.6459 62.2552 10.6459C61.3704 10.6459 60.606 10.9567 59.9606 11.5783C59.3152 12.1999 58.9932 13.0077 58.9932 14.0003C58.9932 14.9929 59.3152 15.8007 59.9606 16.4223C60.606 17.0439 61.3704 17.3547 62.2552 17.3547C63.1932 17.3547 63.9758 17.0425 64.6016 16.4167C65.0076 16.0093 65.2428 15.4423 65.3058 14.7157H62.2552V13.7063H66.325C66.367 13.9261 66.3852 14.1375 66.3852 14.3405Z" stroke="white" stroke-width="0.2" stroke-miterlimit="10"/>
<path d="M72.8394 10.8321H69.0146V13.4949H72.4642V14.5043H69.0146V17.1671H72.8394V18.2003H67.9352V9.80034H72.8394V10.8321Z" stroke="white" stroke-width="0.2" stroke-miterlimit="10"/>
<path d="M77.3906 18.2003H76.3112V10.8321H73.9648V9.80034H79.737V10.8321H77.3906V18.2003Z" stroke="white" stroke-width="0.2" stroke-miterlimit="10"/>
<path d="M83.9131 18.2003V9.80034H84.9925V18.2003H83.9131Z" stroke="white" stroke-width="0.2" stroke-miterlimit="10"/>
<path d="M89.7794 18.2003H88.7V10.8321H86.3536V9.80034H92.1258V10.8321H89.7794V18.2003Z" stroke="white" stroke-width="0.2" stroke-miterlimit="10"/>
<path d="M103.052 17.1153C102.226 17.9637 101.2 18.3879 99.9725 18.3879C98.7447 18.3879 97.7185 17.9637 96.8939 17.1153C96.0679 16.2669 95.6562 15.2281 95.6562 14.0003C95.6562 12.7725 96.0679 11.7337 96.8939 10.8853C97.7185 10.0369 98.7447 9.61133 99.9725 9.61133C101.193 9.61133 102.218 10.0383 103.047 10.8909C103.876 11.7435 104.29 12.7795 104.29 14.0003C104.29 15.2281 103.877 16.2669 103.052 17.1153ZM97.6905 16.4111C98.3121 17.0411 99.0723 17.3547 99.9725 17.3547C100.873 17.3547 101.634 17.0397 102.254 16.4111C102.876 15.7811 103.188 14.9775 103.188 14.0003C103.188 13.0231 102.876 12.2195 102.254 11.5895C101.634 10.9595 100.873 10.6459 99.9725 10.6459C99.0723 10.6459 98.3121 10.9609 97.6905 11.5895C97.0703 12.2195 96.7581 13.0231 96.7581 14.0003C96.7581 14.9775 97.0703 15.7811 97.6905 16.4111Z" stroke="white" stroke-width="0.2" stroke-miterlimit="10"/>
<path d="M105.805 18.2003V9.80034H107.118L111.2 16.3341H111.247L111.2 14.7157V9.80034H112.28V18.2003H111.153L106.881 11.3487H106.835L106.881 12.9671V18.2003H105.805Z" stroke="white" stroke-width="0.2" stroke-miterlimit="10"/>
<g filter="url(#filter0_ii)">
<path d="M14.6104 10.5534C14.203 10.9846 13.9622 11.6538 13.9622 12.5204V43.4828C13.9622 44.3508 14.203 45.0186 14.6104 45.4498L14.714 45.5506L32.0586 28.206V28.0016V27.7972L14.714 10.4512L14.6104 10.5534Z" fill="url(#paint0_linear)"/>
<path d="M37.8391 33.9898L32.0585 28.2064V28.002V27.7976L37.8405 22.0156L37.9707 22.0898L44.8209 25.9818C46.7767 27.0934 46.7767 28.912 44.8209 30.025L37.9707 33.917L37.8391 33.9898Z" fill="url(#paint1_linear)"/>
<g filter="url(#filter1_i)">
<path d="M37.9706 33.9155L32.057 28.002L14.6102 45.4501C15.2542 46.1333 16.3196 46.2173 17.5194 45.5369L37.9706 33.9155Z" fill="url(#paint2_linear)"/>
</g>
<path d="M37.9706 22.0886L17.5194 10.4686C16.3196 9.78675 15.2542 9.87215 14.6102 10.5554L32.0584 28.0036L37.9706 22.0886Z" fill="url(#paint3_linear)"/>
</g>
<rect x="0.5" y="0.5" width="188" height="55" rx="4.5" stroke="#A6A6A6"/>
<defs>
<filter id="filter0_ii" x="13.9622" y="9.99805" width="32.3256" height="36.0089" filterUnits="userSpaceOnUse" color-interpolation-filters="sRGB">
<feFlood flood-opacity="0" result="BackgroundImageFix"/>
<feBlend mode="normal" in="SourceGraphic" in2="BackgroundImageFix" result="shape"/>
<feColorMatrix in="SourceAlpha" type="matrix" values="0 0 0 0 0 0 0 0 0 0 0 0 0 0 0 0 0 0 127 0" result="hardAlpha"/>
<feOffset dy="-0.15"/>
<feComposite in2="hardAlpha" operator="arithmetic" k2="-1" k3="1"/>
<feColorMatrix type="matrix" values="0 0 0 0 0 0 0 0 0 0 0 0 0 0 0 0 0 0 0.12 0"/>
<feBlend mode="normal" in2="shape" result="effect1_innerShadow"/>
<feColorMatrix in="SourceAlpha" type="matrix" values="0 0 0 0 0 0 0 0 0 0 0 0 0 0 0 0 0 0 127 0" result="hardAlpha"/>
<feOffset dy="0.15"/>
<feComposite in2="hardAlpha" operator="arithmetic" k2="-1" k3="1"/>
<feColorMatrix type="matrix" values="0 0 0 0 1 0 0 0 0 1 0 0 0 0 1 0 0 0 0.25 0"/>
<feBlend mode="normal" in2="effect1_innerShadow" result="effect2_innerShadow"/>
</filter>
<filter id="filter1_i" x="14.6102" y="28.002" width="23.3604" height="18.0049" filterUnits="userSpaceOnUse" color-interpolation-filters="sRGB">
<feFlood flood-opacity="0" result="BackgroundImageFix"/>
<feBlend mode="normal" in="SourceGraphic" in2="BackgroundImageFix" result="shape"/>
<feColorMatrix in="SourceAlpha" type="matrix" values="0 0 0 0 0 0 0 0 0 0 0 0 0 0 0 0 0 0 127 0" result="hardAlpha"/>
<feOffset dy="-0.15"/>
<feComposite in2="hardAlpha" operator="arithmetic" k2="-1" k3="1"/>
<feColorMatrix type="matrix" values="0 0 0 0 0 0 0 0 0 0 0 0 0 0 0 0 0 0 0.08 0"/>
<feBlend mode="normal" in2="shape" result="effect1_innerShadow"/>
</filter>
<linearGradient id="paint0_linear" x1="30.5211" y1="12.1928" x2="7.02629" y2="35.6876" gradientUnits="userSpaceOnUse">
<stop stop-color="#00A0FF"/>
<stop offset="0.0066" stop-color="#00A1FF"/>
<stop offset="0.2601" stop-color="#00BEFF"/>
<stop offset="0.5122" stop-color="#00D2FF"/>
<stop offset="0.7604" stop-color="#00DFFF"/>
<stop offset="1" stop-color="#00E3FF"/>
</linearGradient>
<linearGradient id="paint1_linear" x1="47.3668" y1="28.002" x2="13.4925" y2="28.002" gradientUnits="userSpaceOnUse">
<stop stop-color="#FFE000"/>
<stop offset="0.4087" stop-color="#FFBD00"/>
<stop offset="0.7754" stop-color="#FFA500"/>
<stop offset="1" stop-color="#FF9C00"/>
</linearGradient>
<linearGradient id="paint2_linear" x1="34.7592" y1="31.2134" x2="2.89729" y2="63.0753" gradientUnits="userSpaceOnUse">
<stop stop-color="#FF3A44"/>
<stop offset="1" stop-color="#C31162"/>
</linearGradient>
<linearGradient id="paint3_linear" x1="10.2162" y1="0.24827" x2="24.4434" y2="14.4755" gradientUnits="userSpaceOnUse">
<stop stop-color="#32A071"/>
<stop offset="0.0685" stop-color="#2DA771"/>
<stop offset="0.4762" stop-color="#15CF74"/>
<stop offset="0.8009" stop-color="#06E775"/>
<stop offset="1" stop-color="#00F076"/>
</linearGradient>
</defs>
</svg>
