<svg width="40" height="40" viewBox="0 0 40 40" fill="none" xmlns="http://www.w3.org/2000/svg">
    <path d="M20 16.5269C19.3131 16.5269 18.6416 16.7307 18.0705 17.1123C17.4993 17.4939 17.0542 18.0363 16.7913 18.6709C16.5285 19.3055 16.4597 20.0038 16.5937 20.6776C16.7277 21.3512 17.0585 21.9701 17.5442 22.4558C18.0299 22.9415 18.6487 23.2723 19.3224 23.4063C19.9961 23.5403 20.6945 23.4715 21.3291 23.2087C21.9637 22.9458 22.5061 22.5007 22.8877 21.9296C23.2693 21.3584 23.473 20.6869 23.473 20C23.473 19.0789 23.1071 18.1955 22.4558 17.5442C21.8045 16.8929 20.9211 16.5269 20 16.5269Z" fill="url(#paint0_radial)"/>
    <path fill-rule="evenodd" clip-rule="evenodd" d="M24.5904 11.5254H15.4096C14.8995 11.5254 14.3944 11.6259 13.9232 11.8211C13.4519 12.0163 13.0237 12.3024 12.663 12.663C12.3023 13.0238 12.0162 13.4519 11.821 13.9232C11.6258 14.3945 11.5254 14.8995 11.5254 15.4096V24.5905C11.5254 25.6206 11.9346 26.6086 12.663 27.337C13.0237 27.6977 13.4519 27.9838 13.9232 28.1789C14.3944 28.3742 14.8995 28.4747 15.4096 28.4747H24.5904C25.6205 28.4747 26.6085 28.0654 27.3369 27.337C28.0653 26.6085 28.4745 25.6206 28.4745 24.5905V15.4096C28.4745 14.8996 28.3741 14.3945 28.1789 13.9232C27.9837 13.452 27.6976 13.0238 27.3369 12.6631C26.9762 12.3024 26.548 12.0163 26.0768 11.8211C25.6055 11.6259 25.1005 11.5254 24.5904 11.5254ZM20 25.3431C18.9432 25.3431 17.9102 25.0297 17.0316 24.4426C16.1529 23.8555 15.4681 23.021 15.0637 22.0448C14.6593 21.0684 14.5535 19.9941 14.7596 18.9577C14.9658 17.9212 15.4746 16.9691 16.2219 16.2219C16.9691 15.4747 17.9212 14.9658 18.9576 14.7597C19.9941 14.5535 21.0684 14.6593 22.0447 15.0637C23.021 15.4681 23.8555 16.153 24.4426 17.0316C25.0297 17.9102 25.343 18.9433 25.343 20C25.343 20.7017 25.2048 21.3965 24.9363 22.0448C24.6678 22.6929 24.2743 23.282 23.7781 23.7782C23.282 24.2743 22.6929 24.6678 22.0447 24.9364C21.3964 25.2048 20.7017 25.3431 20 25.3431ZM25.5658 15.7484C25.3144 15.7485 25.0686 15.674 24.8595 15.5343C24.6505 15.3946 24.4875 15.1961 24.3913 14.9638C24.2951 14.7315 24.2699 14.4759 24.3189 14.2294C24.368 13.9828 24.489 13.7563 24.6668 13.5785C24.8446 13.4007 25.0711 13.2796 25.3177 13.2306C25.5643 13.1815 25.8199 13.2066 26.0521 13.3029C26.2844 13.3991 26.4829 13.562 26.6226 13.7711C26.7623 13.9801 26.8369 14.2258 26.8369 14.4773C26.8369 14.8145 26.703 15.1377 26.4646 15.3761C26.2262 15.6145 25.9029 15.7484 25.5658 15.7484Z" fill="url(#paint1_radial)"/>
    <path fill-rule="evenodd" clip-rule="evenodd" d="M0 20C0 8.95432 8.9543 0 20 0C31.0457 0 40 8.95432 40 20C40 31.0457 31.0457 40 20 40C8.9543 40 0 31.0457 0 20ZM28.6584 28.6584C29.7841 27.5328 30.4166 26.006 30.4166 24.4141V15.5859C30.4166 13.994 29.7841 12.4672 28.6584 11.3416C27.5328 10.2158 26.006 9.58344 24.4141 9.58336H15.5859C13.994 9.58344 12.4672 10.2158 11.3415 11.3416C10.2158 12.4672 9.58334 13.994 9.58328 15.5859V24.4141C9.58336 26.006 10.2158 27.5328 11.3415 28.6584C12.4672 29.7842 13.994 30.4166 15.5859 30.4166H24.4141C26.006 30.4166 27.5328 29.7842 28.6584 28.6584Z" fill="url(#paint2_radial)"/>
    <defs>
        <radialGradient id="paint0_radial" cx="0" cy="0" r="1" gradientUnits="userSpaceOnUse" gradientTransform="translate(5.97222 40.1389) scale(51.11)">
            <stop stop-color="#FFB140"/>
            <stop offset="0.2559" stop-color="#FF5445"/>
            <stop offset="0.599" stop-color="#FC2B82"/>
            <stop offset="1" stop-color="#8E40B7"/>
        </radialGradient>
        <radialGradient id="paint1_radial" cx="0" cy="0" r="1" gradientUnits="userSpaceOnUse" gradientTransform="translate(5.97222 40.1389) scale(51.11)">
            <stop stop-color="#FFB140"/>
            <stop offset="0.2559" stop-color="#FF5445"/>
            <stop offset="0.599" stop-color="#FC2B82"/>
            <stop offset="1" stop-color="#8E40B7"/>
        </radialGradient>
        <radialGradient id="paint2_radial" cx="0" cy="0" r="1" gradientUnits="userSpaceOnUse" gradientTransform="translate(5.97222 40.1389) scale(51.11)">
            <stop stop-color="#FFB140"/>
            <stop offset="0.2559" stop-color="#FF5445"/>
            <stop offset="0.599" stop-color="#FC2B82"/>
            <stop offset="1" stop-color="#8E40B7"/>
        </radialGradient>
    </defs>
</svg>
