<svg width="180" height="56" viewBox="0 0 180 56" fill="none" xmlns="http://www.w3.org/2000/svg">
    <rect x="0.5" y="0.5" width="179" height="55" rx="6.5" fill="#0C0D10"/>
    <path d="M65.2695 20H66.8633L63.8633 11.5449H62.1582L59.1582 20H60.7168L61.4375 17.8145H64.5488L65.2695 20ZM62.9727 13.0391H63.0137L64.1914 16.6484H61.7891L62.9727 13.0391ZM71.523 13.5254C70.6266 13.5254 69.8531 13.9707 69.5016 14.6738H69.4723V13.5957H68.0484V22.1094H69.5074V18.9395H69.5367C69.9059 19.6543 70.6266 20.0703 71.5465 20.0703C73.1578 20.0703 74.1891 18.8047 74.1891 16.8008C74.1891 14.791 73.152 13.5254 71.523 13.5254ZM71.0953 18.8574C70.1402 18.8574 69.5016 18.0371 69.5016 16.8008C69.5016 15.5703 70.1402 14.7383 71.0953 14.7383C72.0621 14.7383 72.6949 15.5527 72.6949 16.8008C72.6949 18.0547 72.0621 18.8574 71.0953 18.8574ZM79.048 13.5254C78.1516 13.5254 77.3781 13.9707 77.0266 14.6738H76.9973V13.5957H75.5734V22.1094H77.0324V18.9395H77.0617C77.4309 19.6543 78.1516 20.0703 79.0715 20.0703C80.6828 20.0703 81.7141 18.8047 81.7141 16.8008C81.7141 14.791 80.677 13.5254 79.048 13.5254ZM78.6203 18.8574C77.6652 18.8574 77.0266 18.0371 77.0266 16.8008C77.0266 15.5703 77.6652 14.7383 78.6203 14.7383C79.5871 14.7383 80.2199 15.5527 80.2199 16.8008C80.2199 18.0547 79.5871 18.8574 78.6203 18.8574ZM86.5922 20H88.0512V14.7266H89.2465V13.5957H88.0336V13.0859C88.0336 12.582 88.2504 12.3652 88.7719 12.3652C88.9477 12.3652 89.1117 12.3828 89.2406 12.4121V11.3516C89.0238 11.3105 88.7895 11.293 88.5316 11.293C87.1547 11.293 86.5922 11.8086 86.5922 13.0215V13.5957H85.7191V14.7266H86.5922V20ZM93.25 20.0938C95.1484 20.0938 96.3379 18.8398 96.3379 16.7949C96.3379 14.7676 95.1367 13.5078 93.25 13.5078C91.375 13.5078 90.168 14.7734 90.168 16.7949C90.168 18.8398 91.3633 20.0938 93.25 20.0938ZM93.25 18.9277C92.2539 18.9277 91.6504 18.1426 91.6504 16.8008C91.6504 15.4648 92.2539 14.6738 93.25 14.6738C94.252 14.6738 94.8555 15.459 94.8555 16.8008C94.8555 18.1426 94.2578 18.9277 93.25 18.9277ZM97.7164 20H99.1754V16.2852C99.1754 15.3828 99.691 14.8262 100.546 14.8262C100.798 14.8262 101.027 14.8613 101.15 14.9082V13.584C101.039 13.5488 100.875 13.5254 100.681 13.5254C99.9254 13.5254 99.3512 13.959 99.1461 14.709H99.1168V13.5957H97.7164V20Z"
          fill="white"/>
    <path opacity="0.5"
          d="M145.133 31.5C146.34 31.5 147.105 30.8633 147.105 29.875C147.105 29.125 146.5 28.5586 145.738 28.5234V28.4922C146.363 28.4062 146.844 27.9023 146.844 27.2695C146.844 26.3984 146.172 25.8633 145.062 25.8633H142.426V31.5H145.133ZM143.859 26.8789H144.684C145.164 26.8789 145.445 27.1133 145.445 27.5078C145.445 27.9141 145.137 28.1602 144.613 28.1602H143.859V26.8789ZM143.859 30.4844V29.0312H144.719C145.312 29.0312 145.648 29.2891 145.648 29.75C145.648 30.2266 145.316 30.4844 144.727 30.4844H143.859ZM151.97 30.3438H149.541V29.1953H151.826V28.1406H149.541V27.0195H151.97V25.8633H148.107V31.5H151.97V30.3438ZM155.929 31.5V27.0195H157.491V25.8633H152.933V27.0195H154.495V31.5H155.929ZM161.458 31.5H162.981L161.087 25.8633H159.333L157.438 31.5H158.899L159.259 30.2617H161.102L161.458 31.5ZM160.165 27.0586H160.196L160.821 29.2305H159.536L160.165 27.0586Z"
          fill="white"/>
    <path d="M77.3125 26.0898H73.2109L68.4062 38.0781H68.3125L63.5078 26.0898H59.4062V43H62.5586V31.5859H62.6523L67.2461 42.8359H69.4727L74.0664 31.5859H74.1602V43H77.3125V26.0898ZM84.6125 40.6562C83.3703 40.6562 82.5617 40.0586 82.5617 39.1094C82.5617 38.1602 83.3234 37.5977 84.7531 37.5039L87.4602 37.3164V38.2656C87.4602 39.6719 86.1945 40.6562 84.6125 40.6562ZM83.4992 43.1523C85.1516 43.1523 86.7453 42.3555 87.4484 41.0078H87.5187V43H90.8234V34.1523C90.8234 31.5742 88.6555 29.875 85.3391 29.875C82.1164 29.875 79.8898 31.5742 79.7961 34.0352H82.925C83.0891 33.0977 83.9562 32.4414 85.1984 32.4414C86.6047 32.4414 87.4602 33.1211 87.4602 34.3633V35.2188L84.2375 35.418C80.9445 35.6172 79.1516 36.9414 79.1516 39.2852C79.1516 41.5938 81.0148 43.1523 83.4992 43.1523ZM104.592 34.8555C104.428 31.9844 102.213 29.875 98.7445 29.875C94.9125 29.875 92.4516 32.4531 92.4516 36.543C92.4516 40.6914 94.9125 43.2227 98.768 43.2227C102.155 43.2227 104.405 41.3125 104.604 38.3125H101.416C101.194 39.7305 100.245 40.5156 98.8031 40.5156C97.0336 40.5156 95.9203 39.0625 95.9203 36.543C95.9203 34.0703 97.0336 32.5703 98.7914 32.5703C100.28 32.5703 101.217 33.5195 101.405 34.8555H104.592ZM113.99 25.7969C108.974 25.7969 105.834 29.1602 105.834 34.5508C105.834 39.9297 108.974 43.293 113.99 43.293C118.994 43.293 122.146 39.9297 122.146 34.5508C122.146 29.1602 118.994 25.7969 113.99 25.7969ZM113.99 28.75C116.755 28.75 118.525 31 118.525 34.5508C118.525 38.0898 116.755 40.3281 113.99 40.3281C111.213 40.3281 109.443 38.0898 109.443 34.5508C109.443 31 111.224 28.75 113.99 28.75ZM123.598 38.1836C123.704 41.3594 126.294 43.293 130.36 43.293C134.555 43.293 137.216 41.2188 137.216 37.9375C137.216 35.3594 135.739 33.9062 132.352 33.1797L130.302 32.7461C128.356 32.3008 127.536 31.7148 127.536 30.6719C127.536 29.418 128.708 28.5859 130.454 28.5859C132.223 28.5859 133.477 29.4531 133.595 30.8828H136.911C136.852 27.8242 134.38 25.7969 130.442 25.7969C126.669 25.7969 123.973 27.8594 123.973 30.9766C123.973 33.4492 125.509 35.0312 128.626 35.6992L130.829 36.1797C132.868 36.6367 133.677 37.2461 133.677 38.3477C133.677 39.5898 132.387 40.4922 130.501 40.4922C128.626 40.4922 127.173 39.5781 127.009 38.1836H123.598Z"
          fill="white"/>
    <path fill-rule="evenodd" clip-rule="evenodd"
          d="M16 17.7879C16 15.6959 17.6959 14 19.7879 14H42.2121C44.3041 14 46 15.6959 46 17.7879V29.9091C46 32.0011 44.3041 33.697 42.2121 33.697H35.231L35.8707 38.0606H36.7578C37.8456 38.0606 38.7275 38.9424 38.7275 40.0303C38.7275 41.1181 37.8456 42 36.7578 42H25.2426C24.1548 42 23.273 41.1181 23.273 40.0303C23.273 38.9424 24.1548 38.0606 25.2426 38.0606H26.1301L26.7698 33.697H19.7879C17.6959 33.697 16 32.0011 16 29.9091V17.7879ZM35.0089 32.1818L35.0089 32.1818H26.9919L26.9919 32.1818H19.7879C18.5327 32.1818 17.5152 31.1643 17.5152 29.9091V17.7879C17.5152 16.5327 18.5327 15.5152 19.7879 15.5152H42.2121C43.4673 15.5152 44.4848 16.5327 44.4848 17.7879V29.9091C44.4848 31.1643 43.4673 32.1818 42.2121 32.1818H35.0089ZM28.3423 33.697L27.608 38.0606H34.3928L33.6586 33.697H28.3423ZM25.908 39.5757L25.2426 39.5757C24.9916 39.5757 24.7881 39.7792 24.7881 40.0303C24.7881 40.2813 24.9916 40.4848 25.2426 40.4848H36.7578C37.0088 40.4848 37.2123 40.2813 37.2123 40.0303C37.2123 39.7792 37.0088 39.5757 36.7578 39.5757L36.0928 39.5757H25.908Z"
          fill="white"/>
    <rect x="0.5" y="0.5" width="179" height="55" rx="6.5" stroke="#A6A6A6"/>
</svg>
