<?xml version="1.0" encoding="iso-8859-1"?>
<svg xmlns="http://www.w3.org/2000/svg" version="1.1" x="0px" y="0px" viewBox="0 0 512.004 512.004"
     style="enable-background:new 0 0 512.004 512.004;" xml:space="preserve" width="512" height="512">
<g>
	<path d="M405.002,207.566h-86.756v-42.719l54.944-144.511c2.944-7.744-0.946-16.408-8.69-19.352   c-7.746-2.944-16.408,0.947-19.352,8.69l-52.261,137.452h-7.521l-10.096-26.898l37.979-99.892   c2.944-7.743-0.946-16.407-8.689-19.352c-7.743-2.943-16.408,0.946-19.352,8.69l-26.075,68.582L233.061,9.673   c-2.943-7.744-11.607-11.634-19.352-8.69c-7.743,2.944-11.634,11.608-8.689,19.352l48.206,126.79h-27.842L173.123,9.673   c-2.943-7.744-11.605-11.634-19.352-8.69c-7.743,2.944-11.634,11.608-8.689,19.352l54.67,143.789v43.441h-92.75   c-30.327,0-55,24.673-55,55v194.439c0,30.327,24.673,55,55,55h298c30.327,0,55-24.673,55-55V262.566   C460.002,232.238,435.329,207.566,405.002,207.566z M274.977,177.125h13.27v30.001h-58.494v-30.001H274.977z M430.002,457.004   c0,13.785-11.215,25-25,25h-298c-13.785,0-25-11.215-25-25V262.566c0-13.785,11.215-25,25-25h298c13.785,0,25,11.215,25,25V457.004   z"/>
    <path d="M375.501,357.895c7.832-9.081,12.585-20.892,12.585-33.8c0-28.568-23.225-51.81-51.773-51.81   c-28.547,0-51.771,23.242-51.771,51.81c0,12.908,4.753,24.72,12.585,33.8c-18.671,12.62-30.971,33.984-30.971,58.167v16.223   c0,8.284,6.716,15,15,15h110.315c8.284,0,15-6.716,15-15v-16.223C406.472,391.879,394.173,370.515,375.501,357.895z    M314.542,324.095c0-12.026,9.767-21.81,21.771-21.81c12.006,0,21.773,9.784,21.773,21.81c0,12.026-9.767,21.81-21.773,21.81   C324.309,345.904,314.542,336.121,314.542,324.095z M376.472,417.285h-80.315v-1.223c0-22.143,18.015-40.158,40.158-40.158   c22.143,0,40.157,18.015,40.157,40.158V417.285z"/>
    <path d="M230.029,272.285H126.137c-8.284,0-15,6.716-15,15c0,8.284,6.716,15,15,15h103.892c8.284,0,15-6.716,15-15   C245.029,279.001,238.314,272.285,230.029,272.285z"/>
    <path d="M178.083,332.285h-51.946c-8.284,0-15,6.716-15,15c0,8.284,6.716,15,15,15h51.946c8.284,0,15-6.716,15-15   C193.083,339.001,186.367,332.285,178.083,332.285z"/>
    <path d="M178.083,392.285h-51.946c-8.284,0-15,6.716-15,15c0,8.284,6.716,15,15,15h51.946c8.284,0,15-6.716,15-15   C193.083,399.001,186.367,392.285,178.083,392.285z"/>
</g>
</svg>