<svg width="40" height="40" viewBox="0 0 40 40" fill="none" xmlns="http://www.w3.org/2000/svg">
    <path d="M20 0C8.9543 0 0 8.9543 0 20C0 31.0457 8.9543 40 20 40C31.0457 40 40 31.0457 40 20C40 8.9543 31.0457 0 20 0ZM30.3952 12.6513L26.843 29.6094C26.8001 29.8145 26.7062 30.0055 26.5702 30.1649C26.4341 30.3243 26.2602 30.4469 26.0643 30.5215C25.8685 30.5961 25.6571 30.6203 25.4494 30.5919C25.2418 30.5635 25.0447 30.4833 24.8761 30.3588L19.7092 26.5416L16.5789 29.4947C16.5379 29.5333 16.4897 29.5635 16.4369 29.5833C16.3842 29.6031 16.328 29.6122 16.2717 29.61C16.2155 29.6079 16.1602 29.5945 16.1091 29.5708C16.058 29.5471 16.0121 29.5134 15.9742 29.4717L15.907 29.3978L16.4509 24.1341L26.2543 15.177C26.3028 15.1328 26.3329 15.072 26.3388 15.0067C26.3447 14.9413 26.3258 14.8761 26.286 14.824C26.2462 14.7718 26.1882 14.7365 26.1236 14.725C26.059 14.7134 25.9925 14.7265 25.937 14.7616L13.3996 22.6968L8 20.8834C7.85643 20.8351 7.73129 20.7437 7.64177 20.6215C7.55225 20.4993 7.50272 20.3524 7.49998 20.201C7.49724 20.0496 7.54143 19.901 7.62648 19.7757C7.71152 19.6503 7.83326 19.5544 7.975 19.501L29.1016 11.5425C29.2645 11.4812 29.441 11.4648 29.6125 11.495C29.784 11.5252 29.9442 11.6009 30.0764 11.7142C30.2086 11.8275 30.3079 11.9742 30.364 12.1391C30.4201 12.3039 30.4309 12.4808 30.3952 12.6513Z" fill="url(#paint0_linear)"/>
    <defs>
        <linearGradient id="paint0_linear" x1="20" y1="0" x2="20" y2="42.8125" gradientUnits="userSpaceOnUse">
            <stop stop-color="#4CAAF3"/>
            <stop offset="1" stop-color="#367CBD"/>
        </linearGradient>
    </defs>
</svg>
