<svg viewBox="0 0 1440 600" fill="none" xmlns="http://www.w3.org/2000/svg">
    <g clip-path="url(#clip0_154:6810)">
        <ellipse cx="134.776" cy="300" rx="134.776" ry="300" fill="white"/>
        <path d="M354.387 2.69863C308.827 -11.0592 269.552 29.8426 269.552 78.7252L269.552 521.275C269.552 570.157 308.827 611.059 354.387 597.301C479.261 559.593 570.448 440.76 570.448 300C570.448 159.24 479.261 40.4065 354.387 2.69863Z" fill="#E9EEF8"/>
        <path d="M570.448 300C570.448 134.315 704.762 0 870.448 0C1036.13 0 1170.45 134.315 1170.45 300C1170.45 465.685 1036.13 600 870.448 600C704.762 600 570.448 465.685 570.448 300Z" fill="white"/>
        <ellipse cx="1305.22" cy="300" rx="134.776" ry="300" fill="#E9EBF1"/>
    </g>
    <defs>
        <clipPath id="clip0_154:6810">
            <rect width="1440" height="600" fill="white"/>
        </clipPath>
    </defs>
</svg>
