<svg width="29" height="16" viewBox="0 0 29 16" fill="none" xmlns="http://www.w3.org/2000/svg">
    <path d="M27.4011 4.1618C28.0456 5.27309 28.3981 6.51785 28.4282 7.7887L28.4251 7.78572C28.4413 8.62166 28.3295 9.45536 28.0941 10.2604C27.7244 11.5227 26.8093 12.989 25.7944 13.8447C23.3768 15.8805 21.6138 15.998 18.4098 15.998C18.3155 15.998 18.2232 15.9985 18.1326 15.999C17.1617 16.0042 16.4045 16.0084 15.8435 15.38C15.3315 14.8076 15.1429 13.8008 15.6764 13.058C16.1762 12.3608 16.8186 12.1994 17.9943 12.214L18.0172 12.2145C18.5877 12.225 19.8842 12.2489 20.4119 12.214C22.6556 12.0566 24.4151 10.3067 24.4944 8.15416C24.4882 6.64822 23.8214 5.54301 23.055 4.8869C21.6682 3.7008 20.0817 3.75927 18.6933 3.81044C17.3343 3.86052 16.1651 3.90361 15.5584 2.76596C14.8578 1.43906 15.8819 0.128347 17.1573 0.0344002C18.1661 -0.0389968 20.9087 -0.000830013 21.8562 0.206118C24.2752 0.747754 26.2391 2.1436 27.4011 4.1618Z"
          fill="#1CA2F7"/>
    <path d="M6.57419 0.206214C4.15363 0.74785 2.19004 2.1437 1.0327 4.16176C0.386522 5.27269 0.0324466 6.51753 0.00104638 7.7888C-0.0121977 8.62379 0.100343 9.45628 0.335194 10.2605C0.704661 11.5228 1.6198 12.9891 2.63446 13.8448C5.05186 15.8806 6.8147 15.9981 10.0185 15.9981C10.1129 15.9981 10.2054 15.9986 10.296 15.9991C11.268 16.0043 12.0237 16.0084 12.5846 15.3801C13.098 14.8077 13.2851 13.8009 12.7517 13.0581C12.252 12.3609 11.6096 12.1995 10.4355 12.2141C10.2091 12.217 9.99997 12.22 9.80605 12.2229C8.99412 12.2347 8.44847 12.2427 8.01665 12.2141C5.77326 12.0567 4.01375 10.3068 3.93449 8.15426C3.9406 6.64832 4.60734 5.5431 5.37386 4.887C6.76054 3.7009 8.34687 3.75937 9.73519 3.81053C11.094 3.86061 12.2632 3.9037 12.8698 2.76606C13.5703 1.43916 12.5464 0.128443 11.271 0.0344962C10.2624 -0.0389008 7.51999 -0.000734041 6.57419 0.206214Z"
          fill="#1CA2F7"/>
</svg>
