<svg width="199" height="199" viewBox="0 0 199 199" fill="none" xmlns="http://www.w3.org/2000/svg">
<circle cx="58.4892" cy="166.672" r="3.4789" transform="rotate(-13.645 58.4892 166.672)" fill="#FAFAFA" fill-opacity="0.1"/>
<circle cx="54.1123" cy="148.642" r="3.4789" transform="rotate(-13.645 54.1123 148.642)" fill="#FAFAFA" fill-opacity="0.1"/>
<circle cx="49.7353" cy="130.611" r="3.4789" transform="rotate(-13.645 49.7353 130.611)" fill="#FAFAFA" fill-opacity="0.1"/>
<circle cx="45.3581" cy="112.581" r="3.4789" transform="rotate(-13.645 45.3581 112.581)" fill="#FAFAFA" fill-opacity="0.1"/>
<circle cx="40.9812" cy="94.5503" r="3.4789" transform="rotate(-13.645 40.9812 94.5503)" fill="#FAFAFA" fill-opacity="0.1"/>
<circle cx="36.6042" cy="76.52" r="3.4789" transform="rotate(-13.645 36.6042 76.52)" fill="#FAFAFA" fill-opacity="0.1"/>
<circle cx="32.2273" cy="58.4897" r="3.4789" transform="rotate(-13.645 32.2273 58.4897)" fill="#FAFAFA" fill-opacity="0.1"/>
<circle cx="94.5503" cy="157.918" r="3.4789" transform="rotate(-13.645 94.5503 157.918)" fill="#FAFAFA" fill-opacity="0.1"/>
<circle cx="90.1731" cy="139.888" r="3.4789" transform="rotate(-13.645 90.1731 139.888)" fill="#FAFAFA" fill-opacity="0.1"/>
<circle cx="85.7961" cy="121.857" r="3.4789" transform="rotate(-13.645 85.7961 121.857)" fill="#FAFAFA" fill-opacity="0.1"/>
<circle cx="81.4192" cy="103.827" r="3.4789" transform="rotate(-13.645 81.4192 103.827)" fill="#FAFAFA" fill-opacity="0.1"/>
<circle cx="77.0422" cy="85.7964" r="3.4789" transform="rotate(-13.645 77.0422 85.7964)" fill="#FAFAFA" fill-opacity="0.1"/>
<circle cx="72.665" cy="67.7661" r="3.4789" transform="rotate(-13.645 72.665 67.7661)" fill="#FAFAFA" fill-opacity="0.1"/>
<circle cx="68.2881" cy="49.7353" r="3.4789" transform="rotate(-13.645 68.2881 49.7353)" fill="#FAFAFA" fill-opacity="0.1"/>
<circle cx="130.611" cy="149.165" r="3.4789" transform="rotate(-13.645 130.611 149.165)" fill="#FAFAFA" fill-opacity="0.1"/>
<circle cx="126.234" cy="131.134" r="3.4789" transform="rotate(-13.645 126.234 131.134)" fill="#FAFAFA" fill-opacity="0.1"/>
<circle cx="121.857" cy="113.103" r="3.4789" transform="rotate(-13.645 121.857 113.103)" fill="#FAFAFA" fill-opacity="0.1"/>
<circle cx="117.48" cy="95.0727" r="3.4789" transform="rotate(-13.645 117.48 95.0727)" fill="#FAFAFA" fill-opacity="0.1"/>
<circle cx="113.103" cy="77.0424" r="3.4789" transform="rotate(-13.645 113.103 77.0424)" fill="#FAFAFA" fill-opacity="0.1"/>
<circle cx="108.726" cy="59.0117" r="3.4789" transform="rotate(-13.645 108.726 59.0117)" fill="#FAFAFA" fill-opacity="0.1"/>
<circle cx="104.349" cy="40.9814" r="3.4789" transform="rotate(-13.645 104.349 40.9814)" fill="#FAFAFA" fill-opacity="0.1"/>
<circle cx="166.672" cy="140.41" r="3.4789" transform="rotate(-13.645 166.672 140.41)" fill="#FAFAFA" fill-opacity="0.1"/>
<circle cx="162.295" cy="122.38" r="3.4789" transform="rotate(-13.645 162.295 122.38)" fill="#FAFAFA" fill-opacity="0.1"/>
<circle cx="157.918" cy="104.349" r="3.4789" transform="rotate(-13.645 157.918 104.349)" fill="#FAFAFA" fill-opacity="0.1"/>
<circle cx="153.541" cy="86.3188" r="3.4789" transform="rotate(-13.645 153.541 86.3188)" fill="#FAFAFA" fill-opacity="0.1"/>
<circle cx="149.164" cy="68.2885" r="3.4789" transform="rotate(-13.645 149.164 68.2885)" fill="#FAFAFA" fill-opacity="0.1"/>
<circle cx="144.787" cy="50.2578" r="3.4789" transform="rotate(-13.645 144.787 50.2578)" fill="#FAFAFA" fill-opacity="0.1"/>
<circle cx="140.41" cy="32.2275" r="3.4789" transform="rotate(-13.645 140.41 32.2275)" fill="#FAFAFA" fill-opacity="0.1"/>
<circle cx="76.5198" cy="162.295" r="3.4789" transform="rotate(-13.645 76.5198 162.295)" fill="#FAFAFA" fill-opacity="0.1"/>
<circle cx="72.1428" cy="144.265" r="3.4789" transform="rotate(-13.645 72.1428 144.265)" fill="#FAFAFA" fill-opacity="0.1"/>
<circle cx="67.7656" cy="126.234" r="3.4789" transform="rotate(-13.645 67.7656 126.234)" fill="#FAFAFA" fill-opacity="0.1"/>
<circle cx="63.3887" cy="108.204" r="3.4789" transform="rotate(-13.645 63.3887 108.204)" fill="#FAFAFA" fill-opacity="0.1"/>
<circle cx="59.0117" cy="90.1733" r="3.4789" transform="rotate(-13.645 59.0117 90.1733)" fill="#FAFAFA" fill-opacity="0.1"/>
<circle cx="54.6348" cy="72.143" r="3.4789" transform="rotate(-13.645 54.6348 72.143)" fill="#FAFAFA" fill-opacity="0.1"/>
<circle cx="50.2576" cy="54.1123" r="3.4789" transform="rotate(-13.645 50.2576 54.1123)" fill="#FAFAFA" fill-opacity="0.1"/>
<circle cx="112.581" cy="153.541" r="3.4789" transform="rotate(-13.645 112.581 153.541)" fill="#FAFAFA" fill-opacity="0.1"/>
<circle cx="108.204" cy="135.511" r="3.4789" transform="rotate(-13.645 108.204 135.511)" fill="#FAFAFA" fill-opacity="0.1"/>
<circle cx="103.827" cy="117.48" r="3.4789" transform="rotate(-13.645 103.827 117.48)" fill="#FAFAFA" fill-opacity="0.1"/>
<circle cx="99.4497" cy="99.4497" r="3.4789" transform="rotate(-13.645 99.4497 99.4497)" fill="#FAFAFA" fill-opacity="0.1"/>
<circle cx="95.0727" cy="81.4194" r="3.4789" transform="rotate(-13.645 95.0727 81.4194)" fill="#FAFAFA" fill-opacity="0.1"/>
<circle cx="90.6955" cy="63.3891" r="3.4789" transform="rotate(-13.645 90.6955 63.3891)" fill="#FAFAFA" fill-opacity="0.1"/>
<circle cx="86.3186" cy="45.3584" r="3.4789" transform="rotate(-13.645 86.3186 45.3584)" fill="#FAFAFA" fill-opacity="0.1"/>
<circle cx="148.642" cy="144.787" r="3.4789" transform="rotate(-13.645 148.642 144.787)" fill="#FAFAFA" fill-opacity="0.1"/>
<circle cx="144.265" cy="126.757" r="3.4789" transform="rotate(-13.645 144.265 126.757)" fill="#FAFAFA" fill-opacity="0.1"/>
<circle cx="139.888" cy="108.727" r="3.4789" transform="rotate(-13.645 139.888 108.727)" fill="#FAFAFA" fill-opacity="0.1"/>
<circle cx="135.51" cy="90.6958" r="3.4789" transform="rotate(-13.645 135.51 90.6958)" fill="#FAFAFA" fill-opacity="0.1"/>
<circle cx="131.134" cy="72.6655" r="3.4789" transform="rotate(-13.645 131.134 72.6655)" fill="#FAFAFA" fill-opacity="0.1"/>
<circle cx="126.757" cy="54.6347" r="3.4789" transform="rotate(-13.645 126.757 54.6347)" fill="#FAFAFA" fill-opacity="0.1"/>
<circle cx="122.38" cy="36.6045" r="3.4789" transform="rotate(-13.645 122.38 36.6045)" fill="#FAFAFA" fill-opacity="0.1"/>
</svg>
