<svg width="224" height="224" viewBox="0 0 224 224" fill="none" xmlns="http://www.w3.org/2000/svg">
<circle cx="13.9558" cy="144.696" r="4.56451" transform="rotate(26.4807 13.9558 144.696)" fill="#FAFAFA" fill-opacity="0.1"/>
<circle cx="24.8106" cy="122.906" r="4.56451" transform="rotate(26.4807 24.8106 122.906)" fill="#FAFAFA" fill-opacity="0.1"/>
<circle cx="35.6656" cy="101.116" r="4.56451" transform="rotate(26.4807 35.6656 101.116)" fill="#FAFAFA" fill-opacity="0.1"/>
<circle cx="46.5205" cy="79.3255" r="4.56451" transform="rotate(26.4807 46.5205 79.3255)" fill="#FAFAFA" fill-opacity="0.1"/>
<circle cx="57.3753" cy="57.536" r="4.56451" transform="rotate(26.4807 57.3753 57.536)" fill="#FAFAFA" fill-opacity="0.1"/>
<circle cx="68.2303" cy="35.7459" r="4.56451" transform="rotate(26.4807 68.2303 35.7459)" fill="#FAFAFA" fill-opacity="0.1"/>
<circle cx="79.0852" cy="13.9559" r="4.56451" transform="rotate(26.4807 79.0852 13.9559)" fill="#FAFAFA" fill-opacity="0.1"/>
<circle cx="57.5357" cy="166.406" r="4.56451" transform="rotate(26.4807 57.5357 166.406)" fill="#FAFAFA" fill-opacity="0.1"/>
<circle cx="68.3907" cy="144.616" r="4.56451" transform="rotate(26.4807 68.3907 144.616)" fill="#FAFAFA" fill-opacity="0.1"/>
<circle cx="79.2456" cy="122.826" r="4.56451" transform="rotate(26.4807 79.2456 122.826)" fill="#FAFAFA" fill-opacity="0.1"/>
<circle cx="90.1004" cy="101.035" r="4.56451" transform="rotate(26.4807 90.1004 101.035)" fill="#FAFAFA" fill-opacity="0.1"/>
<circle cx="100.955" cy="79.2454" r="4.56451" transform="rotate(26.4807 100.955 79.2454)" fill="#FAFAFA" fill-opacity="0.1"/>
<circle cx="111.81" cy="57.4554" r="4.56451" transform="rotate(26.4807 111.81 57.4554)" fill="#FAFAFA" fill-opacity="0.1"/>
<circle cx="122.665" cy="35.6658" r="4.56451" transform="rotate(26.4807 122.665 35.6658)" fill="#FAFAFA" fill-opacity="0.1"/>
<circle cx="101.116" cy="188.116" r="4.56451" transform="rotate(26.4807 101.116 188.116)" fill="#FAFAFA" fill-opacity="0.1"/>
<circle cx="111.97" cy="166.325" r="4.56451" transform="rotate(26.4807 111.97 166.325)" fill="#FAFAFA" fill-opacity="0.1"/>
<circle cx="122.825" cy="144.535" r="4.56451" transform="rotate(26.4807 122.825 144.535)" fill="#FAFAFA" fill-opacity="0.1"/>
<circle cx="133.68" cy="122.745" r="4.56451" transform="rotate(26.4807 133.68 122.745)" fill="#FAFAFA" fill-opacity="0.1"/>
<circle cx="144.535" cy="100.955" r="4.56451" transform="rotate(26.4807 144.535 100.955)" fill="#FAFAFA" fill-opacity="0.1"/>
<circle cx="155.39" cy="79.1654" r="4.56451" transform="rotate(26.4807 155.39 79.1654)" fill="#FAFAFA" fill-opacity="0.1"/>
<circle cx="166.245" cy="57.3753" r="4.56451" transform="rotate(26.4807 166.245 57.3753)" fill="#FAFAFA" fill-opacity="0.1"/>
<circle cx="144.696" cy="209.825" r="4.56451" transform="rotate(26.4807 144.696 209.825)" fill="#FAFAFA" fill-opacity="0.1"/>
<circle cx="155.55" cy="188.035" r="4.56451" transform="rotate(26.4807 155.55 188.035)" fill="#FAFAFA" fill-opacity="0.1"/>
<circle cx="166.405" cy="166.245" r="4.56451" transform="rotate(26.4807 166.405 166.245)" fill="#FAFAFA" fill-opacity="0.1"/>
<circle cx="177.26" cy="144.455" r="4.56451" transform="rotate(26.4807 177.26 144.455)" fill="#FAFAFA" fill-opacity="0.1"/>
<circle cx="188.115" cy="122.665" r="4.56451" transform="rotate(26.4807 188.115 122.665)" fill="#FAFAFA" fill-opacity="0.1"/>
<circle cx="198.97" cy="100.875" r="4.56451" transform="rotate(26.4807 198.97 100.875)" fill="#FAFAFA" fill-opacity="0.1"/>
<circle cx="209.825" cy="79.0853" r="4.56451" transform="rotate(26.4807 209.825 79.0853)" fill="#FAFAFA" fill-opacity="0.1"/>
<circle cx="35.7456" cy="155.551" r="4.56451" transform="rotate(26.4807 35.7456 155.551)" fill="#FAFAFA" fill-opacity="0.1"/>
<circle cx="46.6006" cy="133.761" r="4.56451" transform="rotate(26.4807 46.6006 133.761)" fill="#FAFAFA" fill-opacity="0.1"/>
<circle cx="57.4556" cy="111.971" r="4.56451" transform="rotate(26.4807 57.4556 111.971)" fill="#FAFAFA" fill-opacity="0.1"/>
<circle cx="68.3106" cy="90.1805" r="4.56451" transform="rotate(26.4807 68.3106 90.1805)" fill="#FAFAFA" fill-opacity="0.1"/>
<circle cx="79.1653" cy="68.3904" r="4.56451" transform="rotate(26.4807 79.1653 68.3904)" fill="#FAFAFA" fill-opacity="0.1"/>
<circle cx="90.0203" cy="46.6009" r="4.56451" transform="rotate(26.4807 90.0203 46.6009)" fill="#FAFAFA" fill-opacity="0.1"/>
<circle cx="100.875" cy="24.8109" r="4.56451" transform="rotate(26.4807 100.875 24.8109)" fill="#FAFAFA" fill-opacity="0.1"/>
<circle cx="79.3257" cy="177.26" r="4.56451" transform="rotate(26.4807 79.3257 177.26)" fill="#FAFAFA" fill-opacity="0.1"/>
<circle cx="90.1805" cy="155.471" r="4.56451" transform="rotate(26.4807 90.1805 155.471)" fill="#FAFAFA" fill-opacity="0.1"/>
<circle cx="101.035" cy="133.68" r="4.56451" transform="rotate(26.4807 101.035 133.68)" fill="#FAFAFA" fill-opacity="0.1"/>
<circle cx="111.89" cy="111.89" r="4.56451" transform="rotate(26.4807 111.89 111.89)" fill="#FAFAFA" fill-opacity="0.1"/>
<circle cx="122.745" cy="90.1004" r="4.56451" transform="rotate(26.4807 122.745 90.1004)" fill="#FAFAFA" fill-opacity="0.1"/>
<circle cx="133.6" cy="68.3104" r="4.56451" transform="rotate(26.4807 133.6 68.3104)" fill="#FAFAFA" fill-opacity="0.1"/>
<circle cx="144.455" cy="46.5203" r="4.56451" transform="rotate(26.4807 144.455 46.5203)" fill="#FAFAFA" fill-opacity="0.1"/>
<circle cx="122.906" cy="198.97" r="4.56451" transform="rotate(26.4807 122.906 198.97)" fill="#FAFAFA" fill-opacity="0.1"/>
<circle cx="133.761" cy="177.18" r="4.56451" transform="rotate(26.4807 133.761 177.18)" fill="#FAFAFA" fill-opacity="0.1"/>
<circle cx="144.616" cy="155.39" r="4.56451" transform="rotate(26.4807 144.616 155.39)" fill="#FAFAFA" fill-opacity="0.1"/>
<circle cx="155.47" cy="133.6" r="4.56451" transform="rotate(26.4807 155.47 133.6)" fill="#FAFAFA" fill-opacity="0.1"/>
<circle cx="166.325" cy="111.81" r="4.56451" transform="rotate(26.4807 166.325 111.81)" fill="#FAFAFA" fill-opacity="0.1"/>
<circle cx="177.18" cy="90.0203" r="4.56451" transform="rotate(26.4807 177.18 90.0203)" fill="#FAFAFA" fill-opacity="0.1"/>
<circle cx="188.035" cy="68.2303" r="4.56451" transform="rotate(26.4807 188.035 68.2303)" fill="#FAFAFA" fill-opacity="0.1"/>
</svg>
