<svg width="99" height="99" viewBox="0 0 99 99" fill="none" xmlns="http://www.w3.org/2000/svg">
<circle cx="2.9117" cy="75.5519" r="2.35898" transform="rotate(15.7861 2.9117 75.5519)" fill="#FAFAFA" fill-opacity="0.1"/>
<circle cx="6.33455" cy="63.4455" r="2.35898" transform="rotate(15.7861 6.33455 63.4455)" fill="#FAFAFA" fill-opacity="0.1"/>
<circle cx="9.75716" cy="51.3385" r="2.35898" transform="rotate(15.7861 9.75716 51.3385)" fill="#FAFAFA" fill-opacity="0.1"/>
<circle cx="13.1798" cy="39.2321" r="2.35898" transform="rotate(15.7861 13.1798 39.2321)" fill="#FAFAFA" fill-opacity="0.1"/>
<circle cx="16.6026" cy="27.1251" r="2.35898" transform="rotate(15.7861 16.6026 27.1251)" fill="#FAFAFA" fill-opacity="0.1"/>
<circle cx="20.0252" cy="15.0187" r="2.35898" transform="rotate(15.7861 20.0252 15.0187)" fill="#FAFAFA" fill-opacity="0.1"/>
<circle cx="23.4478" cy="2.91176" r="2.35898" transform="rotate(15.7861 23.4478 2.91176)" fill="#FAFAFA" fill-opacity="0.1"/>
<circle cx="27.1253" cy="82.3976" r="2.35898" transform="rotate(15.7861 27.1253 82.3976)" fill="#FAFAFA" fill-opacity="0.1"/>
<circle cx="30.5479" cy="70.2907" r="2.35898" transform="rotate(15.7861 30.5479 70.2907)" fill="#FAFAFA" fill-opacity="0.1"/>
<circle cx="33.9705" cy="58.1842" r="2.35898" transform="rotate(15.7861 33.9705 58.1842)" fill="#FAFAFA" fill-opacity="0.1"/>
<circle cx="37.3934" cy="46.0773" r="2.35898" transform="rotate(15.7861 37.3934 46.0773)" fill="#FAFAFA" fill-opacity="0.1"/>
<circle cx="40.816" cy="33.9704" r="2.35898" transform="rotate(15.7861 40.816 33.9704)" fill="#FAFAFA" fill-opacity="0.1"/>
<circle cx="44.2386" cy="21.8639" r="2.35898" transform="rotate(15.7861 44.2386 21.8639)" fill="#FAFAFA" fill-opacity="0.1"/>
<circle cx="47.6615" cy="9.75698" r="2.35898" transform="rotate(15.7861 47.6615 9.75698)" fill="#FAFAFA" fill-opacity="0.1"/>
<circle cx="51.3387" cy="89.2428" r="2.35898" transform="rotate(15.7861 51.3387 89.2428)" fill="#FAFAFA" fill-opacity="0.1"/>
<circle cx="54.7613" cy="77.1359" r="2.35898" transform="rotate(15.7861 54.7613 77.1359)" fill="#FAFAFA" fill-opacity="0.1"/>
<circle cx="58.1842" cy="65.0294" r="2.35898" transform="rotate(15.7861 58.1842 65.0294)" fill="#FAFAFA" fill-opacity="0.1"/>
<circle cx="61.6068" cy="52.9225" r="2.35898" transform="rotate(15.7861 61.6068 52.9225)" fill="#FAFAFA" fill-opacity="0.1"/>
<circle cx="65.0294" cy="40.8161" r="2.35898" transform="rotate(15.7861 65.0294 40.8161)" fill="#FAFAFA" fill-opacity="0.1"/>
<circle cx="68.4522" cy="28.7091" r="2.35898" transform="rotate(15.7861 68.4522 28.7091)" fill="#FAFAFA" fill-opacity="0.1"/>
<circle cx="71.8748" cy="16.6027" r="2.35898" transform="rotate(15.7861 71.8748 16.6027)" fill="#FAFAFA" fill-opacity="0.1"/>
<circle cx="75.5521" cy="96.088" r="2.35898" transform="rotate(15.7861 75.5521 96.088)" fill="#FAFAFA" fill-opacity="0.1"/>
<circle cx="78.9749" cy="83.9816" r="2.35898" transform="rotate(15.7861 78.9749 83.9816)" fill="#FAFAFA" fill-opacity="0.1"/>
<circle cx="82.3975" cy="71.8747" r="2.35898" transform="rotate(15.7861 82.3975 71.8747)" fill="#FAFAFA" fill-opacity="0.1"/>
<circle cx="85.8202" cy="59.7682" r="2.35898" transform="rotate(15.7861 85.8202 59.7682)" fill="#FAFAFA" fill-opacity="0.1"/>
<circle cx="89.243" cy="47.6613" r="2.35898" transform="rotate(15.7861 89.243 47.6613)" fill="#FAFAFA" fill-opacity="0.1"/>
<circle cx="92.6656" cy="35.5548" r="2.35898" transform="rotate(15.7861 92.6656 35.5548)" fill="#FAFAFA" fill-opacity="0.1"/>
<circle cx="96.0882" cy="23.4479" r="2.35898" transform="rotate(15.7861 96.0882 23.4479)" fill="#FAFAFA" fill-opacity="0.1"/>
<circle cx="15.0186" cy="78.9748" r="2.35898" transform="rotate(15.7861 15.0186 78.9748)" fill="#FAFAFA" fill-opacity="0.1"/>
<circle cx="18.4412" cy="66.8678" r="2.35898" transform="rotate(15.7861 18.4412 66.8678)" fill="#FAFAFA" fill-opacity="0.1"/>
<circle cx="21.8639" cy="54.7614" r="2.35898" transform="rotate(15.7861 21.8639 54.7614)" fill="#FAFAFA" fill-opacity="0.1"/>
<circle cx="25.2867" cy="42.6544" r="2.35898" transform="rotate(15.7861 25.2867 42.6544)" fill="#FAFAFA" fill-opacity="0.1"/>
<circle cx="28.7093" cy="30.548" r="2.35898" transform="rotate(15.7861 28.7093 30.548)" fill="#FAFAFA" fill-opacity="0.1"/>
<circle cx="32.1319" cy="18.4411" r="2.35898" transform="rotate(15.7861 32.1319 18.4411)" fill="#FAFAFA" fill-opacity="0.1"/>
<circle cx="35.5548" cy="6.33462" r="2.35898" transform="rotate(15.7861 35.5548 6.33462)" fill="#FAFAFA" fill-opacity="0.1"/>
<circle cx="39.2318" cy="85.82" r="2.35898" transform="rotate(15.7861 39.2318 85.82)" fill="#FAFAFA" fill-opacity="0.1"/>
<circle cx="42.6546" cy="73.7135" r="2.35898" transform="rotate(15.7861 42.6546 73.7135)" fill="#FAFAFA" fill-opacity="0.1"/>
<circle cx="46.0772" cy="61.6066" r="2.35898" transform="rotate(15.7861 46.0772 61.6066)" fill="#FAFAFA" fill-opacity="0.1"/>
<circle cx="49.4998" cy="49.5001" r="2.35898" transform="rotate(15.7861 49.4998 49.5001)" fill="#FAFAFA" fill-opacity="0.1"/>
<circle cx="52.9227" cy="37.3932" r="2.35898" transform="rotate(15.7861 52.9227 37.3932)" fill="#FAFAFA" fill-opacity="0.1"/>
<circle cx="56.3453" cy="25.2868" r="2.35898" transform="rotate(15.7861 56.3453 25.2868)" fill="#FAFAFA" fill-opacity="0.1"/>
<circle cx="59.7679" cy="13.1798" r="2.35898" transform="rotate(15.7861 59.7679 13.1798)" fill="#FAFAFA" fill-opacity="0.1"/>
<circle cx="63.4454" cy="92.6657" r="2.35898" transform="rotate(15.7861 63.4454 92.6657)" fill="#FAFAFA" fill-opacity="0.1"/>
<circle cx="66.868" cy="80.5587" r="2.35898" transform="rotate(15.7861 66.868 80.5587)" fill="#FAFAFA" fill-opacity="0.1"/>
<circle cx="70.2906" cy="68.4523" r="2.35898" transform="rotate(15.7861 70.2906 68.4523)" fill="#FAFAFA" fill-opacity="0.1"/>
<circle cx="73.7135" cy="56.3454" r="2.35898" transform="rotate(15.7861 73.7135 56.3454)" fill="#FAFAFA" fill-opacity="0.1"/>
<circle cx="77.1361" cy="44.2389" r="2.35898" transform="rotate(15.7861 77.1361 44.2389)" fill="#FAFAFA" fill-opacity="0.1"/>
<circle cx="80.5587" cy="32.132" r="2.35898" transform="rotate(15.7861 80.5587 32.132)" fill="#FAFAFA" fill-opacity="0.1"/>
<circle cx="83.9815" cy="20.025" r="2.35898" transform="rotate(15.7861 83.9815 20.025)" fill="#FAFAFA" fill-opacity="0.1"/>
</svg>
