<svg width="197" height="22" viewBox="0 0 197 22" fill="none" xmlns="http://www.w3.org/2000/svg">
<path fill-rule="evenodd" clip-rule="evenodd" d="M8.81572 0.108653C8.01838 0.24967 6.66144 0.72969 5.86747 1.15156C4.76114 1.73936 4.00574 2.32458 3.05605 3.32961C2.06442 4.37909 1.71942 4.8767 1.13687 6.09828C-0.565674 9.66849 -0.346695 13.6843 1.73146 17.0016C3.32595 19.547 5.64094 21.1717 8.62256 21.8382C9.14776 21.9557 10.0467 21.9984 12.0188 21.9998C14.6501 22.0016 14.7099 21.9968 15.182 21.7426C15.7364 21.4442 16.0135 21.152 16.3159 20.5467C16.7906 19.5966 16.4521 18.1395 15.6143 17.5254C14.8684 16.9789 14.6286 16.9404 11.9348 16.9354C9.24756 16.9303 8.72388 16.8562 7.77297 16.3467C7.0241 15.9454 6.264 15.2612 5.74798 14.5235C5.13798 13.6517 4.91023 13.0837 4.72574 11.9735C4.32166 9.54301 5.34226 7.1907 7.36062 5.90029C8.48358 5.18226 8.71235 5.13985 11.8368 5.07059C14.5023 5.01146 14.667 4.99582 15.1231 4.75823C15.6583 4.47955 16.1778 3.91213 16.3904 3.37428C16.556 2.95522 16.5742 2.06822 16.4256 1.6551C16.2397 1.13818 15.7037 0.528684 15.1955 0.25636C14.7053 -0.00625397 14.6761 -0.00862724 12.0188 0.00388846C10.5437 0.0107937 9.10235 0.0579426 8.81572 0.108653ZM24.7816 0.203169C22.9394 1.25816 22.9153 3.70983 24.7371 4.71637C25.2519 5.00089 25.2731 5.00305 28.1123 5.06616C30.8712 5.12755 30.9936 5.13942 31.6714 5.41132C33.3464 6.08339 34.5699 7.45364 35.1031 9.2545C35.3302 10.0217 35.3759 11.5689 35.1958 12.3991C34.7652 14.3847 33.0233 16.2267 31.0662 16.7657C30.6067 16.8922 29.8728 16.9308 27.9123 16.9317C25.4164 16.9327 25.3447 16.9388 24.8206 17.1969C24.5255 17.3422 24.1633 17.5966 24.016 17.7623C22.8178 19.1089 23.3596 21.2471 25.0536 21.8574C25.4338 21.9944 25.978 22.0138 28.2911 21.9731C31.4203 21.9182 31.9513 21.8272 33.646 21.0545C34.9143 20.4764 35.9208 19.7466 36.9438 18.6635C38.9334 16.5569 40 13.8819 40 10.9988C40 5.98963 36.7689 1.6879 31.9567 0.290347C31.2594 0.0878298 30.8431 0.0589142 28.1633 0.0266539C25.3246 -0.00754846 25.132 0.00248584 24.7816 0.203169Z" fill="#FAFAFA"/>
<path d="M62.456 19.288C60.12 19.288 58.16 18.52 56.576 16.984C55.008 15.432 54.224 13.44 54.224 11.008C54.224 8.576 55.008 6.592 56.576 5.056C58.16 3.504 60.12 2.728 62.456 2.728C65.016 2.728 67.04 3.784 68.528 5.896L66.848 6.832C66.384 6.144 65.76 5.584 64.976 5.152C64.192 4.72 63.352 4.504 62.456 4.504C60.696 4.504 59.224 5.12 58.04 6.352C56.872 7.568 56.288 9.12 56.288 11.008C56.288 12.896 56.872 14.456 58.04 15.688C59.224 16.904 60.696 17.512 62.456 17.512C63.352 17.512 64.192 17.304 64.976 16.888C65.76 16.456 66.384 15.888 66.848 15.184L68.552 16.12C67 18.232 64.968 19.288 62.456 19.288ZM80.2348 17.536C79.1948 18.704 77.8108 19.288 76.0828 19.288C74.3548 19.288 72.9628 18.704 71.9068 17.536C70.8668 16.368 70.3468 14.92 70.3468 13.192C70.3468 11.464 70.8668 10.024 71.9068 8.872C72.9628 7.704 74.3548 7.12 76.0828 7.12C77.8108 7.12 79.1948 7.704 80.2348 8.872C81.2908 10.024 81.8188 11.464 81.8188 13.192C81.8188 14.92 81.2908 16.368 80.2348 17.536ZM73.2508 16.384C73.9548 17.248 74.8988 17.68 76.0828 17.68C77.2668 17.68 78.2028 17.248 78.8908 16.384C79.5788 15.504 79.9228 14.44 79.9228 13.192C79.9228 11.944 79.5788 10.888 78.8908 10.024C78.2028 9.16 77.2668 8.728 76.0828 8.728C74.8988 8.728 73.9548 9.168 73.2508 10.048C72.5628 10.912 72.2188 11.96 72.2188 13.192C72.2188 14.44 72.5628 15.504 73.2508 16.384ZM94.3771 19H92.5771V11.416C92.5771 10.44 92.3531 9.752 91.9051 9.352C91.4571 8.936 90.8171 8.728 89.9851 8.728C89.3131 8.728 88.6571 8.904 88.0171 9.256C87.3931 9.608 86.9051 10.032 86.5531 10.528V19H84.7531V7.408H86.5531V9.088C87.0011 8.56 87.6011 8.104 88.3531 7.72C89.1051 7.32 89.8811 7.12 90.6811 7.12C93.1451 7.12 94.3771 8.368 94.3771 10.864V19ZM107.596 19H105.796V11.416C105.796 10.44 105.572 9.752 105.124 9.352C104.676 8.936 104.036 8.728 103.204 8.728C102.532 8.728 101.876 8.904 101.236 9.256C100.612 9.608 100.124 10.032 99.7719 10.528V19H97.9719V7.408H99.7719V9.088C100.22 8.56 100.82 8.104 101.572 7.72C102.324 7.32 103.1 7.12 103.9 7.12C106.364 7.12 107.596 8.368 107.596 10.864V19ZM116.423 19.288C114.695 19.288 113.279 18.728 112.175 17.608C111.071 16.472 110.519 15 110.519 13.192C110.519 11.496 111.063 10.064 112.151 8.896C113.239 7.712 114.599 7.12 116.231 7.12C117.943 7.12 119.295 7.712 120.287 8.896C121.295 10.064 121.799 11.544 121.799 13.336V13.792H112.415C112.495 14.928 112.911 15.88 113.663 16.648C114.415 17.416 115.391 17.8 116.591 17.8C118.031 17.8 119.223 17.312 120.167 16.336L121.031 17.512C119.847 18.696 118.311 19.288 116.423 19.288ZM120.023 12.472C120.007 11.48 119.671 10.592 119.015 9.808C118.359 9.008 117.423 8.608 116.207 8.608C115.055 8.608 114.143 9 113.471 9.784C112.815 10.568 112.463 11.464 112.415 12.472H120.023ZM129.826 19.288C128.114 19.288 126.722 18.712 125.65 17.56C124.578 16.392 124.042 14.936 124.042 13.192C124.042 11.448 124.578 10 125.65 8.848C126.722 7.696 128.114 7.12 129.826 7.12C131.618 7.12 133.034 7.792 134.074 9.136L132.874 10.24C132.138 9.232 131.154 8.728 129.922 8.728C128.706 8.728 127.73 9.144 126.994 9.976C126.274 10.808 125.914 11.88 125.914 13.192C125.914 14.504 126.274 15.584 126.994 16.432C127.73 17.264 128.706 17.68 129.922 17.68C131.138 17.68 132.122 17.176 132.874 16.168L134.074 17.272C133.034 18.616 131.618 19.288 129.826 19.288ZM139.525 19.288C138.677 19.288 138.037 19.056 137.605 18.592C137.173 18.128 136.957 17.456 136.957 16.576V8.992H135.037V7.408H136.957V4.24H138.757V7.408H141.109V8.992H138.757V16.192C138.757 16.64 138.853 17 139.045 17.272C139.253 17.544 139.549 17.68 139.933 17.68C140.461 17.68 140.869 17.52 141.157 17.2L141.685 18.544C141.157 19.04 140.437 19.288 139.525 19.288ZM145.548 18.856C145.292 19.112 144.98 19.24 144.612 19.24C144.244 19.24 143.932 19.112 143.676 18.856C143.42 18.6 143.292 18.288 143.292 17.92C143.292 17.552 143.42 17.24 143.676 16.984C143.932 16.728 144.244 16.6 144.612 16.6C144.98 16.6 145.292 16.728 145.548 16.984C145.804 17.24 145.932 17.552 145.932 17.92C145.932 18.288 145.804 18.6 145.548 18.856ZM156.839 19.288C154.503 19.288 152.543 18.52 150.959 16.984C149.391 15.432 148.607 13.44 148.607 11.008C148.607 8.576 149.391 6.592 150.959 5.056C152.543 3.504 154.503 2.728 156.839 2.728C159.399 2.728 161.423 3.784 162.911 5.896L161.231 6.832C160.767 6.144 160.143 5.584 159.359 5.152C158.575 4.72 157.735 4.504 156.839 4.504C155.079 4.504 153.607 5.12 152.423 6.352C151.255 7.568 150.671 9.12 150.671 11.008C150.671 12.896 151.255 14.456 152.423 15.688C153.607 16.904 155.079 17.512 156.839 17.512C157.735 17.512 158.575 17.304 159.359 16.888C160.143 16.456 160.767 15.888 161.231 15.184L162.935 16.12C161.383 18.232 159.351 19.288 156.839 19.288ZM167.202 19H165.402V2.992H167.202V19ZM180.416 19H178.616V17.368C178.136 17.912 177.528 18.368 176.792 18.736C176.072 19.104 175.304 19.288 174.488 19.288C172.024 19.288 170.792 18.056 170.792 15.592V7.408H172.592V15.04C172.592 16 172.808 16.68 173.24 17.08C173.688 17.48 174.336 17.68 175.184 17.68C175.856 17.68 176.504 17.512 177.128 17.176C177.768 16.84 178.264 16.424 178.616 15.928V7.408H180.416V19ZM185.811 15.856C186.131 16.368 186.611 16.8 187.251 17.152C187.907 17.504 188.579 17.68 189.267 17.68C190.419 17.68 191.331 17.264 192.003 16.432C192.675 15.6 193.011 14.528 193.011 13.216C193.011 11.904 192.675 10.832 192.003 10C191.331 9.152 190.419 8.728 189.267 8.728C188.579 8.728 187.907 8.912 187.251 9.28C186.611 9.632 186.131 10.072 185.811 10.6V15.856ZM185.811 19H184.011V2.992H185.811V9.16C186.819 7.8 188.123 7.12 189.723 7.12C191.243 7.12 192.483 7.68 193.443 8.8C194.403 9.904 194.883 11.376 194.883 13.216C194.883 15.072 194.403 16.552 193.443 17.656C192.499 18.744 191.259 19.288 189.723 19.288C188.107 19.288 186.803 18.616 185.811 17.272V19Z" fill="#FAFAFA"/>
</svg>
