<svg width="18" height="20" viewBox="0 0 18 20" fill="none" xmlns="http://www.w3.org/2000/svg">
<path fill-rule="evenodd" clip-rule="evenodd" d="M0.76665 0.0974779C0.625839 0.162508 0.489854 0.24991 0.464572 0.291649C0.439208 0.333472 2.3677 2.35608 4.75004 4.7863L9.08149 9.20508L10.6352 7.62141C11.8337 6.39995 12.1658 6.0162 12.0878 5.94357C12.0322 5.89173 9.67133 4.5428 6.8416 2.94585C1.41172 -0.118565 1.32376 -0.159803 0.76665 0.0974779ZM0 10.0827V18.4721L4.11136 14.2774L8.22271 10.0827L4.11136 5.88797L0 1.69326V10.0827ZM11.6181 8.37163L9.94207 10.0832L11.5839 11.7583L13.2257 13.4334L15.1834 12.3322C16.2602 11.7265 17.259 11.1517 17.4028 11.0548C17.732 10.8331 18.0004 10.3534 18 9.98786C17.9997 9.67723 17.7442 9.19114 17.4796 8.99747C17.2637 8.83944 13.4052 6.66007 13.3414 6.66007C13.3154 6.66007 12.54 7.43024 11.6181 8.37163ZM4.74857 15.3805L0.456554 19.7601L0.777614 19.8969C0.971772 19.9797 1.21854 20.0174 1.4019 19.9924C1.59573 19.9658 3.58378 18.8888 6.91327 17.0064L12.1215 14.062L10.6231 12.5315C9.79889 11.6897 9.10563 11.001 9.08256 11.001C9.0594 11.001 7.10915 12.9718 4.74857 15.3805Z" fill="#FAFAFA"/>
</svg>
