<svg width="25" height="20" viewBox="0 0 25 20" fill="none" xmlns="http://www.w3.org/2000/svg">
<path d="M24.4334 2.30814C24.0407 2.47835 23.6369 2.622 23.2243 2.73863C23.7128 2.19884 24.0852 1.56371 24.3125 0.868695C24.3635 0.712906 24.3107 0.542383 24.1796 0.440494C24.0487 0.338526 23.8669 0.326312 23.7228 0.409762C22.8466 0.917551 21.9012 1.28248 20.91 1.49587C19.9116 0.54254 18.5554 0 17.1535 0C14.1942 0 11.7867 2.35243 11.7867 5.24393C11.7867 5.47166 11.8014 5.69813 11.8306 5.92145C8.15846 5.60641 4.74452 3.84278 2.40017 1.03284C2.31662 0.932681 2.18791 0.878703 2.05614 0.889026C1.92429 0.899112 1.80582 0.971766 1.73921 1.08343C1.26372 1.88065 1.01235 2.79245 1.01235 3.72016C1.01235 4.98373 1.47404 6.1826 2.28961 7.11937C2.04162 7.03545 1.80098 6.93057 1.5713 6.80598C1.448 6.73893 1.29751 6.73995 1.17501 6.80859C1.05243 6.87722 0.975578 7.00346 0.972353 7.14144C0.971788 7.16468 0.971788 7.18793 0.971788 7.21149C0.971788 9.09758 2.01066 10.7956 3.59896 11.7212C3.46251 11.7078 3.32614 11.6885 3.19065 11.6632C3.05097 11.6372 2.90735 11.685 2.81315 11.7891C2.7188 11.8931 2.68759 12.0381 2.73106 12.1705C3.31896 13.964 4.83258 15.2832 6.66241 15.6854C5.14476 16.6142 3.4092 17.1007 1.58727 17.1007C1.20711 17.1007 0.824772 17.0789 0.45058 17.0356C0.264694 17.014 0.0869523 17.1213 0.0236461 17.294C-0.0396602 17.4668 0.0274364 17.6595 0.185581 17.7585C2.52614 19.2249 5.2325 20 8.01193 20C13.4759 20 16.8941 17.4823 18.7993 15.3702C21.1751 12.7367 22.5377 9.25076 22.5377 5.80648C22.5377 5.66259 22.5354 5.51728 22.5309 5.37245C23.4682 4.68239 24.2753 3.84727 24.932 2.8874C25.0317 2.74162 25.0209 2.54895 24.9053 2.41476C24.7899 2.28048 24.5976 2.23706 24.4334 2.30814Z" fill="#FAFAFA"/>
</svg>
