<svg width="41" height="34" viewBox="0 0 41 34" fill="none" xmlns="http://www.w3.org/2000/svg">
<path d="M34.8617 4.76312C32.3122 3.54611 29.5783 2.64948 26.7198 2.13594C26.6678 2.12603 26.6158 2.1508 26.589 2.20034C26.2374 2.85093 25.8479 3.69968 25.5752 4.36679C22.5007 3.88793 19.442 3.88793 16.4305 4.36679C16.1577 3.68485 15.7541 2.85093 15.401 2.20034C15.3741 2.15245 15.3221 2.12768 15.2701 2.13594C12.4132 2.64784 9.67927 3.54447 7.12823 4.76312C7.10614 4.77302 7.08721 4.78955 7.07465 4.811C1.88899 12.8708 0.468416 20.7326 1.1653 28.4969C1.16845 28.5348 1.18895 28.5712 1.21733 28.5943C4.63868 31.2082 7.95285 32.7951 11.2055 33.8469C11.2575 33.8635 11.3127 33.8437 11.3458 33.7991C12.1152 32.706 12.8011 31.5534 13.3891 30.3413C13.4238 30.2703 13.3907 30.1861 13.3198 30.158C12.2319 29.7287 11.196 29.2052 10.1995 28.6108C10.1207 28.5629 10.1144 28.4456 10.1869 28.3895C10.3966 28.226 10.6064 28.0559 10.8066 27.8842C10.8428 27.8528 10.8933 27.8462 10.9359 27.866C17.4821 30.9754 24.5692 30.9754 31.0383 27.866C31.0808 27.8446 31.1313 27.8512 31.1691 27.8826C31.3694 28.0543 31.5791 28.226 31.7904 28.3895C31.8629 28.4456 31.8581 28.5629 31.7793 28.6108C30.7829 29.2168 29.747 29.7287 28.6575 30.1564C28.5866 30.1845 28.555 30.2703 28.5897 30.3413C29.1904 31.5517 29.8763 32.7043 30.6315 33.7974C30.663 33.8437 30.7198 33.8635 30.7718 33.8469C34.0402 32.7951 37.3544 31.2082 40.7757 28.5943C40.8057 28.5712 40.8246 28.5365 40.8278 28.4985C41.6618 19.5222 39.4308 11.7249 34.9137 4.81264C34.9026 4.78955 34.8838 4.77302 34.8617 4.76312ZM14.3667 23.7692C12.3958 23.7692 10.7719 21.8868 10.7719 19.575C10.7719 17.2632 12.3643 15.3808 14.3667 15.3808C16.3848 15.3808 17.993 17.2797 17.9615 19.575C17.9615 21.8868 16.369 23.7692 14.3667 23.7692ZM27.6579 23.7692C25.6871 23.7692 24.0632 21.8868 24.0632 19.575C24.0632 17.2632 25.6556 15.3808 27.6579 15.3808C29.6761 15.3808 31.2842 17.2797 31.2527 19.575C31.2527 21.8868 29.6761 23.7692 27.6579 23.7692Z" fill="#373E88"/>
<path d="M33.8617 2.62934C31.3122 1.41233 28.5783 0.515696 25.7198 0.00215424C25.6678 -0.00775695 25.6158 0.0170117 25.589 0.06655C25.2374 0.717143 24.8479 1.5659 24.5752 2.23301C21.5007 1.75416 18.442 1.75416 15.4305 2.23301C15.1577 1.55107 14.7541 0.717143 14.401 0.06655C14.3741 0.0186645 14.3221 -0.00610411 14.2701 0.00215424C11.4132 0.514055 8.67927 1.41069 6.12823 2.62934C6.10614 2.63925 6.08721 2.65578 6.07465 2.67723C0.888986 10.7371 -0.531584 18.5989 0.1653 26.3632C0.168453 26.4012 0.18895 26.4375 0.21733 26.4606C3.63868 29.0746 6.95285 30.6615 10.2055 31.7133C10.2575 31.7299 10.3127 31.7101 10.3458 31.6654C11.1152 30.5723 11.8011 29.4198 12.3891 28.2077C12.4238 28.1367 12.3907 28.0525 12.3198 28.0244C11.2319 27.5951 10.196 27.0716 9.19955 26.4772C9.12073 26.4293 9.11442 26.312 9.18693 26.2558C9.39662 26.0924 9.60637 25.9223 9.80659 25.7506C9.84282 25.7192 9.8933 25.7126 9.93589 25.7324C16.4821 28.8418 23.5692 28.8418 30.0383 25.7324C30.0808 25.7109 30.1313 25.7176 30.1691 25.7489C30.3694 25.9206 30.5791 26.0924 30.7904 26.2558C30.8629 26.312 30.8581 26.4293 30.7793 26.4772C29.7829 27.0831 28.747 27.5951 27.6575 28.0227C27.5866 28.0508 27.555 28.1367 27.5897 28.2077C28.1904 29.4181 28.8763 30.5706 29.6315 31.6638C29.663 31.7101 29.7198 31.7299 29.7718 31.7133C33.0402 30.6615 36.3544 29.0746 39.7757 26.4606C39.8057 26.4375 39.8246 26.4028 39.8278 26.3649C40.6618 17.3885 38.4308 9.59115 33.9137 2.67887C33.9026 2.65578 33.8838 2.63925 33.8617 2.62934ZM13.3667 21.6356C11.3958 21.6356 9.77189 19.7531 9.77189 17.4413C9.77189 15.1295 11.3643 13.2471 13.3667 13.2471C15.3848 13.2471 16.993 15.146 16.9615 17.4413C16.9615 19.7531 15.369 21.6356 13.3667 21.6356ZM26.6579 21.6356C24.6871 21.6356 23.0632 19.7531 23.0632 17.4413C23.0632 15.1295 24.6556 13.2471 26.6579 13.2471C28.6761 13.2471 30.2842 15.146 30.2527 17.4413C30.2527 19.7531 28.6761 21.6356 26.6579 21.6356Z" fill="url(#paint0_radial_215_1175)"/>
<defs>
<radialGradient id="paint0_radial_215_1175" cx="0" cy="0" r="1" gradientUnits="userSpaceOnUse" gradientTransform="translate(11.5 6.93856) rotate(43.4155) scale(30.2868 31.4073)">
<stop stop-color="#929BFF"/>
<stop offset="0.357431" stop-color="#5865F2"/>
<stop offset="0.833055" stop-color="#4049A6"/>
</radialGradient>
</defs>
</svg>
