<?xml version="1.0" standalone="no"?>
<svg version="1.0" xmlns="http://www.w3.org/2000/svg"
 width="524.000000pt" height="524.000000pt" viewBox="0 0 524.000000 524.000000"
 preserveAspectRatio="xMidYMid meet">
<g transform="translate(0.000000,524.000000) scale(0.100000,-0.100000)"
fill="#000000" stroke="none">
<path d="M2554 5203 c-2 -27 -14 -126 -19 -143 -2 -8 -7 -44 -10 -80 -4 -36
-8 -67 -10 -70 -1 -3 -6 -30 -9 -61 -4 -31 -8 -65 -10 -75 -2 -11 -7 -48 -12
-84 -4 -36 -8 -67 -9 -70 -1 -3 -5 -32 -9 -65 -16 -119 -17 -130 -22 -160 -2
-16 -6 -50 -9 -75 -3 -25 -8 -56 -10 -70 -2 -14 -7 -43 -10 -65 -3 -23 -8 -52
-10 -65 -3 -14 -7 -50 -10 -81 -8 -84 -12 -113 -30 -214 -3 -16 -8 -52 -10
-79 -2 -27 -6 -61 -9 -75 -5 -25 -11 -64 -21 -144 -5 -41 -17 -57 -75 -96 -21
-14 -51 -36 -66 -49 -16 -12 -58 -44 -94 -70 -36 -25 -70 -51 -76 -57 -6 -5
-21 -17 -34 -25 -29 -20 -152 -112 -167 -125 -6 -5 -28 -21 -48 -35 -20 -14
-51 -36 -69 -50 -18 -14 -46 -35 -62 -47 -16 -12 -63 -47 -104 -77 -41 -30
-79 -59 -85 -63 -5 -5 -134 -100 -285 -212 -151 -112 -280 -209 -285 -215 -12
-13 -44 -34 -65 -42 -8 -4 -34 -15 -57 -26 -24 -11 -49 -21 -55 -22 -7 -1 -47
-19 -88 -40 -237 -121 -404 -282 -462 -444 -31 -86 -32 -209 -3 -296 68 -198
263 -369 568 -500 108 -46 309 -110 387 -122 14 -2 45 -8 70 -14 73 -15 128
-23 231 -35 114 -12 159 -14 330 -15 l165 -1 2 -33 c1 -17 5 -42 7 -54 3 -12
7 -31 9 -41 15 -66 106 -208 170 -264 12 -10 32 -28 46 -40 157 -138 469 -279
730 -331 14 -2 50 -10 80 -16 30 -6 69 -13 85 -15 17 -2 47 -7 68 -10 151 -26
391 -34 612 -22 66 4 136 9 155 12 19 3 49 7 65 9 72 9 130 18 136 22 3 2 19
6 35 8 244 45 501 144 681 262 117 77 238 200 283 289 19 38 36 73 36 77 1 4
2 9 3 11 9 10 14 66 15 142 1 104 -19 165 -89 275 -53 83 -70 111 -94 152 -20
35 -203 345 -230 390 -51 84 -81 139 -81 147 0 5 -3 11 -8 13 -6 2 -51 74
-112 179 -8 15 -42 73 -75 129 -85 144 -86 146 -198 335 -385 653 -476 810
-469 815 4 3 8 12 9 20 2 8 14 60 28 115 14 55 27 107 29 115 2 8 16 62 31
120 14 58 28 116 31 130 2 14 7 32 10 40 3 8 8 24 10 35 2 11 15 65 29 120 15
55 29 114 32 130 3 17 9 38 14 48 5 9 7 17 5 17 -3 0 -1 12 5 27 5 14 12 38
14 52 4 32 8 46 35 146 11 44 23 89 24 100 2 11 4 20 5 20 2 0 4 9 6 20 2 11
25 105 50 209 25 103 45 192 43 196 -2 7 -210 -162 -583 -474 -259 -216 -356
-296 -363 -296 -7 0 -202 302 -202 314 0 4 -8 15 -17 26 -10 10 -27 36 -38 57
-11 21 -22 40 -25 43 -7 6 -299 469 -320 507 -16 29 -20 35 -48 71 -16 21 -18
22 -18 5z"/>
</g>
</svg>
