<svg width="131" height="11" viewBox="0 0 131 11" fill="none" xmlns="http://www.w3.org/2000/svg">
<path d="M5.92382 10.14C4.92516 10.14 4.03382 9.916 3.24982 9.468C2.47516 9.02 1.86849 8.41333 1.42982 7.648C1.00049 6.87333 0.785822 6.024 0.785822 5.1C0.785822 4.176 1.00049 3.33133 1.42982 2.566C1.86849 1.79133 2.47516 1.18 3.24982 0.731999C4.03382 0.283999 4.92516 0.0599995 5.92382 0.0599995C6.61449 0.0599995 7.26316 0.195333 7.86982 0.465999C8.47649 0.727333 8.99916 1.096 9.43782 1.572L8.00982 3.168C7.73916 2.89733 7.42182 2.68733 7.05782 2.538C6.70316 2.37933 6.32516 2.3 5.92382 2.3C5.41049 2.3 4.94382 2.42133 4.52382 2.664C4.11316 2.90667 3.78649 3.24267 3.54382 3.672C3.31049 4.10133 3.19382 4.57733 3.19382 5.1C3.19382 5.62267 3.31049 6.09867 3.54382 6.528C3.78649 6.95733 4.11316 7.29333 4.52382 7.536C4.94382 7.77867 5.41049 7.9 5.92382 7.9C6.32516 7.9 6.70316 7.82533 7.05782 7.676C7.42182 7.51733 7.73916 7.30267 8.00982 7.032L9.45182 8.628C9.01316 9.104 8.48582 9.47733 7.86982 9.748C7.26316 10.0093 6.61449 10.14 5.92382 10.14ZM18.3073 10.14C17.3366 10.14 16.4593 9.916 15.6753 9.468C14.8913 9.02 14.2753 8.41333 13.8273 7.648C13.3886 6.87333 13.1693 6.024 13.1693 5.1C13.1693 4.176 13.3886 3.33133 13.8273 2.566C14.2753 1.79133 14.8913 1.18 15.6753 0.731999C16.4593 0.283999 17.3366 0.0599995 18.3073 0.0599995C19.2779 0.0599995 20.1553 0.283999 20.9393 0.731999C21.7233 1.18 22.3346 1.79133 22.7733 2.566C23.2213 3.33133 23.4453 4.176 23.4453 5.1C23.4453 6.024 23.2213 6.87333 22.7733 7.648C22.3346 8.41333 21.7233 9.02 20.9393 9.468C20.1553 9.916 19.2779 10.14 18.3073 10.14ZM18.3073 7.9C18.8019 7.9 19.2546 7.774 19.6653 7.522C20.0759 7.27 20.4026 6.92933 20.6453 6.5C20.8879 6.07067 21.0093 5.604 21.0093 5.1C21.0093 4.596 20.8879 4.12933 20.6453 3.7C20.4026 3.27067 20.0759 2.93 19.6653 2.678C19.2546 2.426 18.8019 2.3 18.3073 2.3C17.8126 2.3 17.3599 2.426 16.9493 2.678C16.5386 2.93 16.2119 3.27067 15.9693 3.7C15.7266 4.12933 15.6053 4.596 15.6053 5.1C15.6053 5.604 15.7266 6.07067 15.9693 6.5C16.2119 6.92933 16.5386 7.27 16.9493 7.522C17.3599 7.774 17.8126 7.9 18.3073 7.9ZM35.1325 10.14C34.5445 10.14 34.0172 10.0093 33.5505 9.748C33.0839 9.47733 32.7152 9.10867 32.4445 8.642C32.1832 8.17533 32.0525 7.65267 32.0525 7.074V3.014C32.0525 2.734 31.9732 2.51 31.8145 2.342C31.6559 2.174 31.4552 2.09 31.2125 2.09C30.9699 2.09 30.7692 2.174 30.6105 2.342C30.4519 2.51 30.3725 2.734 30.3725 3.014V10H28.1325V3.154C28.1325 2.55667 28.2632 2.02467 28.5245 1.558C28.7952 1.082 29.1639 0.713333 29.6305 0.451999C30.0972 0.190666 30.6245 0.0599995 31.2125 0.0599995C31.8005 0.0599995 32.3279 0.190666 32.7945 0.451999C33.2612 0.713333 33.6252 1.082 33.8865 1.558C34.1572 2.02467 34.2925 2.55667 34.2925 3.154V7.172C34.2925 7.452 34.3719 7.676 34.5305 7.844C34.6892 8.012 34.8899 8.096 35.1325 8.096C35.3752 8.096 35.5759 8.012 35.7345 7.844C35.8932 7.676 35.9725 7.452 35.9725 7.172V0.199999H38.2125V7.074C38.2125 7.65267 38.0772 8.17533 37.8065 8.642C37.5452 9.10867 37.1812 9.47733 36.7145 9.748C36.2479 10.0093 35.7205 10.14 35.1325 10.14ZM50.305 10.14C49.717 10.14 49.1897 10.0093 48.723 9.748C48.2564 9.47733 47.8877 9.10867 47.617 8.642C47.3557 8.17533 47.225 7.65267 47.225 7.074V3.014C47.225 2.734 47.1457 2.51 46.987 2.342C46.8284 2.174 46.6277 2.09 46.385 2.09C46.1424 2.09 45.9417 2.174 45.783 2.342C45.6244 2.51 45.545 2.734 45.545 3.014V10H43.305V3.154C43.305 2.55667 43.4357 2.02467 43.697 1.558C43.9677 1.082 44.3364 0.713333 44.803 0.451999C45.2697 0.190666 45.797 0.0599995 46.385 0.0599995C46.973 0.0599995 47.5004 0.190666 47.967 0.451999C48.4337 0.713333 48.7977 1.082 49.059 1.558C49.3297 2.02467 49.465 2.55667 49.465 3.154V7.172C49.465 7.452 49.5444 7.676 49.703 7.844C49.8617 8.012 50.0624 8.096 50.305 8.096C50.5477 8.096 50.7484 8.012 50.907 7.844C51.0657 7.676 51.145 7.452 51.145 7.172V0.199999H53.385V7.074C53.385 7.65267 53.2497 8.17533 52.979 8.642C52.7177 9.10867 52.3537 9.47733 51.887 9.748C51.4204 10.0093 50.893 10.14 50.305 10.14ZM58.5475 10V0.199999H63.7695C64.0775 0.199999 64.3295 0.302666 64.5255 0.508C64.7309 0.704 64.8335 0.951333 64.8335 1.25C64.8335 1.54867 64.7309 1.80067 64.5255 2.006C64.3295 2.202 64.0775 2.3 63.7695 2.3H61.5435C61.3102 2.3 61.1142 2.37933 60.9555 2.538C60.7969 2.68733 60.7175 2.88333 60.7175 3.126V3.154C60.7175 3.38733 60.7969 3.58333 60.9555 3.742C61.1142 3.90067 61.3102 3.98 61.5435 3.98H63.0695C63.3775 3.98 63.6295 4.08267 63.8255 4.288C64.0309 4.484 64.1335 4.73133 64.1335 5.03C64.1335 5.32867 64.0309 5.58067 63.8255 5.786C63.6295 5.982 63.3775 6.08 63.0695 6.08H61.6135C61.3522 6.08 61.1375 6.164 60.9695 6.332C60.8015 6.5 60.7175 6.71467 60.7175 6.976V7.004C60.7175 7.26533 60.8015 7.48 60.9695 7.648C61.1375 7.816 61.3522 7.9 61.6135 7.9H63.7695C64.0775 7.9 64.3295 8.00267 64.5255 8.208C64.7309 8.404 64.8335 8.65133 64.8335 8.95C64.8335 9.24867 64.7309 9.50067 64.5255 9.706C64.3295 9.902 64.0775 10 63.7695 10H58.5475ZM73.8977 10.14C72.899 10.14 72.0077 9.916 71.2237 9.468C70.449 9.02 69.8423 8.41333 69.4037 7.648C68.9743 6.87333 68.7597 6.024 68.7597 5.1C68.7597 4.176 68.9743 3.33133 69.4037 2.566C69.8423 1.79133 70.449 1.18 71.2237 0.731999C72.0077 0.283999 72.899 0.0599995 73.8977 0.0599995C74.5883 0.0599995 75.237 0.195333 75.8437 0.465999C76.4503 0.727333 76.973 1.096 77.4117 1.572L75.9837 3.168C75.713 2.89733 75.3957 2.68733 75.0317 2.538C74.677 2.37933 74.299 2.3 73.8977 2.3C73.3843 2.3 72.9177 2.42133 72.4977 2.664C72.087 2.90667 71.7603 3.24267 71.5177 3.672C71.2843 4.10133 71.1677 4.57733 71.1677 5.1C71.1677 5.62267 71.2843 6.09867 71.5177 6.528C71.7603 6.95733 72.087 7.29333 72.4977 7.536C72.9177 7.77867 73.3843 7.9 73.8977 7.9C74.299 7.9 74.677 7.82533 75.0317 7.676C75.3957 7.51733 75.713 7.30267 75.9837 7.032L77.4257 8.628C76.987 9.104 76.4597 9.47733 75.8437 9.748C75.237 10.0093 74.5883 10.14 73.8977 10.14ZM84.4688 3.448C84.4688 3.12133 84.3568 2.85067 84.1328 2.636C83.9182 2.412 83.6475 2.3 83.3208 2.3H81.1788V0.199999H89.9988V2.3H87.8568C87.5302 2.3 87.2548 2.412 87.0308 2.636C86.8162 2.85067 86.7088 3.12133 86.7088 3.448V10H84.4688V3.448ZM98.4868 10.14C97.4881 10.14 96.5968 9.916 95.8128 9.468C95.0381 9.02 94.4315 8.41333 93.9928 7.648C93.5635 6.87333 93.3488 6.024 93.3488 5.1C93.3488 4.176 93.5635 3.33133 93.9928 2.566C94.4315 1.79133 95.0381 1.18 95.8128 0.731999C96.5968 0.283999 97.4881 0.0599995 98.4868 0.0599995C99.1775 0.0599995 99.8261 0.195333 100.433 0.465999C101.039 0.727333 101.562 1.096 102.001 1.572L100.573 3.168C100.302 2.89733 99.9848 2.68733 99.6208 2.538C99.2661 2.37933 98.8881 2.3 98.4868 2.3C97.9735 2.3 97.5068 2.42133 97.0868 2.664C96.6761 2.90667 96.3495 3.24267 96.1068 3.672C95.8735 4.10133 95.7568 4.57733 95.7568 5.1C95.7568 5.62267 95.8735 6.09867 96.1068 6.528C96.3495 6.95733 96.6761 7.29333 97.0868 7.536C97.5068 7.77867 97.9735 7.9 98.4868 7.9C98.8881 7.9 99.2661 7.82533 99.6208 7.676C99.9848 7.51733 100.302 7.30267 100.573 7.032L102.015 8.628C101.576 9.104 101.049 9.47733 100.433 9.748C99.8261 10.0093 99.1775 10.14 98.4868 10.14ZM110.87 10.14C109.9 10.14 109.022 9.916 108.238 9.468C107.454 9.02 106.838 8.41333 106.39 7.648C105.952 6.87333 105.732 6.024 105.732 5.1C105.732 4.176 105.952 3.33133 106.39 2.566C106.838 1.79133 107.454 1.18 108.238 0.731999C109.022 0.283999 109.9 0.0599995 110.87 0.0599995C111.841 0.0599995 112.718 0.283999 113.502 0.731999C114.286 1.18 114.898 1.79133 115.336 2.566C115.784 3.33133 116.008 4.176 116.008 5.1C116.008 6.024 115.784 6.87333 115.336 7.648C114.898 8.41333 114.286 9.02 113.502 9.468C112.718 9.916 111.841 10.14 110.87 10.14ZM110.87 7.9C111.365 7.9 111.818 7.774 112.228 7.522C112.639 7.27 112.966 6.92933 113.208 6.5C113.451 6.07067 113.572 5.604 113.572 5.1C113.572 4.596 113.451 4.12933 113.208 3.7C112.966 3.27067 112.639 2.93 112.228 2.678C111.818 2.426 111.365 2.3 110.87 2.3C110.376 2.3 109.923 2.426 109.512 2.678C109.102 2.93 108.775 3.27067 108.532 3.7C108.29 4.12933 108.168 4.596 108.168 5.1C108.168 5.604 108.29 6.07067 108.532 6.5C108.775 6.92933 109.102 7.27 109.512 7.522C109.923 7.774 110.376 7.9 110.87 7.9ZM127.695 10.14C127.107 10.14 126.58 10.0093 126.113 9.748C125.647 9.47733 125.278 9.10867 125.007 8.642C124.746 8.17533 124.615 7.65267 124.615 7.074V3.014C124.615 2.734 124.536 2.51 124.377 2.342C124.219 2.174 124.018 2.09 123.775 2.09C123.533 2.09 123.332 2.174 123.173 2.342C123.015 2.51 122.935 2.734 122.935 3.014V10H120.695V3.154C120.695 2.55667 120.826 2.02467 121.087 1.558C121.358 1.082 121.727 0.713333 122.193 0.451999C122.66 0.190666 123.187 0.0599995 123.775 0.0599995C124.363 0.0599995 124.891 0.190666 125.357 0.451999C125.824 0.713333 126.188 1.082 126.449 1.558C126.72 2.02467 126.855 2.55667 126.855 3.154V7.172C126.855 7.452 126.935 7.676 127.093 7.844C127.252 8.012 127.453 8.096 127.695 8.096C127.938 8.096 128.139 8.012 128.297 7.844C128.456 7.676 128.535 7.452 128.535 7.172V0.199999H130.775V7.074C130.775 7.65267 130.64 8.17533 130.369 8.642C130.108 9.10867 129.744 9.47733 129.277 9.748C128.811 10.0093 128.283 10.14 127.695 10.14Z" fill="#A5F981"/>
</svg>
