<svg width="127" height="131" viewBox="0 0 127 131" fill="none" xmlns="http://www.w3.org/2000/svg">
<path d="M22.3366 70.6711C20.954 71.0509 19.6223 71.4715 18.3416 71.9291L18.3375 71.9319C7.85405 75.686 0.990299 81.9393 0.990299 89.0198C0.990299 98.4762 13.2261 106.455 29.9711 108.981C33.5651 109.522 37.366 109.812 41.2987 109.812C42.6798 109.812 44.0456 109.777 45.3915 109.705C45.4044 108.563 45.5941 107.444 45.9482 106.351L50.0978 80.5098L51.9506 68.964C48.5577 68.4836 44.9863 68.2303 41.2987 68.2303C34.4449 68.2303 27.9877 69.1114 22.3366 70.6711Z" fill="url(#paint0_linear)"/>
<path d="M45.4084 109.704L45.3914 109.812V109.704H45.4084Z" fill="#FAFAFA"/>
<path d="M81.6085 89.126C81.5021 99.846 65.6739 108.645 45.4084 109.705L45.3914 109.812C45.3914 121.293 63.4398 130.602 85.7013 130.602C93.5383 130.602 100.854 129.447 107.041 127.452C118.432 123.779 126.01 117.252 126.01 109.812C126.01 107.095 124.998 104.502 123.164 102.123C123.158 102.117 123.154 102.11 123.149 102.104L123.144 102.098C117.205 94.4329 102.68 89.0198 85.7013 89.0198C84.3214 89.0198 82.9544 89.0553 81.6085 89.126Z" fill="url(#paint1_linear)"/>
<path d="M81.6085 89.1261C81.5022 99.846 65.6738 108.645 45.4084 109.705H45.3914C45.4042 108.563 45.594 107.444 45.9482 106.351C48.9203 97.1938 63.4936 90.0667 81.6085 89.1261Z" fill="#3C87F0"/>
<path d="M55.9713 43.9301L78.4792 26.7002L61.9553 0.398205L55.9713 43.9301Z" fill="url(#paint2_linear)"/>
<path d="M81.6081 89.0193V89.1257C82.954 89.0549 84.321 89.0193 85.702 89.0193C102.68 89.0193 117.205 94.4328 123.144 102.098L91.9317 49.217L81.6081 89.0193Z" fill="url(#paint3_linear)"/>
<path d="M81.6085 89.0198V89.126C63.4936 90.0667 48.9204 97.1938 45.9482 106.351L50.0976 80.5099L51.9506 68.964C69.0427 71.3736 81.6085 79.4387 81.6085 89.0198Z" fill="#41B4FF"/>
<path d="M91.9317 49.217L81.608 89.0193C81.608 79.4385 69.0431 71.3731 51.9501 68.9639L55.9714 43.9316V43.9287L78.4792 26.6985L91.9317 49.217Z" fill="#3C87F0"/>
<path d="M55.9713 43.9316L51.9501 68.9638C48.5575 68.4843 44.9865 68.2299 41.2984 68.2299C34.4448 68.2299 27.9875 69.1119 22.3368 70.6716C20.9535 71.0506 19.6218 71.4709 18.3414 71.9296L22.433 68.8839L55.9713 43.9316Z" fill="#A000FF"/>
<path d="M91.9317 49.2185L78.4792 26.7L102.376 6.84557C102.517 6.92561 91.9317 49.2185 91.9317 49.2185Z" fill="#FF6E00"/>
<defs>
<linearGradient id="paint0_linear" x1="0.990291" y1="89.0212" x2="51.9506" y2="89.0212" gradientUnits="userSpaceOnUse">
<stop stop-color="#FF6E00"/>
<stop offset="0.993695" stop-color="#A000FF"/>
<stop offset="1" stop-color="#A000FF"/>
</linearGradient>
<linearGradient id="paint1_linear" x1="45.3914" y1="109.811" x2="126.01" y2="109.811" gradientUnits="userSpaceOnUse">
<stop stop-color="#82FF64"/>
<stop offset="0.994382" stop-color="#41B4FF"/>
<stop offset="1" stop-color="#41B4FF"/>
</linearGradient>
<linearGradient id="paint2_linear" x1="55.9713" y1="22.1641" x2="78.4792" y2="22.1641" gradientUnits="userSpaceOnUse">
<stop stop-color="#3C87F0"/>
<stop offset="0.993695" stop-color="#0A0528"/>
<stop offset="1" stop-color="#0A0528"/>
</linearGradient>
<linearGradient id="paint3_linear" x1="81.6081" y1="75.6578" x2="123.144" y2="75.6578" gradientUnits="userSpaceOnUse">
<stop stop-color="#3C87F0"/>
<stop offset="0.993695" stop-color="#0A0528"/>
<stop offset="1" stop-color="#0A0528"/>
</linearGradient>
</defs>
</svg>
